<?xml version="1.0" standalone="no"?>
<!DOCTYPE svg PUBLIC "-//W3C//DTD SVG 20010904//EN"
 "http://www.w3.org/TR/2001/REC-SVG-20010904/DTD/svg10.dtd">
<svg version="1.0" xmlns="http://www.w3.org/2000/svg"
 width="1200.000000pt" height="1200.000000pt" viewBox="0 0 1200.000000 1200.000000"
 preserveAspectRatio="xMidYMid meet">
<metadata>
Created by potrace 1.14, written by Peter Selinger 2001-2017
</metadata>
<g transform="translate(0.000000,1200.000000) scale(0.100000,-0.100000)"
fill="#000000" stroke="none">
<path d="M10 6000 l0 -6000 5995 0 5994 0 1 1312 c0 1028 -3 1315 -13 1327 -9
12 -9 13 0 7 10 -5 13 362 13 1754 -1 1383 -3 1759 -13 1753 -9 -5 -9 -3 0 8
10 12 13 630 13 2927 l0 2912 -5995 0 -5995 0 0 -6000z m10481 -2957 c13 -16
12 -17 -3 -4 -10 7 -18 15 -18 17 0 8 8 3 21 -13z"/>
</g>
</svg>
