<svg xmlns="http://www.w3.org/2000/svg" width="48" height="44.8"><path d="M30 27c-4 0 6 12-5 1 4 6 8 13 14 17-2-3-16-24 9 0-5-6-14-18-18-18Z" style="fill:#55f;stroke-width:.0347"/><path d="M14 16c7 9-4 21-9 29 9 0 18-30 10-2 9-13 5-25-1-27Z" style="fill:#d40000;stroke-width:.0347"/><path d="M24 5h-1c0 2-3 4-4 1-3 4 7 3 5-1z" style="fill:#fff;stroke-width:.0347"/><path d="M10 7C-3 10 0 17 1 19c1-12 21 0 26-9-7 3-16-7-10-4 6-7 28-1 18 10-1 2-20 13-6 10-9-1 10-5 11-10 0 4-3 6-6 8C63 5 18-8 10 7Z" style="fill:#fff;stroke-width:.0347"/></svg>
