<svg data-name="Layer 1" viewBox="0 0 575.593 864" xmlns="http://www.w3.org/2000/svg"><path d="m162.045 653.014-44.133-55.371v40.29c0 5.834 2.42 7.156 9.684 7.486v7.595H99.31v-7.595c7.374-.33 8.695-1.652 8.695-7.485v-49.207c-3.19-4.403-4.844-4.953-8.695-5.395v-7.595h29.937l31.807 41.831V590.82c0-5.835-2.531-7.157-9.684-7.487v-7.595h28.176v7.595c-7.265.33-8.585 1.652-8.585 7.487v62.195Zm79.802-7.705h-2.751c-5.835 0-8.806-1.432-8.806-7.375v-20.696h8.145c4.842 0 6.824 1.982 7.924 8.585h7.264v-25.207h-7.264c-1.1 6.605-3.082 8.585-7.924 8.585h-8.145v-25.759h10.677c8.804 0 11.555 4.514 14.968 13.43h8.585v-21.135h-64.717v7.595c7.374.33 8.695 1.652 8.695 7.487v47.115c0 5.833-1.321 7.155-8.695 7.485v7.595h65.267l3.412-22.897h-8.365c-7.045 11.118-10.566 15.192-18.27 15.192Zm127.722-61.977c6.492.33 7.593 1.652 7.593 4.844 0 1.211-.55 3.193-1.651 6.385l-10.236 27.85-8.915-27.41c-1.321-3.962-1.542-5.614-1.542-6.825 0-3.192.992-4.514 7.595-4.844v-7.595h-36.1v7.595c2.97.552 4.513 1.542 5.502 4.074l3.853 11.448-9.245 24.328-11.448-29.501a16.665 16.665 0 0 1-1.43-5.505c0-3.082 1.76-4.402 6.494-4.844v-7.595h-37.2v7.595c2.97.552 5.062 1.322 6.273 4.074l26.965 66.048h8.034l15.96-42.381 15.188 42.38h8.254l24.765-66.047c1.21-3.082 3.522-3.522 6.494-4.074v-7.595h-25.203Zm39.274 16.622c0 14.31 7.815 20.916 25.094 25.54 11.998 3.193 15.41 5.835 15.41 11.338 0 6.605-4.953 9.687-11.668 9.687-10.235 0-15.408-5.724-18.49-18.164h-11.116l1.211 18.384c5.503 4.073 15.408 7.375 26.635 7.375 16.95 0 30.487-7.705 30.487-24.987 0-15.632-9.355-22.017-25.754-26.2-11.447-2.863-15.52-5.174-15.52-11.778 0-4.953 3.633-9.027 10.787-9.027 10.235 0 13.647 6.935 16.729 15.962h9.466V581.24c-5.504-3.962-13.978-6.603-24.764-6.603-16.62 0-28.507 9.357-28.507 25.317ZM143.183 151.63l25.9-18.821 25.903 18.821-9.895-30.454 25.9-18.821h-32.013L169.083 71.9l-9.893 30.454h-32.016l25.901 18.821Zm108.981 0 25.901-18.821 25.902 18.821-9.894-30.454 25.902-18.821H287.96L278.065 71.9l-9.893 30.454h-32.016l25.901 18.821Zm108.982 0 25.9-18.821 25.903 18.821-9.894-30.454 25.902-18.821H396.94L387.047 71.9l-9.893 30.454h-32.016l25.9 18.821ZM161.759 736.687l-3.051 15.8 29.976 35.759-1.951 53.333-10.177 16L124.206 864l-23.819-30.935 3.46-30.337-4.372-8.848-6.694-.639-8.65 16.046-2.98 41.746-18.318 9.12-20.778-10.146-27.013-1.993.055-286.956 5.149-42.199H0v-31.136h19.22a6.02 6.02 0 0 0 4.383-1.435 4.463 4.463 0 0 0 .77-1.255l.695-5.701V257.879a5.793 5.793 0 0 0-1.465-4.301 6.032 6.032 0 0 0-4.383-1.435H0v-31.139h28.412c15.324 0 28.586-7.705 30.675-20.483L79.862 30.244 73.546 0H460.9l39.863 197.037q20.783 1.414 36.13 12.7 17.553 12.907 26.533 38.105 8.98 25.193 8.982 61.659v98.33q0 28.68-6.473 49.778-1.65 5.369-3.612 10.291l13.269 33.553-26.145 49.206-7.236 52.41 12.011 28.508-7.91 58.806 9.292 46.304ZM496.366 227.97q-11.285 0-16.71 7.989-5.44 7.99-5.434 21.511v79.892q0 14.342 5.434 21.918 5.422 7.587 16.71 7.58 10.439 0 16.085-7.58 5.647-7.576 5.644-21.918V257.47q0-13.521-5.644-21.511-5.638-7.99-16.085-7.989ZM141.362 756.98l7.048-36.474h387.45l-5.942-29.594 7.689-57.118-12.034-28.535 8.242-59.658 23.99-45.143-5.343-13.503c-1.379 2.1-2.777 4.175-4.286 6.092a71.413 71.413 0 0 1-27.367 21.512 85.853 85.853 0 0 1-35.305 7.17q-18.805 0-33.425-8.196a62.086 62.086 0 0 1-23.194-22.33q-8.565-14.13-8.562-32.57a60.025 60.025 0 0 1 4.179-20.69 35.223 35.223 0 0 1 10.027-14.339 23.034 23.034 0 0 1 15.04-5.122q10.862 0 17.76 7.17 6.89 7.173 6.893 19.87a42.448 42.448 0 0 1-2.924 15.366 32.185 32.185 0 0 1-8.358 12.494 24.093 24.093 0 0 0 8.148 13.52q6.053 4.918 16.085 4.918 17.96 0 24.443-15.569 6.476-15.565 6.479-46.707v-39.982c-9.17 6.39-20.278 9.664-33.426 9.664q-19.227 0-33.635-9.219-14.419-9.217-22.354-26.222-7.943-16.996-7.943-40.355v-46.295q0-24.584 8.988-42.608a65.677 65.677 0 0 1 25.482-27.861 70.93 70.93 0 0 1 29.13-9.259l-36.67-181.225H93.455l2.791 13.37-.16 1.327-20.878 171.102v280.006q0 5.743 5.428 5.736h18.385v31.136H36.543l-5.329 43.673v270.45l15.14 1.12 16.412 8.011 2.907-1.448 2.57-35.993 15.384-28.552 26.35 2.507 10.485 21.199-3.261 28.563 14.19 18.429 35.614-4.37 3.72-5.85 1.564-42.723Zm-12.05-268.03q-9.402-16.382-9.402-38.511v-36.463q0-21.3 9.402-36.875a63.476 63.476 0 0 1 26.533-24.171c.898-.451 1.88-.769 2.802-1.185-.367-.167-.771-.281-1.133-.454a57.267 57.267 0 0 1-25.068-22.33q-8.772-14.537-8.777-34.21v-30.318q0-20.483 8.777-35.233a59.486 59.486 0 0 1 25.068-22.943q16.3-8.193 38.024-8.196 22.561 0 38.86 7.991a59.129 59.129 0 0 1 25.277 22.943q8.98 14.96 8.982 35.029v30.318q0 20.077-8.982 34.62a58.618 58.618 0 0 1-25.278 22.329c-.365.174-.776.288-1.145.457.923.415 1.918.732 2.814 1.182a64.949 64.949 0 0 1 26.743 24.17q9.601 15.579 9.607 37.285v36.463q0 22.125-9.607 38.307a64.968 64.968 0 0 1-26.743 24.994q-17.138 8.803-40.528 8.807-22.56 0-39.693-8.807a63.189 63.189 0 0 1-26.533-25.199Zm88.79-90.955q0-14.334-5.643-22.122-5.638-7.778-16.92-7.784-10.447 0-16.086 7.784-5.646 7.787-5.643 22.122v65.145q0 13.932 5.643 21.509 5.639 7.588 16.086 7.58 11.276 0 16.92-7.58 5.646-7.575 5.643-21.509ZM175.9 309.91q0 12.29 5.223 18.847 5.224 6.56 14.416 6.556 10.439 0 15.46-6.556 5.009-6.547 5.014-18.847v-57.767q0-11.88-5.013-18.028-5.016-6.145-15.46-6.145-9.196 0-14.417 6.145-5.232 6.145-5.223 18.028Zm126.183-57.767h19.22a6.032 6.032 0 0 1 4.383 1.435 5.793 5.793 0 0 1 1.465 4.3v224.11a5.775 5.775 0 0 1-1.465 4.3 6.02 6.02 0 0 1-4.383 1.435h-19.22v31.136h99.022v-31.136h-18.385q-5.431 0-5.428-5.736V200.521h-22.984q-1.675 10.246-7.307 15.364-5.646 5.125-16.505 5.119h-28.413Z" style="fill:#000"/></svg>