<svg data-name="Layer 1" width="33.31" height="50" xmlns="http://www.w3.org/2000/svg"><path d="m9.378 37.79-2.554-3.204v2.331c0 .338.14.415.56.434v.44H5.747v-.44c.427-.02.503-.096.503-.434V34.07c-.184-.255-.28-.287-.503-.312v-.44H7.48l1.84 2.42v-1.547c0-.338-.146-.414-.56-.433v-.44h1.63v.44c-.42.019-.496.095-.496.433v3.6zm4.618-.446h-.16c-.337 0-.509-.083-.509-.427V35.72h.471c.28 0 .395.114.459.497h.42v-1.46h-.42c-.064.383-.178.498-.459.498h-.471v-1.491h.618c.51 0 .669.261.866.777h.497v-1.223h-3.745v.44c.426.019.503.095.503.433v2.726c0 .338-.077.415-.503.434v.44h3.777l.197-1.326h-.484c-.408.644-.611.88-1.057.88zm7.391-3.586c.376.019.44.095.44.28 0 .07-.032.185-.096.37l-.592 1.611-.516-1.586c-.077-.23-.09-.325-.09-.395 0-.185.058-.261.44-.28v-.44h-2.09v.44c.173.032.262.089.32.235l.222.663-.535 1.408-.662-1.707a.964.964 0 0 1-.083-.319c0-.178.102-.255.376-.28v-.44h-2.153v.44c.172.032.293.076.363.235l1.56 3.823h.465l.924-2.453.879 2.453h.478l1.433-3.823c.07-.178.204-.203.376-.235v-.44h-1.459Zm2.273.962c0 .828.452 1.21 1.452 1.478.694.184.892.337.892.656 0 .382-.287.56-.675.56-.593 0-.892-.331-1.07-1.05h-.644l.07 1.063c.319.236.892.427 1.542.427.98 0 1.764-.446 1.764-1.446 0-.905-.541-1.274-1.49-1.516-.663-.166-.898-.3-.898-.682 0-.287.21-.522.624-.522.592 0 .79.4.968.923h.548v-.974c-.319-.23-.81-.383-1.433-.383-.962 0-1.65.542-1.65 1.466zM8.286 8.775l1.499-1.09 1.499 1.09-.573-1.763 1.5-1.089h-1.853l-.573-1.762-.573 1.762H7.36l1.499 1.09zm6.307 0 1.499-1.09 1.499 1.09-.573-1.763 1.5-1.089h-1.854l-.572-1.762-.573 1.762h-1.853l1.5 1.09zm6.307 0 1.498-1.09 1.5 1.09-.573-1.763 1.499-1.089H22.97L22.4 4.161l-.573 1.762h-1.853l1.5 1.09zM9.36 42.632l-.177.915 1.735 2.07-.113 3.085-.589.926-3.03.372-1.378-1.79.2-1.756-.252-.512-.388-.037-.5.929-.173 2.416-1.06.527-1.202-.587-1.564-.115.004-16.606.298-2.442H0v-1.802h1.112a.348.348 0 0 0 .254-.083.258.258 0 0 0 .044-.073l.04-.33V14.924a.335.335 0 0 0-.084-.25.35.35 0 0 0-.254-.082H0V12.79h1.644c.887 0 1.654-.446 1.775-1.186L4.622 1.75 4.256 0h22.416l2.307 11.403q1.203.081 2.091.735 1.016.746 1.536 2.205.52 1.458.52 3.568v5.69q0 1.66-.375 2.881-.096.31-.21.596l.769 1.941-1.513 2.848-.419 3.033.695 1.65-.458 3.403.538 2.68zm19.364-29.44q-.653 0-.967.463-.315.462-.315 1.245v4.623q0 .83.315 1.269.314.439.967.438.604 0 .93-.438.328-.439.327-1.269V14.9q0-.783-.326-1.245-.327-.462-.931-.462zM8.18 43.808l.408-2.111H31.01l-.343-1.713.445-3.305-.697-1.651.477-3.453 1.388-2.612-.309-.782c-.08.122-.16.242-.248.353a4.133 4.133 0 0 1-1.584 1.245 4.968 4.968 0 0 1-2.043.415q-1.088 0-1.934-.475a3.593 3.593 0 0 1-1.342-1.292q-.496-.818-.496-1.885a3.474 3.474 0 0 1 .242-1.197 2.038 2.038 0 0 1 .58-.83 1.333 1.333 0 0 1 .87-.296q.63 0 1.029.415.398.415.398 1.15a2.456 2.456 0 0 1-.169.889 1.863 1.863 0 0 1-.483.723 1.394 1.394 0 0 0 .471.782q.35.285.93.285 1.04 0 1.415-.901.375-.9.375-2.703v-2.314c-.53.37-1.173.56-1.934.56q-1.113 0-1.946-.534-.835-.534-1.294-1.518-.46-.983-.46-2.335v-2.68q0-1.422.52-2.465a3.8 3.8 0 0 1 1.475-1.612 4.105 4.105 0 0 1 1.686-.536L25.907.936H5.408l.162.774-.01.077-1.208 9.902v16.204q0 .332.314.332H5.73v1.802H2.115l-.309 2.527v15.651l.877.065.95.463.168-.083.148-2.083.89-1.653 1.525.145.607 1.227-.189 1.653.822 1.067 2.06-.253.216-.339.09-2.472zm-.698-15.511q-.544-.948-.544-2.229v-2.11q0-1.233.544-2.134a3.673 3.673 0 0 1 1.536-1.399c.052-.026.109-.044.162-.068-.021-.01-.045-.017-.066-.027a3.314 3.314 0 0 1-1.45-1.292q-.508-.841-.508-1.98v-1.754q0-1.186.508-2.04a3.442 3.442 0 0 1 1.45-1.327q.944-.474 2.2-.474 1.306 0 2.25.462a3.422 3.422 0 0 1 1.462 1.328q.52.866.52 2.027v1.755q0 1.162-.52 2.003a3.392 3.392 0 0 1-1.462 1.292c-.021.01-.045.017-.067.027.054.024.111.042.163.068a3.759 3.759 0 0 1 1.548 1.399q.555.901.556 2.158v2.11q0 1.28-.556 2.217a3.76 3.76 0 0 1-1.548 1.446q-.992.51-2.345.51-1.306 0-2.297-.51a3.657 3.657 0 0 1-1.536-1.458Zm5.139-5.264q0-.83-.327-1.28-.326-.45-.98-.45-.604 0-.93.45-.327.45-.327 1.28v3.77q0 .806.327 1.245.326.439.93.438.653 0 .98-.438.327-.439.327-1.245zm-2.443-5.097q0 .71.303 1.09.302.38.834.38.604 0 .895-.38.29-.379.29-1.09v-3.343q0-.688-.29-1.044-.29-.355-.895-.355-.532 0-.834.355-.303.356-.303 1.044zm7.303-3.343h1.112a.35.35 0 0 1 .254.083.335.335 0 0 1 .084.248v12.97a.334.334 0 0 1-.084.249.348.348 0 0 1-.254.083h-1.112v1.802h5.73v-1.802h-1.064q-.314 0-.314-.332V11.604h-1.33q-.097.593-.423.89-.327.296-.955.296h-1.644z" style="fill:#000;stroke-width:.0578704"/></svg>