<svg id="Layer_1" data-name="Layer 1" xmlns="http://www.w3.org/2000/svg" viewBox="0 0 175.17 109.61" aria-labelledby="alLogoTitle alLogoDesc"><defs><style>.cls-1{fill:#343e4b}.cls-2{fill:#fff}</style></defs><path class="cls-1" d="M175.15 0H.05L0 109.59h152.85v-.08c.47 0 .95.06 1.44.06a20.91 20.91 0 0 0 20.87-20.88Z"/><path class="cls-2" d="M35.34 72.73h20.07l-10-20.07Zm25.78 11.32H29.73l-5.81 11.42H11.23l34.15-68.3 34.14 68.3H66.83ZM92.8 27.18h11.32v56.87h34.14v11.41H92.8V27.18z"/><path d="M136.54 88.74c0 9 7.7 16.2 17.19 16.2s17.17-7.25 17.17-16.2-7.68-16.2-17.17-16.2-17.19 7.25-17.19 16.2" style="fill:#ffd248"/><path class="cls-1" d="M154 74.87a13.87 13.87 0 1 0 13.9 13.87A13.89 13.89 0 0 0 154 74.87m0 34.74a20.87 20.87 0 1 1 20.9-20.87 20.9 20.9 0 0 1-20.9 20.87"/><path class="cls-2" d="M147.73 62.32a5.63 5.63 0 0 1 .47-2.32 6.16 6.16 0 0 1 1.28-1.91l1.42 1.42a4 4 0 1 0 5.63 5.64 4 4 0 0 0 0-5.64l1.39-1.42a6.05 6.05 0 0 1 1.3 1.91 6 6 0 0 1-1.3 6.57 5.71 5.71 0 0 1-4.21 1.76 6 6 0 0 1-6-6M149.73 48.46a3.91 3.91 0 0 0 1.17 2.83 3.86 3.86 0 0 0 2.81 1.15 3.9 3.9 0 0 0 2.82-1.15 4 4 0 0 0 1.16-2.83 4 4 0 0 0-4-4 4 4 0 0 0-4 4m-2 0a6 6 0 0 1 6-6 5.64 5.64 0 0 1 4.22 1.78 6 6 0 0 1-4.22 10.22 5.8 5.8 0 0 1-4.23-1.76 5.74 5.74 0 0 1-1.75-4.23M152.4 36.27h7.15v1.98h-11.96l5.98-5.98-5.98-6.01h11.96v2.02h-7.15l4 3.99-4 4z"/></svg>