<svg class="{{ with .class }}{{ . }} end }}icon icon-author" width="15.886" height="15.953" viewBox="0 0 11.915 15.953" xmlns="http://www.w3.org/2000/svg"><rect style="fill:#000;fill-opacity:.996078;stroke-width:9.5;stroke-opacity:.996078" width="15.807" height="15.953" x="-1.921" rx="2" ry="2"/><path style="fill:#fff;fill-opacity:1;stroke:none;stroke-width:2.64472;stroke-opacity:.996078" d="M131.853 77.258c-9.248-28.724-10.12-43.624-9.643-7.524-9.214-20.143-4.064-20.672-11.774-1.44-4.822-22.455.29-25.094-12.734-8.393 1.963-6.395 4.09-16.945 4.068-23.708 35.156 21.37-.34-4.552-13.034-13.156 6.627.608 18.348 7.855 22.589 3.813 1.586-2.046-1.135-4.382-2.568-2.164 1.652-2.727 5.78-2.136 8.043-.299.535-5.141 1.432-3.769 11.65-1.31-8.425-7.475-25.15-9.775-34.33-4.907-1.366-8.539-11.442-5.806-9.362-8.043 25.583-13.556 70.546 23.857 46.595 10.392 7.012 8.203 14.534 20.967 16.29 33.295-2.803-4.733-5.558-9.922-10.366-12.882 5.983 8.141 10.744 27.978 11.473 37.562-20.09-38.012-9.705-33.92-16.897-1.236z" transform="matrix(.17385 0 0 .17385 -12.09 .758)"/><path style="fill:#fff;fill-opacity:1;stroke:none;stroke-width:2.64472;stroke-opacity:.996078" d="M100.877 19.438c-.372 1.503 3.014 4.84 3.736-.047-.066-.208 3.037-.456 3.481-.283-4.636 7.658-9.965 1.26-7.217.33zm-18.79-2.578c-.256.826-.469 1.489-.57 2.841-15.824 5.378-19.742 6.98-23.482 13.258 2.86-10.396 15.971-13.503 24.052-16.099z" transform="matrix(.17385 0 0 .17385 -12.09 .758)"/><path style="fill:#fff;fill-opacity:1;stroke:none;stroke-width:.935049;stroke-opacity:.996078" d="M65.049 33.798c10.727-3.837 17.02-4.015 26.905.085-1.611-.236-3.215-.605-4.844-.76-8.065-.967-9.3-1.339-22.041.724l-.025-.018z" transform="matrix(.17385 0 0 .17385 -12.09 .758)"/></svg>