<svg xmlns="http://www.w3.org/2000/svg" viewBox="-1841.75 337.48 400 27.86" width="45.51" height="3.17"><path d="m-1574.52 364.76-.08.02a14 14 0 0 1-1.63.43v.01h-.07l-.61.11h-.69v-.22l.07-.02.3-.08.5-.11.24-.06.4-.1a9.77 9.77 0 0 0 5-3.73c.88-1.4 1.55-2.92 1.98-4.52l.08-.27c.38-1.55.47-3.08.46-4.67v-.28c0-1.44-.07-2.84-.38-4.26l-.06-.27c-.64-2.97-2.13-5.85-4.72-7.58a9.49 9.49 0 0 0-2.4-1.07c-.37-.08-.74-.14-1.12-.21l-.35-.08-.1-.23h-.01c2.73-.1 5.76 1.36 7.73 3.18a14.5 14.5 0 0 1 3.65 6.15l.08.25c.77 2.58.75 6.17-.08 8.74l-.1.3a14.17 14.17 0 0 1-2.75 4.93l-.17.23a11.17 11.17 0 0 1-5.17 3.4Zm71.86-12.45-.04.06-.01.03-.02.03a144 144 0 0 0-1.74 4.59l-.45 1.22-.51 1.4c-.8 2.1-.8 2.1-.54 4.27.65.65 1.31.94 2.22 1.08v.23h-6.49v-.23l.28-.1.37-.15.36-.15c1.5-.71 2.16-2.58 2.75-4.04l.1-.24 1.06-2.68.1-.25 2.15-5.48a10.03 10.03 0 0 1 .62-1.61l.3-.76.16-.38 1.57-3.97.37-.93.11-.28.51-1.28c.06.15.09.29.09.41 0 .24-.1.46-.21.74l-.17.42-.08.22-.35.9-.18.45c-.21.55-.42 1.1-.61 1.67l-.08.22-.15.44-.69 1.95-.18.52-.07.19-.08.23-.07.19c-.09.37-.26.72-.4 1.07Zm-78.71-14.28c-.27.05-.54.12-.8.19a8.6 8.6 0 0 0-3.05 1.74l-.33.27c-2.5 2.09-3.46 5.85-3.76 8.95l-.02.9v1.58c0 1.43.05 2.82.38 4.22l.08.33a13.9 13.9 0 0 0 2.74 5.71l.27.34a9.25 9.25 0 0 0 3.71 2.42c.6.13 1.22.27 1.82.43v.22a10.2 10.2 0 0 1-2.61-.45l-.32-.09a10.86 10.86 0 0 1-4.12-2.3l-.28-.24a13.78 13.78 0 0 1-4.47-8.8c-.3-4.23.43-8.38 3.23-11.69 1.75-2 4.55-3.92 7.35-4.18.43-.08.68-.06 1.22-.01l-.11.23c-.31.09-.62.16-.93.23Zm59.6-.16-.5.1-.24.04-.4.08a9.98 9.98 0 0 0-5.42 3.62c-1 1.44-1.73 3.04-2.16 4.74l-.07.24c-.36 1.46-.43 2.9-.43 4.4v.26c0 1.73.11 3.47.56 5.16l.1.33c.79 2.81 2.48 5.47 5.06 6.94.79.42 1.53.77 2.41.94l.1.02.12.02v.02a6.05 6.05 0 0 1 .57.21l.68.12v.22c-.38 0-.76-.01-1.14-.06h-.06c-.1 0-.2-.02-.29-.04-2.8-.43-5.3-2.08-7.32-4.04a13.09 13.09 0 0 1-3.36-6.9l-.06-.3c-.15-.84-.21-1.69-.2-2.54v-.41c.03-2.54.64-4.76 1.85-6.98l.17-.33a12.63 12.63 0 0 1 8.38-5.96l.25-.06.08-.02v-.01a7.56 7.56 0 0 1 1.7-.11h.01v.23Zm10.57 19.92-.03.43-.07.56a40.7 40.7 0 0 1-.25 1.91c-.13.9-.13.9-.2 1.82-.05 1.09-.05 1.09-.45 1.47-.35.2-.72.34-1.11.44l-.22.07-1.16.29c-.37.08-.74.18-1.1.3-.24.06-.48.1-.72.13l.01.01h-.1c-.68.09-1.37.09-2.06.11v-.23l.1-.02a5.8 5.8 0 0 1 1.16-.24c1.6-.42 3-1.14 4.05-2.53.74-1.22 1.3-2.54 1.67-3.9l.3-1.38h.23v.1Zm-93.13-19.89c.43.01.82.06 1.25.13v.05c.26.05.52.1.8.17l.3.07c1.42.34 2.77.96 3.9 1.87l.24.17a7.2 7.2 0 0 1 2.15 3.13l.13.34c.7 2.37.49 5-.65 7.2a8.21 8.21 0 0 1-5.03 3.82c-1.24.33-3.16.64-4.35.02v-.12l.21-.01c2.18-.14 3.88-.48 5.46-2.11.51-.6.85-1.25 1.16-1.97l.14-.32c.5-1.29.58-2.63.58-4v-.41c0-2.05-.62-4.07-1.97-5.63a9 9 0 0 0-4.09-1.95c-.26 0-.5-.04-.77-.09l-.4-.07-.32-.05v-.23h1.26Zm122.73 19.88c.01.1.02.18.01.25.05.24.08.47.11.71a8.2 8.2 0 0 0 2.84 5.24c.6.4 1.27.71 1.97.9l.68.23v.22h-.5c-.37 0-.72-.04-1.1-.11h.01v-.02l-.46-.1-.31-.08a13.87 13.87 0 0 1-4.24-1.96c-.05-.75.04-1.48.13-2.22l.03-.33.13-1.04.08-.71.2-1.73h.23l.19.75Zm9.82 7.44a6.97 6.97 0 0 1-1.57.11h-.03v-.22c.11-.03.23-.06.34-.07l.04-.01c1.62-.34 3.21-.85 4.2-2.28.54-.86.94-1.73 1-2.76l.03-.4a6.37 6.37 0 0 0-1.5-4.43c-1.58-1.66-3.8-2.65-5.82-3.65a19.66 19.66 0 0 1-4.65-2.9l-.25-.21c-1-.9-1.74-2.2-1.82-3.54a6.33 6.33 0 0 1 1.45-4.74c1.07-1.13 2.73-2.32 4.38-2.53.27-.06.43-.05.79-.02v.23l-.66.22-.29.1a5.68 5.68 0 0 0-3.13 2.58 4.93 4.93 0 0 0-.34 3.56l.2.48.12.28c1.24 2.73 4.62 4 7.16 5.2 1.4.66 2.67 1.4 3.88 2.37l.27.22a6.77 6.77 0 0 1 2.46 4.44c.1 2.02-.24 3.76-1.58 5.33a8.36 8.36 0 0 1-3.66 2.3l-.3.11c-.25.09-.48.15-.72.2Zm-174.15-27.36-.45.23c-.49.28-.49.28-.84.7-.33 1.51.35 2.7 1.02 4l.55 1.07c.7 1.38 3.14 5.92 3.6 6.82.59 1.13 1.2 2.25 1.81 3.36.22.4.24.63.25 1.09v1.34l.02 1.98c-.15 3.14-.15 3.14.9 5.97.34.31.67.41 1.1.52v.23h-6.48v-.23l.18-.07c.74-.33 1.06-.74 1.38-1.48.47-1.4.33-3.05.35-4.5l.03-1.2a9.06 9.06 0 0 0-1.4-5.75c-.31-.5-.58-1-.85-1.5l-.34-.62-1.21-2.27c-.8-1.53-1.62-3.05-2.46-4.56l-.16-.3c-1.6-2.91-1.6-2.91-4.28-4.71v-.12Zm-162.93 0c.33.77.64 1.55.91 2.34.19.54 6.55 17.42 6.72 17.87 1.12 3.8 1.12 3.8 3.55 6.66.21.08.43.15.65.21v.23h-7.28v-.23l.2-.08c.62-.2 1.15-.62 1.5-1.17.29-2.37-2.04-7.4-2.15-8.08h-9l.12-.34c.89-.01 6.95-.12 8.65-.11-1.66-4.58-3.34-9.15-5.03-13.72l-.11-.3-.22-.54a2.27 2.27 0 0 1 .03-1.84l.16-.32.16-.33.12-.25Zm136.76 0h4.33V340a6931.74 6931.74 0 0 0 .07 19.29c-.06 2.76-.06 2.76 1 5.2.31.25.59.37.98.46v.23h-6.38v-.23l.19-.06c.53-.23.86-.44 1.09-1 .42-1.4.48-2.83.47-4.28v-9.88a1642.8 1642.8 0 0 0 0-6.57c.07-2.44.07-2.44-.84-4.6a4.12 4.12 0 0 0-.9-.57v-.12Zm-91.25 0c-.24.18-.49.36-.74.52-.8.79-.97 2.15-1 3.23V360c-.02 2.39-.02 2.39 1 4.48.28.23.51.36.86.46v.23h-6.15v-.23l.31-.13c.54-.3.8-.65 1-1.23l.14-.53.07-.3c.24-.99.27-1.95.26-2.97v-3.86l-.03-10.53v-2.13c.04-2.57.04-2.57-1-4.82-.22-.2-.48-.35-.75-.46v-.12Zm49.27 0v.9a22825.82 22825.82 0 0 0 .09 22.34c.01 1.75.01 1.75.78 3.27.34.3.6.49 1.06.57v.23h-6.48v-.23l.44-.22.25-.13c.22-.1.22-.1.45-.1.51-1.23.83-2.44.82-3.78v-1.27l.01-.71v-1.91l.02-2v-3.78l.02-4.31.04-8.87Zm-27.39 2.5a4 4 0 0 0-.6 1.83l-.01.34a5.36 5.36 0 0 0 1.45 4.04c.53.49 1.09.89 1.7 1.27l.28.18c1.07.66 5.62 2.86 6.7 3.53l.2.14c1.65 1.05 3.22 2.66 3.67 4.6.36 2.05.2 3.91-.97 5.65l-.66.84c-1.08 1.29-2.85 2.05-4.51 2.4l-.18.02-.5.09h-.91v-.23l.48-.12.27-.07.25-.02.26-.05c.5-.13 1-.31 1.47-.54a4.84 4.84 0 0 0 1.82-1.48 7.6 7.6 0 0 0 1.02-5 4.76 4.76 0 0 0-.57-1.37l-.17-.28c-1.35-2.12-3.5-3.17-5.69-4.24-5.96-2.96-5.96-2.96-7.22-5.83l-.12-.25a5.42 5.42 0 0 1 .08-3.72 7.29 7.29 0 0 1 3.34-3.66l.23-.13c.85-.53 1.84-.8 2.84-.78v.23l-.33.1c-1.52.46-2.79 1.1-3.62 2.51Zm83.71-.56.24.17a6.55 6.55 0 0 1 2.26 4.27c.1 1.9-.2 3.72-1.48 5.22a8.93 8.93 0 0 1-4.55 2.63l-.3.07-.6.16.47.2.31.13c.35.13.35.13.7.18.64.1 1.07.28 1.46.8.3.46.58.94.85 1.42.34.61.72 1.2 1.09 1.8l.46.76c1.96 3.27 1.96 3.27 4.1 6.42l.24.34c.23.26.48.4.78.57v.23h-3.75l-.36-.74c-.46-.93-.98-1.82-1.5-2.71a104.1 104.1 0 0 1-1.5-2.64c-.55-1-1.12-1.99-1.7-2.97l-1.35-2.34-.13-.22a3.72 3.72 0 0 1-.4-1h-2.86v-.23l.44-.05.8-.09a7.28 7.28 0 0 0 4.56-2.14c1.53-1.9 1.54-4.26 1.37-6.6a6.26 6.26 0 0 0-2.37-4.03 7.45 7.45 0 0 0-3.77-1.21l-.3-.03-.73-.08v-.23c.4-.01.82-.02 1.22 0h.1a9 9 0 0 1 1.64.12l-.03.02c1.64.24 3.2.79 4.58 1.8Zm-179.78-1.94v27.2h-4.09c.11-.23.11-.23.39-.39.58-.36.7-.8.88-1.45l.11-.42c.27-1.16.23-2.35.23-3.52l.01-16.09c.06-2.45.06-2.45-.87-4.64-.27-.21-.56-.4-.86-.57v-.12Zm141.39 2.3a12.43 12.43 0 0 0-3.5 6.86l-.05.3c-.21 1.18-.3 2.38-.29 3.58v.71c0 1.42 0 2.85.39 4.23l.07.3.24.84.07.24c.82 2.82 2.46 5.37 5.07 6.82.6.3 1.22.53 1.87.7.43.1.86.2 1.3.32v.23c-.44 0-.88-.04-1.32-.1l-.16-.02v-.01a11.22 11.22 0 0 1-5.58-2.72l-.27-.23a13.24 13.24 0 0 1-4.17-7.28l-.1-.42c-.22-1.1-.27-2.17-.27-3.28v-.41c0-.67.04-1.28.2-1.93.08-.3.11-.59.15-.9a12.99 12.99 0 0 1 4.95-8.17 11.84 11.84 0 0 1 5.22-2.27c.5-.1.75-.08 1.35-.03l-.12.23c-.3.09-.61.16-.93.23-.26.06-.51.11-.76.18-1.14.35-2.2.95-3.09 1.75Zm11.67-1.82a11.4 11.4 0 0 1 4.99 3.62l.24.32a14.64 14.64 0 0 1 2.76 8.98v.29c-.02 3.42-.87 6.98-3.33 9.5-.25.26-.25.26-.51.59-.3.35-.65.67-1.02.95l-.2.16c-1.76 1.33-4.1 2.52-6.35 2.54h-.35v-.23l.36-.09.5-.12.24-.05h.02a9.57 9.57 0 0 0 5.45-3.94c.44-.7.82-1.42 1.16-2.17l.15-.32c.74-1.84 1.13-3.8 1.13-5.79v-.28l.01-.9v-.31c.03-1.54-.13-3.08-.49-4.58l-.1-.46c-.53-2.2-1.6-4.2-3.2-5.8l-.24-.24a8.94 8.94 0 0 0-4.68-2.2l-.31-.06v-.23c.4.01.77.04 1.13.1.57.06 1.14.17 1.71.36v.03c.18.06.38.12.57.2Zm-76.96 12.82c.45.17.92.3 1.39.38 1.1.21 1.6.66 2.28 1.57l7.88 9.52c1.2 1.53 1.2 1.53 2.93 2.31v.23c-.8.05-1.6.1-2.4.11-1.62.1-1.62.1-2.12-.24-.4-.4-.67-.87-.95-1.35l-8.82-10.95-.2-.25-.4-.47c-.32-.38-.55-.66-.59-1.18.35.08.67.19 1 .32Zm6.17-13.3h7.05c-.3.2-.62.37-.95.52-.9.42-1.73.98-2.46 1.65-.06.05-2.16 2.06-3.1 3.07-.45.48-1.83 1.88-2.05 2.13-.22.25-1.75 1.81-1.9 1.96l-.8.92-.34-.12.8-.9 4.24-4.75c.67-.8 1.33-1.6 1.37-2.7l.01-.26c-.07-.38-.23-.56-.5-.83-.35-.19-.35-.19-.72-.32l-.37-.15-.28-.1Zm124.82 0c-.34.23-.34.23-.59.36-2.16 1.13-3.15 4.15-4.1 6.24l-.82 1.75-.11.24-.24.5-.62 1.3-.03.06-.75 1.64-.14.32-.1.21-.11.26c-.2.47-.43.92-.7 1.35a1 1 0 0 1 .03-.86l.03-.08.12-.29.14-.3.14-.32.45-1.03.3-.67.57-1.3.5-1.17.11-.26.2-.47c.06-.14.1-.25.16-.34l.14-.33.32-.72c.98-2.17.98-2.17 1.11-4.5a2.22 2.22 0 0 0-1.13-1.13c-.38-.13-.76-.24-1.14-.34v-.12Zm-113.67 19.12.03.31c.28 2.28.86 4.56 2.59 6.18l.2.2c.8.75 1.82 1.11 2.87 1.39v.23c-1.86-.01-3.9-.6-5.48-1.59-.21-.13-.21-.13-.47-.22-.28-.11-.5-.32-.65-.58-.1-.74.5-4.9.68-5.92Zm39.71-19.12.11 2.3.04.71.06 1.89h.02v2.39l-.08-.16a2.8 2.8 0 0 1-.33-1c-.5-1.98-1.13-3.92-2.95-5.06a7.27 7.27 0 0 0-3.17-.79l-.87-.05v-.23Zm-14.79 0c0 .04-.26.14-.4.15-1.7.16-3.42.43-4.68 1.72-1.2 1.49-1.64 3.37-2.09 5.19-.04 0-.03-4.7.11-7.06Zm-11.04 1.03.21.1c.43.22.74.44 1.04.8.24 1.28-.12 2.77-.28 4.03l-.29 2.24h-.22v-.3c-.1-2.4-.77-5.1-2.57-6.8a7.37 7.37 0 0 0-2.55-1.2v-.24l.43-.01h.24c1.4.2 2.76.68 3.99 1.39Zm-47.21-.98a7.5 7.5 0 0 1 3.07 1.2c.18.35.27.74.27 1.14l.01.34.01.36.02.37.02 1.21v.18c.02.96.01 1.93 0 2.9h-.1l-.18-.66-.1-.36c-.03-.11-.04-.2-.04-.3-.52-2.06-1.25-4.23-3.04-5.48a9.73 9.73 0 0 0-.74-.38l-.32-.17c-.4-.17-.82-.28-1.25-.34l-.46-.09h-.05l-.24-.06-.07-.02-.12-.23h.96c.4.02.8.06 1.2.12v.04l.92.18Zm-34.59 6.09v.01c-.35.86-.64 1.74-.96 2.6a5.9 5.9 0 0 1-.23.62l-.36.95-.13.43c-.12.34-.26.68-.4 1.02l-.12.29-.4 1.07-.02.07h-.02l-.87 2.36c-.35.96-1.98 5.5-2.13 5.83-.57 1.35-1.1 2.72-.85 4.22.39.7.88 1.1 1.65 1.33.25.06.49.1.74.14v.23h-6.49v-.23l.28-.1c.93-.36.93-.36 1.66-1.03l.15-.18c1.14-1.38 1.72-3.22 2.35-4.87l.44-1.12.82-2.07.02-.04c.22-.7.66-1.71.92-2.37l.38-.95c1.28-3.3 2.78-7.3 3.8-9.57.07-.16.07-.05.05.18l.02.18c.01.22-.06.4-.17.68Zm-19.35 6.72-.57.12.91.11h-.01c2.52.38 4.9 1.1 6.63 3.13 1.13 1.53 1.28 3.21 1.12 5.06-.18 1-.6 1.94-1.25 2.73l-.21.29c-1.3 1.53-3.35 2.26-5.38 2.64a3.4 3.4 0 0 1-.7.13l-.25.02c-.53.08-1.06.13-1.56.18-.75.05-1.5.06-2.26.04v-.23a18.5 18.5 0 0 0 1.76-.15c.53-.06.95-.15 1.95-.36l.29-.03a6.84 6.84 0 0 0 3.51-2.07 6.8 6.8 0 0 0 1.29-4.26l.01-.69c.01-1.6-.45-3.1-1.54-4.3a7.18 7.18 0 0 0-3.54-1.69l-.3-.06a19.6 19.6 0 0 0-1.13-.17l-1.06-.1-.33-.04-.8-.07v-.23l.33-.01c.89-.05 1.7-.15 2.57-.38l.13-.03a6.4 6.4 0 0 0 3-1.75c1.36-1.65 1.4-3.63 1.26-5.68a5.63 5.63 0 0 0-1.98-3.32c-1.59-1.1-3.53-1.4-5.42-1.46v-.23c3.13-.04 6.25.42 8.64 2.64a5.35 5.35 0 0 1 1.53 3.87v.34c.02 1.43-.69 2.6-1.63 3.63-1.4 1.36-3.17 1.92-5 2.36v.02Zm47.04 14.12.28.06.7.16v.23c-2.7.1-5.68-1.25-7.66-3.03-.3-.27-.59-.56-.88-.84l-.26-.25a9.4 9.4 0 0 1-1.44-1.8l-.2-.3a14.4 14.4 0 0 1-1.99-7.8v-.42c0-1.36.15-2.68.55-3.98l.09-.3c.3-.94.72-1.81 1.2-2.67l.2-.35c.5-.86 1.16-1.56 1.85-2.27l.23-.25c2-2.13 5.39-3.66 8.3-3.5l-.1.22-.9.18-.68.12a9.94 9.94 0 0 0-5.46 3.87c-2.6 3.93-3.06 9.03-2.18 13.58.72 3.22 2.27 6.21 5.07 8.07.82.5 1.7.88 2.63 1.13l.64.14Zm10.58-6.35.4-1.51h.12a21.93 21.93 0 0 1-.19 2.7 30.2 30.2 0 0 0-.2 1.97l-.03.39-.05.74c-.03.34-.06.6-.21.91-.39.3-.8.43-1.25.57l-.25.1c-1.04.37-2.1.64-3.19.8l.03.01c-.73.09-1.43.13-2.16.12v-.23l.53-.12.3-.06.42-.07a6.5 6.5 0 0 0 4.1-2.56c.6-.9 1-1.87 1.36-2.88l.1-.28.05-.2.05-.12.01-.03Zm277.3-20.58c.25.48.45.96.64 1.47l.18.48.1.27c.2.55.4 1.1.62 1.65l.66 1.79 1.38 3.67c.34.93.68 1.85.99 2.79a52.58 52.58 0 0 1 1.19 3.1c.33.91.67 1.81 1.02 2.72.37.96.72 1.93 1.06 2.9.22.66.47 1.31.77 1.94l.34.76c.85 2.12.85 2.12 2.6 3.48l.28.06v.23h-7.28v-.23l.23-.07c.82-.28.82-.28 1.39-.9.84-2.55-1.33-6.2-2.07-8.25l-9-.1.12-.35 3.55-.06c1.7-.04 3.4-.06 5.1-.05l-.07-.19c-.43-1.15-.85-2.3-1.25-3.47-.29-.83-.6-1.65-.93-2.46-.3-.77-.6-1.55-.86-2.34l-.68-1.88-.09-.26-.57-1.53-.51-1.38-.25-.65-.14-.38c-.24-.78-.25-1.28.1-2.01l.1-.22.25-.53Zm-60.65 0v27.31h-4.32v-.23l.18-.07c.54-.23.85-.43 1.1-.96.53-1.36.45-2.84.45-4.27l.03-16.9c.02-1.5-.03-3.07-.96-4.3-.21-.18-.21-.18-.43-.28l-.37-.18v-.12Zm-55.63 0h4.2l.01 2.1.06 19.07c-.03 2.9-.03 2.9 1.12 5.45.32.25.59.36.98.46v.23h-6.37v-.23l.3-.13c.53-.3.77-.6.97-1.17l.11-.43.11-.42c.26-1.16.23-2.34.23-3.52l.01-16.08c.06-2.45.06-2.45-.87-4.64-.27-.21-.56-.4-.86-.57Zm161 0v.9l.03 21c-.02 2.6-.02 2.6 1.1 4.84.24.14.24.14.49.2l.42.14v.23h-6.48v-.23l.42-.17c.72-.36 1.02-1.02 1.28-1.76.07-.37.12-.74.16-1.11.1-1.06.1-2.12.1-3.18l.09-20.86Zm9.67 0c.09.37.13.64.14 1.01l.02.33.01.36.1 2.34.02.76.02.35.03 2.25h-.23l-.03-.24c-.27-1.9-.94-4.4-2.47-5.68-1.47-1.02-2.93-1.17-4.67-1.25v-.23Zm-14.68 0v.23h-.4c-1.76.07-3.2.33-4.57 1.51a10.3 10.3 0 0 0-2.11 4.89l-.11.44-.1.33h-.1v-2.04l.08-2.01.05-.88.03-.57.01-.26.02-.25v-.21l.14-1.18Zm-55.62 1.14c.34.37.29.8.3 1.28l.02.32.03 1 .03.67c.04 1.1.07 2.22.06 3.33h-.23l-.05-.3c-.42-2.35-1.21-4.86-3.14-6.41a7.6 7.6 0 0 0-3.3-1.14v-.23c2.18-.09 4.32.56 6.28 1.48Zm-37.34-.8-.02.02.43.1h.16l-.02.03.3.08c.43.11.87.24 1.3.38l.61.18c1.66.48 3.2 1.42 4.52 2.51l.2.16c2.2 1.72 3.57 4.75 3.95 7.46.43 3.7-.18 7.64-2.53 10.62l-.25.31-.22.27a11.92 11.92 0 0 1-3.76 2.8l-.35.19a18.03 18.03 0 0 1-7.63 1.75h-1.58v-.12a10 10 0 0 1 1.6-.2c1.23-.2 2.98-.8 4.17-.79a12.6 12.6 0 0 0 3.9-2.08l.21-.16c2.14-1.66 3.19-4.7 3.57-7.27.48-4.08.18-8.61-2.38-11.98a10.55 10.55 0 0 0-4.77-3.32l-.37-.13a16 16 0 0 0-1.35-.39c-1.52-.28-3.03-.49-4.58-.53v-.23h.2a20.28 20.28 0 0 1 4.37.3l.32.04Zm79.32-.38c1.4.45 2.8 1.04 3.85 2.09l-.03.6-.04.4c-.08.97-.18 1.94-.27 2.9l-.07.66-.16 1.58h-.22l-.03-.2c-.27-2.52-.71-5.2-2.7-6.96a7.28 7.28 0 0 0-2.39-1.14v-.23h.03l.4-.01.23-.01a5.46 5.46 0 0 1 1.15.25Z"/><path d="M-1550.17 338.37a3.76 3.76 0 0 1 1.7.23l-.23.1v.24l-.54-.1-.31-.05c-.3-.09-.43-.18-.62-.42Zm31.51-.8c.73-.01 1.44.02 2.16.11v.12l-.27.05c-.29.05-.29.05-.52.18a12 12 0 0 1-.7-.11l-.38-.07-.29-.05v-.23Zm17.87 8.53h.22a7.48 7.48 0 0 1-.57 1.83h-.1c-.08-.69.18-1.21.45-1.83Zm-3.76 9.9.23.12-.12.8-.56.1c.2-.76.2-.76.45-1.02Z"/></svg>