<svg xmlns="http://www.w3.org/2000/svg" viewBox="-1841.75 337.48 400 27.86" width="45.51" height="3.17"><path d="M-1653.2 337.86h7.27l-.45.23c-.49.28-.49.28-.84.7-.33 1.51.35 2.7 1.02 4l.55 1.07c.7 1.38 3.14 5.92 3.6 6.82a145.35 145.35 0 0 0 1.81 3.36c.22.4.24.63.25 1.09V356.47l.02 1.98c-.15 3.14-.15 3.14.9 5.97.34.31.67.41 1.1.52v.23h-6.48v-.23l.18-.07c.74-.33 1.06-.74 1.38-1.48.47-1.4.33-3.05.35-4.5l.03-1.2c.09-2.21-.2-3.84-1.4-5.75-.31-.5-.58-1-.85-1.5l-.34-.62-1.21-2.27a253.34 253.34 0 0 0-2.46-4.56l-.16-.3c-1.6-2.91-1.6-2.91-4.28-4.71v-.12Zm-156.68 0h1.02c.33.77.64 1.55.91 2.34.19.54 6.55 17.42 6.72 17.87 1.12 3.8 1.12 3.8 3.55 6.66a9.16 9.16 0 0 0 .65.21v.23h-7.28v-.23l.2-.08a2.88 2.88 0 0 0 1.5-1.17c.29-2.37-2.04-7.4-2.15-8.08h-9l.12-.34c.89-.01 6.95-.12 8.65-.11a2019.97 2019.97 0 0 0-5.03-13.72l-.11-.3-.22-.54a2.27 2.27 0 0 1 .03-1.84l.16-.32.16-.33.12-.25Zm137.78 0h4.33V340a7086.52 7086.52 0 0 0 .04 11.17 2640.58 2640.58 0 0 0 .03 5.62 616.2 616.2 0 0 0 0 2.5c-.06 2.76-.06 2.76 1 5.2.31.25.59.37.98.46v.23h-6.38v-.23l.19-.06c.53-.23.86-.44 1.09-1 .42-1.4.48-2.83.47-4.28v-9.88a1784.94 1784.94 0 0 0 0-4.44 395.41 395.41 0 0 0 0-2.13c.07-2.44.07-2.44-.84-4.6a4.14 4.14 0 0 0-.9-.57v-.12Zm-97.28 0h6.03a10.67 10.67 0 0 1-.74.52c-.8.79-.97 2.15-1 3.23a1085.16 1085.16 0 0 1 0 1.96v14.22a478.51 478.51 0 0 0 0 2.21c-.02 2.39-.02 2.39 1 4.48.28.23.51.36.86.46v.23h-6.15v-.23l.31-.13c.54-.3.8-.65 1-1.23l.14-.53.07-.3c.24-.99.27-1.95.26-2.97v-3.86l-.03-10.53a398.95 398.95 0 0 0 0-2.13c.04-2.57.04-2.57-1-4.82a2.69 2.69 0 0 0-.75-.46v-.12Zm52.8 0h2.5v.9a23121.8 23121.8 0 0 0 .07 16.55 2344.41 2344.41 0 0 1 .02 4.57 373.71 373.71 0 0 0 0 1.22c.01 1.75.01 1.75.78 3.27.34.3.6.49 1.06.57v.23h-6.48v-.23l.44-.22.25-.13c.22-.1.22-.1.45-.1.51-1.23.83-2.44.82-3.78v-1.27l.01-.71v-1.91l.02-2v-3.78l.02-4.31.04-8.87Zm-21.27-.01c-1.52.46-2.79 1.1-3.62 2.51-.32.6-.58 1.14-.6 1.83l-.01.34a5.36 5.36 0 0 0 1.45 4.04c.53.49 1.09.89 1.7 1.27l.28.18c1.07.66 5.62 2.86 6.7 3.53l.2.14c1.65 1.05 3.22 2.66 3.67 4.6.36 2.05.2 3.91-.97 5.65l-.66.84c-1.08 1.29-2.85 2.05-4.51 2.4l-.18.02-.5.09a12.52 12.52 0 0 1-.91 0v-.23l.48-.12.27-.07.25-.02.26-.05a8.43 8.43 0 0 0 1.47-.54 4.85 4.85 0 0 0 1.82-1.48 7.6 7.6 0 0 0 1.02-5 4.76 4.76 0 0 0-.57-1.37l-.17-.28c-1.35-2.12-3.5-3.17-5.69-4.24-5.96-2.96-5.96-2.96-7.22-5.83l-.12-.25a5.42 5.42 0 0 1 .08-3.72 7.29 7.29 0 0 1 3.34-3.66l.23-.13a5.18 5.18 0 0 1 2.84-.78v.23l-.33.1Zm80.09 1.95.24.17a6.55 6.55 0 0 1 2.26 4.27c.1 1.9-.2 3.72-1.48 5.22a8.93 8.93 0 0 1-4.55 2.63l-.3.07-.6.16.47.2.31.13c.35.13.35.13.7.18.64.1 1.07.28 1.46.8.3.46.58.94.85 1.42.34.61.72 1.2 1.09 1.8l.46.76c1.96 3.27 1.96 3.27 4.1 6.42l.24.34c.23.26.48.4.78.57v.23h-3.75l-.36-.74c-.46-.93-.98-1.82-1.5-2.71a105.77 105.77 0 0 1-1.5-2.64c-.55-1-1.12-1.99-1.7-2.97l-1.35-2.34-.13-.22a3.7 3.7 0 0 1-.4-1H-1665.28v-.23l.44-.05a864.45 864.45 0 0 1 .8-.09 7.28 7.28 0 0 0 4.56-2.14c1.53-1.9 1.54-4.26 1.37-6.6a6.26 6.26 0 0 0-2.37-4.03 7.45 7.45 0 0 0-3.77-1.21l-.3-.03-.73-.08v-.23c.4-.01.82-.02 1.22 0h.1c.56 0 1.09.02 1.64.12l-.03.02c1.64.24 3.2.79 4.58 1.8Zm-183.98-1.94h4.2v27.2h-4.09c.11-.23.11-.23.39-.39.58-.36.7-.8.88-1.45l.11-.42c.27-1.16.23-2.35.23-3.52a57098.34 57098.34 0 0 0 .01-16.09c.06-2.45.06-2.45-.87-4.64a6.95 6.95 0 0 0-.86-.57v-.12Zm145.86 2.05-.27.25a12.43 12.43 0 0 0-3.5 6.86l-.05.3a18.9 18.9 0 0 0-.29 3.58v.71c0 1.42 0 2.85.39 4.23l.07.3.24.84.07.24c.82 2.82 2.46 5.37 5.07 6.82a9.69 9.69 0 0 0 1.87.7c.43.1.86.2 1.3.32v.23a9.2 9.2 0 0 1-1.32-.1l-.16-.02v-.01a11.23 11.23 0 0 1-5.58-2.72l-.27-.23a13.24 13.24 0 0 1-4.17-7.28l-.1-.42c-.22-1.1-.27-2.17-.27-3.28v-.41c0-.67.04-1.28.2-1.93.08-.3.11-.59.15-.9a12.99 12.99 0 0 1 4.95-8.17 11.83 11.83 0 0 1 5.22-2.27c.5-.1.75-.08 1.35-.03l-.12.23c-.3.09-.61.16-.93.23-.26.06-.51.11-.76.18a8.21 8.21 0 0 0-3.09 1.75Zm11.04-1.7.36.13a11.4 11.4 0 0 1 4.99 3.62l.24.32a14.64 14.64 0 0 1 2.76 8.98v.29c-.02 3.42-.87 6.98-3.33 9.5-.25.26-.25.26-.51.59a6.26 6.26 0 0 1-1.02.95l-.2.16c-1.76 1.33-4.1 2.52-6.35 2.54h-.35v-.23l.16-.04.2-.05.5-.12.24-.05h.02a9.57 9.57 0 0 0 5.45-3.94c.44-.7.82-1.42 1.16-2.17l.15-.32a15.57 15.57 0 0 0 1.13-5.79v-.28l.01-.9v-.31a18 18 0 0 0-.49-4.58 94.1 94.1 0 0 1-.1-.46c-.53-2.2-1.6-4.2-3.2-5.8l-.24-.24a8.94 8.94 0 0 0-4.68-2.2l-.31-.06v-.23c.4.01.77.04 1.13.1.57.06 1.14.17 1.71.36v.03c.18.06.38.12.57.2Zm-77.6 12.63c.35.08.67.19 1 .32a7.9 7.9 0 0 0 1.39.38c1.1.21 1.6.66 2.28 1.57l7.88 9.52c1.2 1.53 1.2 1.53 2.93 2.31v.23a54.95 54.95 0 0 1-2.4.11c-1.62.1-1.62.1-2.12-.24-.4-.4-.67-.87-.95-1.35a5097.8 5097.8 0 0 0-8.82-10.95l-.2-.25-.4-.47c-.32-.38-.55-.66-.59-1.18Zm7.17-12.98h7.05a7.12 7.12 0 0 1-.95.52 9.55 9.55 0 0 0-2.46 1.65c-.06.05-2.16 2.06-3.1 3.07-.45.48-1.83 1.88-2.05 2.13-.22.25-1.75 1.81-1.9 1.96l-.8.92-.34-.12.8-.9 4.24-4.75c.67-.8 1.33-1.6 1.37-2.7l.01-.26c-.07-.38-.23-.56-.5-.83-.35-.19-.35-.19-.72-.32l-.37-.15-.28-.1v-.12Zm118.56 0h6.26c-.34.23-.34.23-.59.36-2.16 1.13-3.15 4.15-4.1 6.24a141.53 141.53 0 0 1-.82 1.75l-.11.24-.24.5a472.1 472.1 0 0 0-.62 1.3l-.03.06-.75 1.64-.14.32-.1.21-.11.26a9.48 9.48 0 0 1-.7 1.35 1.01 1.01 0 0 1 .03-.86l.03-.08.12-.29.14-.3.14-.32.45-1.03.3-.67.57-1.3.5-1.17.11-.26.2-.47c.06-.14.1-.25.16-.34l.14-.33.32-.72c.98-2.17.98-2.17 1.11-4.5-.25-.56-.59-.84-1.13-1.13-.38-.13-.76-.24-1.14-.34v-.12Zm-107.64 19.12h.23l.03.31c.28 2.28.86 4.56 2.59 6.18l.2.2c.8.75 1.82 1.11 2.87 1.39v.23c-1.86-.01-3.9-.6-5.48-1.59-.21-.13-.21-.13-.47-.22a1.28 1.28 0 0 1-.65-.58c-.1-.74.5-4.9.68-5.92Zm32.77-19.12h7.17l.11 2.3.04.71.06 1.89h.02v2.39l-.08-.16c-.17-.34-.3-.66-.33-1-.5-1.98-1.13-3.92-2.95-5.06a7.27 7.27 0 0 0-3.17-.79 146.69 146.69 0 0 0-.87-.05v-.23Zm-14.68 0h7.06c0 .04-.26.14-.4.15-1.7.16-3.42.43-4.68 1.72-1.2 1.49-1.64 3.37-2.09 5.19-.04 0-.03-4.7.11-7.06Zm-3.98 1.03.21.1c.43.22.74.44 1.04.8.24 1.28-.12 2.77-.28 4.03l-.29 2.24h-.22v-.3c-.1-2.4-.77-5.1-2.57-6.8a7.37 7.37 0 0 0-2.55-1.2v-.24l.43-.01h.24a11.3 11.3 0 0 1 3.99 1.39Zm-47.44-1.03.23.05c1.1.23 2.16.52 3.07 1.2a2.6 2.6 0 0 1 .27 1.14l.01.34.01.36.02.37.02 1.21v.18c.02.96.01 1.93 0 2.9h-.1l-.18-.66-.1-.36c-.03-.11-.04-.2-.04-.3-.52-2.06-1.25-4.23-3.04-5.48a9.55 9.55 0 0 0-.74-.38l-.32-.17a4.73 4.73 0 0 0-1.25-.34l-.46-.09h-.05l-.24-.06-.07-.02-.12-.23h.96c.4.02.8.06 1.2.12v.04l.92.18Zm-34.36 6.14v.01c-.35.86-.64 1.74-.96 2.6a5.82 5.82 0 0 1-.23.62l-.36.95-.13.43a17.72 17.72 0 0 1-.4 1.02l-.12.29-.4 1.07-.02.07h-.02l-.87 2.36c-.35.96-1.98 5.5-2.13 5.83-.57 1.35-1.1 2.72-.85 4.22.39.7.88 1.1 1.65 1.33.25.06.49.1.74.14v.23h-6.49v-.23l.28-.1c.93-.36.93-.36 1.66-1.03l.15-.18c1.14-1.38 1.72-3.22 2.35-4.87l.44-1.12.82-2.07.02-.04c.22-.7.66-1.71.92-2.37l.38-.95c1.28-3.3 2.78-7.3 3.8-9.57.07-.16.07-.05.05.18l.02.18c.01.22-.06.4-.17.68l-.13.32Zm-19.35 6.72-.57.12.91.11h-.01c2.52.38 4.9 1.1 6.63 3.13 1.13 1.53 1.28 3.21 1.12 5.06a6.01 6.01 0 0 1-1.25 2.73l-.21.29c-1.3 1.53-3.35 2.26-5.38 2.64a3.38 3.38 0 0 1-.7.13l-.25.02c-.53.08-1.06.13-1.56.18a22.9 22.9 0 0 1-2.26.04v-.23a18.76 18.76 0 0 0 1.76-.15c.53-.06.95-.15 1.95-.36l.29-.03a6.84 6.84 0 0 0 3.51-2.07 6.8 6.8 0 0 0 1.29-4.26l.01-.69c.01-1.6-.45-3.1-1.54-4.3a7.18 7.18 0 0 0-3.54-1.69l-.3-.06a19.4 19.4 0 0 0-1.13-.17l-1.06-.1-.33-.04-.8-.07v-.23l.33-.01c.89-.05 1.7-.15 2.57-.38l.13-.03a6.4 6.4 0 0 0 3-1.75c1.36-1.65 1.4-3.63 1.26-5.68a5.63 5.63 0 0 0-1.98-3.32c-1.59-1.1-3.53-1.4-5.42-1.46v-.23c3.13-.04 6.25.42 8.64 2.64a5.35 5.35 0 0 1 1.53 3.87v.34c.02 1.43-.69 2.6-1.63 3.63-1.4 1.36-3.17 1.92-5 2.36v.02Zm47.04 14.12.28.06.7.16v.23c-2.7.1-5.68-1.25-7.66-3.03-.3-.27-.59-.56-.88-.84l-.26-.25a9.39 9.39 0 0 1-1.44-1.8l-.2-.3a14.4 14.4 0 0 1-1.99-7.8v-.42c0-1.36.15-2.68.55-3.98l.09-.3c.3-.94.72-1.81 1.2-2.67l.2-.35c.5-.86 1.16-1.56 1.85-2.27l.23-.25c2-2.13 5.39-3.66 8.3-3.5l-.1.22-.9.18-.68.12a9.94 9.94 0 0 0-5.46 3.87c-2.6 3.93-3.06 9.03-2.18 13.58.72 3.22 2.27 6.21 5.07 8.07a10.27 10.27 0 0 0 2.63 1.13l.64.14Zm10.52-6.1.06-.25.4-1.51h.12c.01.3 0 .6-.01.9-.03.6-.1 1.2-.18 1.8a29.83 29.83 0 0 0-.2 1.97l-.03.39-.05.74c-.03.34-.06.6-.21.91-.39.3-.8.43-1.25.57l-.25.1c-1.04.37-2.1.64-3.19.8l.03.01c-.73.09-1.43.13-2.16.12v-.23l.53-.12.3-.06.42-.07a6.5 6.5 0 0 0 4.1-2.56c.6-.9 1-1.87 1.36-2.88l.1-.28.05-.2.05-.12.01-.03ZM-1497.5 337.91h1.03c.25.48.45.96.64 1.47l.18.48.1.27c.2.55.4 1.1.62 1.65a1110.93 1110.93 0 0 1 .66 1.79 1304.74 1304.74 0 0 1 1.38 3.67c.34.93.68 1.85.99 2.79.1.3.22.6.35.9.3.72.57 1.46.84 2.2.33.91.67 1.81 1.02 2.72a88.1 88.1 0 0 1 1.06 2.9c.22.66.47 1.31.77 1.94l.34.76c.85 2.12.85 2.12 2.6 3.48l.28.06v.23h-7.28v-.23l.23-.07c.82-.28.82-.28 1.39-.9.84-2.55-1.33-6.2-2.07-8.25l-9-.1.12-.35a4138.42 4138.42 0 0 1 3.55-.06c1.7-.04 3.4-.06 5.1-.05l-.07-.19c-.43-1.15-.85-2.3-1.25-3.47a47.43 47.43 0 0 0-.93-2.46 48.32 48.32 0 0 1-.86-2.34 94.14 94.14 0 0 0-.68-1.88l-.09-.26-.57-1.53a392.14 392.14 0 0 1-.51-1.38l-.25-.65-.14-.38c-.24-.78-.25-1.28.1-2.01l.1-.22.25-.53Zm-63.94 0h4.32v27.31h-4.32v-.23l.18-.07c.54-.23.85-.43 1.1-.96.53-1.36.45-2.84.45-4.27a35434.84 35434.84 0 0 0 .03-16.9c.02-1.5-.03-3.07-.96-4.3-.21-.18-.21-.18-.43-.28l-.37-.18v-.12Zm-51.31 0h4.2l.01 2.1.06 19.07c-.03 2.9-.03 2.9 1.12 5.45.32.25.59.36.98.46v.23h-6.37v-.23l.3-.13c.53-.3.77-.6.97-1.17l.11-.43.11-.42c.26-1.16.23-2.34.23-3.52a54255.37 54255.37 0 0 0 .01-16.08c.06-2.45.06-2.45-.87-4.64a6.95 6.95 0 0 0-.86-.57v-.12Zm158.6 0h2.4v.9a23276.22 23276.22 0 0 0 .03 21c-.02 2.6-.02 2.6 1.1 4.84.24.14.24.14.49.2l.42.14v.23h-6.48v-.23l.42-.17c.72-.36 1.02-1.02 1.28-1.76a13.14 13.14 0 0 0 .16-1.11c.1-1.06.1-2.12.1-3.18l.09-20.86Zm-67.24-.34v.23l-.34.05a9.98 9.98 0 0 0-6.6 3.86 14.46 14.46 0 0 0-2.16 4.74l-.07.24c-.36 1.46-.43 2.9-.43 4.4v.26c0 1.73.11 3.47.56 5.16l.1.33c.79 2.81 2.48 5.47 5.06 6.94.79.42 1.53.77 2.41.94.28.06.53.17.79.27l.68.12v.22c-3.42.04-6.44-1.84-8.81-4.14a13.09 13.09 0 0 1-3.36-6.9l-.06-.3a13.38 13.38 0 0 1-.2-2.54v-.41c.03-2.54.64-4.76 1.85-6.98l.17-.33a12.63 12.63 0 0 1 8.38-5.96l.25-.06c.6-.13 1.16-.16 1.78-.14Zm-56.32 0c2.73-.1 5.76 1.36 7.73 3.18a14.5 14.5 0 0 1 3.65 6.15l.08.25c.77 2.58.75 6.17-.08 8.74l-.1.3a14.17 14.17 0 0 1-2.75 4.93l-.17.23c-1.8 2.24-4.78 3.57-7.56 3.98h-.69v-.22l.34-.07a9.77 9.77 0 0 0 6.17-4.03 16.75 16.75 0 0 0 1.98-4.52l.08-.27c.38-1.55.47-3.08.46-4.67v-.28c0-1.44-.07-2.84-.38-4.26l-.06-.27c-.64-2.97-2.13-5.85-4.72-7.58a9.5 9.5 0 0 0-3.55-1.32l-.32-.04-.1-.23Zm78.28 5.12c.18.45.05.72-.12 1.15l-.17.42-.08.22-.35.9-.18.45c-.21.55-.42 1.1-.61 1.67l-.08.22-.15.44-.69 1.95-.18.52a32 32 0 0 1-.52 1.37 142.63 142.63 0 0 0-1.91 5.02l-.45 1.22a478.07 478.07 0 0 0-.51 1.4c-.8 2.1-.8 2.1-.54 4.27.65.65 1.31.94 2.22 1.08v.23h-6.49v-.23l.28-.1.37-.15.36-.15c1.5-.71 2.16-2.58 2.75-4.04l.1-.24 1.06-2.68.1-.25a1309.54 1309.54 0 0 0 2.7-6.88 3129.4 3129.4 0 0 1 2.1-5.32l.37-.93.11-.28.51-1.28Zm50.3-4.78h7.05c.09.37.13.64.14 1.01l.02.33.01.36a1295.75 1295.75 0 0 1 .1 2.34l.02.76.02.35.03 2.25h-.23l-.03-.24c-.27-1.9-.94-4.4-2.47-5.68-1.47-1.02-2.93-1.17-4.67-1.25v-.23Zm-14.69 0h7.06v.23h-.4c-1.76.07-3.2.33-4.57 1.51a10.3 10.3 0 0 0-2 4.35 3.55 3.55 0 0 1-.11.54l-.11.44-.1.33h-.1v-2.05.01l.08-2.01.05-.88.03-.57.01-.26.02-.25v-.21l.14-1.18Zm-54.84-.34c2.18-.09 4.32.56 6.28 1.48.34.37.29.8.3 1.28l.02.32.03 1 .03.67c.04 1.1.07 2.22.06 3.33h-.23l-.05-.3c-.42-2.35-1.21-4.86-3.14-6.41a7.61 7.61 0 0 0-3.3-1.14v-.23Zm7.28 19.46h.23a41.59 41.59 0 0 1-.4 3.66c-.13.9-.13.9-.2 1.82-.05 1.09-.05 1.09-.45 1.47a4.99 4.99 0 0 1-1.11.44l-.22.07-1.16.29c-.37.08-.74.18-1.1.3-.94.23-1.9.22-2.87.25v-.23l.39-.06c1.96-.38 3.68-1.09 4.92-2.73a15.13 15.13 0 0 0 1.97-5.28Z"/><path d="M-1499.43 342.7c.18.44.05.71-.12 1.14l-.17.42-.08.22-.35.9-.18.45c-.21.55-.42 1.1-.61 1.67l-.08.22-.15.44-.69 1.94-.2.58c-.1.3-.22.6-.33.88l-.11.3-.11.29-.1.25c-.17.25-.3.25-.59.3a22 22 0 0 1 .85-2.41l.3-.76.17-.4.85-2.13.09-.22 1.61-4.09Zm-55.18-4.79c2.4-.1 4.77.2 7.04.95l.61.18c1.66.48 3.2 1.42 4.52 2.51l.2.16c2.2 1.72 3.57 4.75 3.95 7.46.43 3.7-.18 7.64-2.53 10.62l-.25.31-.22.27a11.93 11.93 0 0 1-3.76 2.8l-.35.19a18.03 18.03 0 0 1-8.02 1.75h-1.19v-.12c.38-.08.75-.13 1.14-.15 1.2-.08 3.28-.86 4.63-.84a12.61 12.61 0 0 0 3.9-2.08l.21-.16c2.14-1.66 3.19-4.7 3.57-7.27.48-4.08.18-8.61-2.38-11.98-2.19-2.76-5.51-3.86-8.91-4.26-.72-.06-1.44-.1-2.16-.11v-.23Z"/><path d="M-1554.61 337.91c1.14-.05 2.25.03 3.39.15l.39.04a12.9 12.9 0 0 1 2.36.5l-.23.1v.24l-.2-.05c-1.9-.38-3.77-.7-5.71-.75v-.23Zm53.36 17.41 1.63-.02h.56l.8-.01h.25c.24 0 .24 0 .63.03l.34.34h-4.32l.11-.34Zm-73.73 8.99.23.11-.11.12.34.22c-1.03.3-2 .53-3.08.57v-.22l.37-.1.5-.11.24-.06a6.38 6.38 0 0 0 1.16-.38l.35-.15Zm72.7-14c.24.69-.13 1.37-.38 2-.18.28-.18.28-.42.36l-.22.03c.22-.77.44-1.55.8-2.27l.23-.12Zm-78.05-12.74-.11.23c-.31.09-.62.16-.93.23a13.47 13.47 0 0 0-1.69.45l-.22-.45c1.95-.55 1.95-.55 2.95-.46Zm2.62 0a8.73 8.73 0 0 1 2.96.46l-.11.45-.41-.15c-.65-.22-1.3-.33-1.98-.45l-.35-.08-.1-.23Zm-5.12 26.97c.84.16 1.67.35 2.5.57v.22a10.25 10.25 0 0 1-2.61-.45l.11-.34Zm31.75.34v.11c-.79.1-1.55.13-2.34.12h-1.19v-.12a9.99 9.99 0 0 1 3.53-.11Zm29.7-27.3v.22l-.39.07-.5.1-.24.04-1.27.24-.11-.34a8 8 0 0 1 2.5-.34Zm10 19.45h.23l-.05.76-.03.43a7.17 7.17 0 0 1-.15.97l-.45-.11.45-2.05Zm-92.95-19.13c.43.01.82.06 1.25.13v.05c.26.05.52.1.8.17l.3.07c1.42.34 2.77.96 3.9 1.87l.24.17a7.19 7.19 0 0 1 2.15 3.13l.13.34c.7 2.37.49 5-.65 7.2a8.21 8.21 0 0 1-5.03 3.82c-1.24.33-3.16.64-4.35.02v-.12l.21-.01c2.18-.14 3.88-.48 5.46-2.11.51-.6.85-1.25 1.16-1.97l.14-.32c.5-1.29.58-2.63.58-4v-.41c0-2.05-.62-4.07-1.97-5.63a9 9 0 0 0-4.09-1.95c-.26 0-.5-.04-.77-.09l-.4-.07-.32-.05v-.23h1.26Zm80.9 26.75c.49.06.9.15 1.36.34l.68.12v.22l-.77-.04-.43-.02a1.8 1.8 0 0 1-.85-.28h.35v-.23l-.35-.1Zm6.48.23.45.34-2.16.11v-.22c1.17-.3 1.17-.3 1.7-.23Z"/><path d="M-1550.17 338.37a3.76 3.76 0 0 1 1.7.23l-.23.1v.24l-.54-.1-.31-.05c-.3-.09-.43-.18-.62-.42Zm31.51-.8c.73-.01 1.44.02 2.16.11v.12l-.27.05c-.29.05-.29.05-.52.18a12 12 0 0 1-.7-.11l-.38-.07-.29-.05v-.23Zm17.87 8.53h.22a7.48 7.48 0 0 1-.57 1.83h-.1c-.08-.69.18-1.21.45-1.83Zm-3.76 9.9.23.12-.12.8-.56.1c.2-.76.2-.76.45-1.02Z"/><path d="m-1548.7 338.7.45.04.24.02c.22.06.22.06.45.4-.43.17-.71.05-1.14-.11v-.34Zm-1.02-.45c-.12.18-.12.18-.34.35-.3-.02-.58-.05-.88-.1l-.24-.03-.59-.1v-.12c.69-.17 1.36-.07 2.05 0Zm72.14 26.97v-.02a10.78 10.78 0 0 1-.46-.1l-.31-.08c-1.55-.4-2.91-1.08-4.24-1.96-.05-.75.04-1.48.13-2.22l.03-.33.13-1.04.08-.71.2-1.73h.23c.13.57.24 1.13.31 1.71a8.2 8.2 0 0 0 2.84 5.24 6.54 6.54 0 0 0 1.97.9l.68.23v.22a6.38 6.38 0 0 1-.5 0c-.37 0-.72-.04-1.1-.11Z"/><path d="M-1482.02 357.03h.23a930.95 930.95 0 0 0 .19.75c.04.28 0 .46-.08.73l-.23-.57h-.11v-.91Zm10.24 8.08v.11c-.54.1-1.04.12-1.6.11v-.22c.55-.16 1.05-.08 1.6 0Zm-30.5-14.8a1 1 0 0 1 .04.77c-.15.26-.15.26-.49.37l.1-.5.06-.29.07-.23.23-.12Zm-19.1-12.74v.23c-1.21.15-1.21.15-1.71 0v-.12a7.52 7.52 0 0 1 1.7-.1Zm-59.92.41a8.61 8.61 0 0 0-3.92 1.98l-.33.27c-2.5 2.09-3.46 5.85-3.76 8.95a25.18 25.18 0 0 0-.02.9v1.58c0 1.43.05 2.82.38 4.22l.08.33a13.91 13.91 0 0 0 2.74 5.71l.27.34a9.24 9.24 0 0 0 5.53 2.85v.22a10.22 10.22 0 0 1-2.61-.45l-.32-.09a10.86 10.86 0 0 1-4.12-2.3l-.28-.24a13.78 13.78 0 0 1-4.47-8.8c-.3-4.23.43-8.38 3.23-11.69 2-2.3 5.38-4.47 8.57-4.19l-.11.23-.19.04-.67.14Zm57.3 26.56c.3.06.6.12.9.22v.23l-1.02-.11.11-.34Zm-52.23.57v.11l-1.37.11v-.22c.49-.14.88-.1 1.37 0Z"/><path d="m-1523.44 364.65.8.11.11.46-.9-.11.34-.12v-.23l-.35-.1Zm22.08-17.07.22.35c-.1.36-.1.36-.22.68h-.34l.34-1.03Zm30.71-9.78.25.07c1.4.45 2.8 1.04 3.85 2.09a9.45 9.45 0 0 1-.03.6l-.04.4c-.08.97-.18 1.94-.27 2.9l-.07.66-.16 1.58h-.22l-.03-.2c-.27-2.52-.71-5.2-2.7-6.96a7.3 7.3 0 0 0-2.07-1.04c-.11 0-.16-.02-.32-.1v-.23h.03l.4-.01.23-.01c.12.01.22.03.32.06.27.04.54.1.83.19Zm-5.2.22-.29.1a5.68 5.68 0 0 0-3.13 2.58 4.93 4.93 0 0 0-.34 3.56l.2.48.12.28c1.24 2.73 4.62 4 7.16 5.2 1.4.66 2.67 1.4 3.88 2.37l.27.22a6.77 6.77 0 0 1 2.46 4.44c.1 2.02-.24 3.76-1.58 5.33a8.36 8.36 0 0 1-3.66 2.3l-.3.11c-.79.28-1.5.36-2.31.34v-.22l.37-.08c1.62-.34 3.21-.85 4.2-2.28.54-.86.94-1.73 1-2.76l.03-.4a6.37 6.37 0 0 0-1.5-4.43c-1.58-1.66-3.8-2.65-5.82-3.65a19.69 19.69 0 0 1-4.65-2.9l-.25-.21c-1-.9-1.74-2.2-1.82-3.54a6.33 6.33 0 0 1 1.45-4.74c1.07-1.13 2.73-2.32 4.38-2.53.27-.06.43-.05.79-.02v.23l-.66.22Zm-74.32.35h1.02l-.23.34c-.33-.04-.33-.04-.68-.11l-.11-.23Z"/></svg>