<svg xmlns="http://www.w3.org/2000/svg" viewBox="-1841.75 337.48 3515.42 244.87" width="3515.42" height="244.87"><path d="M1696 41h64l-4 2c-4.25 2.45-4.25 2.45-7.38 6.13-2.89 13.3 3.06 23.7 8.99 35.17l4.83 9.41c6.23 12.15 27.57 51.97 31.68 59.92a1277.5 1277.5 0 0 0 15.87 29.52c1.9 3.48 2.14 5.59 2.17 9.59l.03 3.66.02 3.98.04 4.1c.06 5.81.12 11.62.15 17.43-1.32 27.58-1.32 27.58 7.84 52.48 2.98 2.72 5.89 3.6 9.76 4.61v2h-57v-2l1.6-.66c6.5-2.92 9.29-6.5 12.09-13.03 4.17-12.2 2.87-26.78 3.07-39.56.05-3.52.13-7.03.28-10.55.76-19.39-1.7-33.73-12.37-50.53-2.68-4.3-5.04-8.76-7.42-13.23l-2.95-5.38c-3.63-6.63-7.16-13.3-10.7-19.97A2226.61 2226.61 0 0 0 1735 86l-1.43-2.57c-14-25.6-14-25.6-37.57-41.43v-1ZM319 41h9c2.94 6.75 5.6 13.54 8 20.5 1.65 4.75 57.61 153.16 59.05 157.07 9.86 33.42 9.86 33.42 31.17 58.52A80.5 80.5 0 0 0 432 279v2h-64v-2c.6-.24 1.2-.49 1.83-.73 5.99-2.52 9.52-4.79 13.17-10.27 2.48-20.84-18-65-19-71h-79l1-3c7.77-.15 61.07-1.08 76-1a17753.28 17753.28 0 0 0-44.19-120.6l-1.01-2.62-1.89-4.74c-2.26-5.86-2.01-10.18.28-16.13l1.37-2.85 1.38-2.9L319 41Zm1211 0h38l.06 18.67c.07 20.38.14 40.75.23 61.13.05 12.35.1 24.7.13 37.06a23207.74 23207.74 0 0 0 .18 49.4 5415.78 5415.78 0 0 0 .08 22.01c-.57 24.18-.57 24.18 8.7 45.73 2.8 2.14 5.2 3.13 8.62 4v2h-56v-2l1.6-.6c4.66-1.96 7.56-3.84 9.6-8.71 3.68-12.38 4.24-24.9 4.17-37.7l.01-5.2c.01-4.64 0-9.29-.01-13.93v-14.68l-.03-24.63c-.02-9.46-.03-18.91-.02-28.37a15687.68 15687.68 0 0 0-.02-39.04 3475.25 3475.25 0 0 0-.02-18.69C1546 66 1546 66 1538 47a36.36 36.36 0 0 0-8-5v-1Zm-855 0h53a93.74 93.74 0 0 1-6.5 4.56c-7.07 6.9-8.53 18.88-8.73 28.32a9537.34 9537.34 0 0 1-.04 17.22V216.14a4205.57 4205.57 0 0 0 0 19.4c-.25 21-.25 21 8.7 39.4 2.5 2 4.54 3.1 7.57 4.06v2h-54v-2l2.75-1.19c4.73-2.63 7.05-5.7 8.71-10.8.44-1.56.86-3.12 1.25-4.68l.65-2.54c2.1-8.75 2.33-17.19 2.24-26.14l.01-5.23c.01-4.66-.01-9.33-.04-14-.02-4.92-.02-9.84-.02-14.75 0-8.25-.18-89.6-.19-92.51a3506.31 3506.31 0 0 0-.05-18.78c.44-22.56.44-22.56-8.81-42.32A23.64 23.64 0 0 0 675 42v-1Zm464 0h22l.03 7.94a203214.95 203214.95 0 0 0 .6 145.35 20604.76 20604.76 0 0 1 .17 40.2 3284.54 3284.54 0 0 0 .05 10.7c.05 15.38.05 15.38 6.83 28.74 3 2.7 5.32 4.29 9.32 5.07v2h-57v-2l3.88-2 2.17-1.13c1.95-.87 1.95-.87 3.95-.87 4.53-10.8 7.3-21.43 7.28-33.18l.02-2.62.02-8.61.03-6.21.06-16.8.06-17.58c.05-11.08.09-22.17.12-33.25l.14-37.87L1139 41Zm-186.9-.15c-13.35 4.07-24.52 9.66-31.82 22.08-2.8 5.32-5.07 9.99-5.28 16.07l-.11 3.03c-.3 13.8 3.18 25.12 12.8 35.47 4.65 4.3 9.52 7.8 14.88 11.18l2.5 1.57c9.37 5.8 49.36 25.16 58.82 31.04.62.4 1.25.78 1.9 1.18 14.45 9.25 28.18 23.45 32.21 40.53 3.12 17.94 1.8 34.32-8.56 49.63-1.12 1.48-4.98 6.35-5.78 7.36-9.47 11.28-25.03 18.03-39.67 21l.01.01c-.52.1-1.03.2-1.54.28-1.5.28-3 .52-4.46.72a110 110 0 0 1-8 0v-2c1.41-.37 2.83-.72 4.25-1.06l2.4-.6c.8-.12 1.5-.18 2.16-.19l2.26-.46.03-.01c3.46-.89 6.8-1.95 10-3.28.95-.43 1.91-.9 2.9-1.4l.1.05A42.6 42.6 0 0 0 1010 260c8.6-14.01 10.5-27.68 9-44a41.86 41.86 0 0 0-5-12l-1.5-2.5c-11.85-18.62-30.85-27.8-50.02-37.27-52.35-25.96-52.35-25.96-63.48-51.23l-1.04-2.2c-4.15-10.16-2.86-22.61.72-32.71C904.88 63.55 914.3 53.73 928 46l2.05-1.18c7.62-4.08 16.2-7.62 24.95-6.82v2l-2.9.85ZM1656 58c.7.5 1.4 1 2.13 1.5 11.4 8.9 17.98 23.45 19.87 37.5.8 16.7-1.82 32.74-13.05 45.92C1653.6 155 1641.02 161.9 1625 166l-2.59.68c-1.8.46-3.6.9-5.41 1.32 1.4.6 2.79 1.17 4.19 1.75l2.77 1.17c3 1.17 3 1.17 6.18 1.57 5.59.99 9.38 2.47 12.8 7.08 2.66 4.04 5.03 8.26 7.4 12.5 3.04 5.36 6.34 10.56 9.6 15.8l4.1 6.69c17.2 28.73 17.2 28.73 35.96 56.44l2.13 2.94c2.06 2.27 4.23 3.52 6.87 5.06v2h-33l-3.13-6.5c-4.03-8.19-8.6-16.02-13.24-23.88a929.63 929.63 0 0 1-13.13-23.12c-4.85-8.8-9.8-17.52-14.88-26.19-8.2-13.98-8.2-13.98-11.93-20.56l-1.12-1.93c-1.7-3-2.72-5.43-3.57-8.82h-10.22c-2.05.07-4.11.09-6.22.06l-2.5-.01-6.06-.05v-2l3.83-.4a7597.6 7597.6 0 0 1 7.04-.75c15.32-2.17 28.87-6.92 40.13-18.85 13.46-16.75 13.48-37.4 12-58-2.11-14.33-9.55-26.48-20.8-35.43-8.05-5.54-17.39-8.42-26.95-9.98-2.06-.23-4.12-.44-6.19-.65l-2.65-.28L1590 43v-2c3.58-.15 7.17-.18 10.75-.08h.88c4.9-.03 9.53.25 14.37 1.08l-.28.19c14.4 2.1 28.21 6.9 40.28 15.81ZM39 41h37v239H40c1-2 1-2 3.38-3.38 5.12-3.17 6.26-7.04 7.74-12.75l1.01-3.75c2.32-10.16 2.02-20.58 2.02-30.93a501831.12 501831.12 0 0 0 .1-141.39c.47-21.55.47-21.55-7.63-40.74A61.1 61.1 0 0 0 39 42v-1Zm1282 18c-.8.7-1.6 1.4-2.41 2.13-16.77 15.7-26.63 37.96-30.71 60.3l-.52 2.67c-1.97 10.53-2.52 20.8-2.49 31.5v6.2c-.02 12.51.05 25.05 3.38 37.2l.68 2.56c.67 2.49 1.36 4.96 2.07 7.44l.6 2.1c7.18 24.76 21.68 47.19 44.6 59.97a85.15 85.15 0 0 0 16.4 6.15c3.81.87 7.6 1.8 11.4 2.78v2a80.92 80.92 0 0 1-11.56-.89L1351 281v-.12c-18.08-3-35.66-11.81-49-23.88l-2.43-2c-19.15-16.2-31.21-39.73-36.57-64l-.84-3.7c-2-9.6-2.45-19.06-2.47-28.86l-.02-3.6c.05-5.86.4-11.26 1.85-16.94.65-2.59.92-5.19 1.23-7.84 4.3-28.22 20.98-54.66 43.57-71.84 12.83-9.34 29.4-17.9 45.89-19.95 4.42-.9 6.56-.72 11.79-.27l-1 2c-2.73.76-5.42 1.41-8.19 2-2.26.5-4.5 1-6.72 1.57A72.2 72.2 0 0 0 1321 59Zm97-15 3.19 1.16c16.97 6.66 32.72 17.17 43.81 31.84l2.13 2.82c17.1 23.62 24.54 49.95 24.3 78.93v2.52c-.2 30.03-7.7 61.36-29.33 83.55-2.22 2.24-2.22 2.24-4.47 5.12a54.99 54.99 0 0 1-8.94 8.37l-1.83 1.43c-15.4 11.68-35.9 22.08-55.78 22.3-1 .04-2.03.03-3.08-.04v-2c.5-.13.97-.25 1.45-.34l1.8-.43 4.31-1.04 2.14-.5.16-.04c19.46-5.7 36.78-17.22 47.95-34.59 3.82-6.14 7.2-12.47 10.19-19.06l1.3-2.76c6.65-15.43 9.77-34.15 9.94-50.9l.03-2.48c.02-2.64.04-5.28.04-7.92l.01-2.73c0-13.8-.88-26.78-4.32-40.21a827 827 0 0 1-.91-4.08c-4.6-19.36-14-36.83-28.09-50.92l-2.14-2.15c-11.9-11.2-25.62-16.34-41.1-19.34L1388 40v-2c3.47.06 6.76.32 9.96.77 5.05.6 9.98 1.59 15.04 3.23l-.07.26c1.67.53 3.36 1.11 5.07 1.74ZM736 155c3.04.7 5.85 1.68 8.75 2.81a69.35 69.35 0 0 0 12.23 3.34c9.64 1.91 14.1 5.87 20.02 13.85 1.47 1.8 68.11 82.14 69.31 83.63 10.56 13.45 10.56 13.45 25.69 20.37v2c-5.23.32-10.45.56-15.69.71-1.77.07-3.55.16-5.32.27-14.27.89-14.27.89-18.7-2.16-3.51-3.46-5.83-7.59-8.29-11.82a44804 44804 0 0 0-77.53-96.25l-1.81-2.18c-1.16-1.39-2.33-2.78-3.51-4.15-2.81-3.39-4.85-5.85-5.15-10.42Zm63-114h62a62.57 62.57 0 0 1-8.4 4.56A83.9 83.9 0 0 0 831 60c-.55.5-19.03 18.14-27.26 27-3.96 4.26-16.12 16.57-18 18.76-1.92 2.21-15.4 15.9-16.76 17.23l.02.01-7 8-3-1 7-8c.07.02 36.51-40.76 37.3-41.66 5.9-7.01 11.7-14.15 12.01-23.72l.12-2.27c-.62-3.38-2.02-4.93-4.43-7.35-3-1.65-3-1.65-6.25-2.81l-3.27-1.27L799 42v-1Zm1042 0h55c-3 2-3 2-5.16 3.09-18.96 9.93-27.64 36.47-36.04 54.84a1243.88 1243.88 0 0 1-7.18 15.39c-.33.7-.65 1.39-1 2.1l-2.1 4.42a4149.2 4149.2 0 0 0-5.44 11.5l-.23.48c-2.25 4.78-4.47 9.57-6.65 14.38l-1.2 2.8h-.06l-.85 1.9-.98 2.26A83.36 83.36 0 0 1 1823 166c-.4-1.08-.61-2-.69-2.86-.16-1.54.14-2.87.93-4.71l.28-.67 1.08-2.51 1.21-2.7 1.23-2.83c1.31-3 2.64-5.98 3.96-8.97l2.58-5.9c1.68-3.83 3.36-7.65 5.06-11.48 1.5-3.42 3-6.84 4.44-10.29l.96-2.26 1.72-4.11c.52-1.22.94-2.17 1.42-2.98l1.25-2.91 2.76-6.38c8.67-18.99 8.67-18.99 9.81-39.44-2.24-5-5.21-7.43-10-10-3.3-1.15-6.62-2.12-10-3v-1ZM895 209h2l.3 2.75c2.38 20.05 7.5 40.04 22.7 54.25l1.77 1.76c7.1 6.63 15.98 9.82 25.23 12.24v2c-16.33-.07-34.3-5.31-48.19-13.93-1.83-1.15-1.83-1.15-4.08-1.97-2.84-1.41-4.08-2.35-5.73-5.1-.89-6.48 4.38-43.05 6-52Zm288-168h63l1 20.19.32 6.22c.27 5.54.46 11.06.57 16.59h.11v7.25c.04 4.58.04 9.16 0 13.75-.24-.47-.47-.92-.68-1.38-1.46-3-2.64-5.8-2.93-8.8-4.38-17.37-9.94-34.47-25.93-44.5-8.92-4.77-17.87-6.33-27.84-6.88A1289.2 1289.2 0 0 0 1183 43v-2Zm-129 0h62c0 .33-2.3 1.2-3.48 1.3-15.03 1.4-30.1 3.79-41.14 15.08-10.54 13.09-14.43 29.67-18.38 45.62-.33 0-.31-41.25 1-62Zm-35 9 1.87.92c3.7 1.9 6.47 3.87 9.13 7.08 2.1 11.14-1.06 24.24-2.5 35.38-.24 1.9-1.9 15-2.5 19.62h-2l-.04-2.58c-.84-21.14-6.74-44.79-22.5-59.84C993.6 45.2 986.26 42.5 978 40v-2c1.28-.1 2.57-.15 3.85-.13l2.1-.06c.87.08 1.37.13 1.88.3 11.62 1.22 23 6.73 33.17 11.89Zm-417-9 2.07.42C613.69 43.4 623.03 45.96 631 52a22.89 22.89 0 0 1 2.41 10l.12 2.96.1 3.17.11 3.27c.11 3.54.19 7.07.24 10.6h.02v1.58c.1 8.47.07 16.95 0 25.42h-1c-.53-1.9-1.05-3.79-1.56-5.69l-.88-3.2c-.18-.97-.28-1.83-.32-2.65-4.55-18.08-10.96-37.2-26.67-48.15A83.95 83.95 0 0 0 597 46l-2.78-1.53c-3.62-1.65-7.14-2.4-11.03-3.03-1.35-.22-2.66-.47-3.98-.73l-.49-.08-2.08-.48L576 40l-1-2c2.84-.16 5.63-.13 8.38.05 3.53.13 7.04.41 10.62.95v.4c2.65.47 5.3 1.02 8 1.6ZM300.07 94.95l-.01.03-.02.06c-3.09 7.51-5.58 15.25-8.41 22.86a51.14 51.14 0 0 1-2 5.38l-3.18 8.4-1.2 3.77a155.7 155.7 0 0 1-3.52 8.95l-1.04 2.51-3.56 9.42-.13.67-.13.03c-2.6 6.9-5.16 13.8-7.68 20.72-3.06 8.42-17.43 48.28-18.69 51.19-5 11.85-9.75 23.96-7.5 37.06 3.44 6.2 7.73 9.72 14.52 11.75 2.16.49 4.3.91 6.48 1.25v2h-57v-2l2.45-.92c8.2-3.17 8.2-3.17 14.55-9.08l1.34-1.53c10.04-12.15 15.12-28.3 20.64-42.8 1.27-3.31 2.58-6.6 3.9-9.88 2.42-6.05 4.8-12.1 7.18-18.16l.16-.4c1.98-6.06 5.82-15 8.16-20.76l3.29-8.35c11.3-29.1 24.4-64.16 33.33-84.12.67-1.48.73-.46.47 1.56.13.55.2 1.08.23 1.58.11 1.93-.5 3.58-1.47 5.93l-1.16 2.88ZM130 154l-5 1 8 1-.12.06c22.12 3.32 43.09 9.66 58.27 27.42 9.93 13.51 11.3 28.28 9.85 44.52-1.54 8.93-5.39 16.91-11 24l-1.87 2.5c-11.45 13.46-29.42 19.9-47.25 23.23a29.7 29.7 0 0 1-6.16 1.12l-2.18.23c-4.7.65-9.3 1.13-13.7 1.51-5.18.37-10.35.48-15.53.45-1.44 0-2.87-.01-4.31-.04v-2c4.16-.54 8.24-.9 12.31-.99 1.07-.1 2.14-.21 3.2-.33 4.55-.55 8.27-1.34 17.03-3.2.99-.19 1.8-.28 2.58-.28 11.63-3.12 22.38-8.46 30.88-18.2 8.5-11.39 11.21-23.56 11.3-37.46.01-2 .06-4.01.1-6.02.1-14.08-3.97-27.22-13.55-37.83-8.68-7.91-19.67-12.67-31.1-14.81l-2.56-.5c-3.33-.62-6.66-1.13-10.01-1.55l-9.3-.9-2.9-.27L100 156v-2l2.82-.11c7.82-.4 14.97-1.3 22.57-3.37l1.15-.22c9.98-2.86 19.26-7.66 26.43-15.43 11.89-14.46 12.3-31.9 11.03-49.87-1.94-11.4-8.56-21.9-17.44-29.22C132.62 46.08 115.59 43.48 99 43v-2c27.5-.41 54.9 3.64 75.88 23.13 9.32 9.73 13.3 20.7 13.43 34l.09 3.05c.1 12.54-6.1 22.76-14.4 31.88-12.27 11.93-27.86 16.84-43.93 20.74l-.07.2Zm413.38 124.06 2.51.57L552 280v2c-23.7.9-49.9-10.93-67.33-26.57-2.61-2.43-5.14-4.92-7.67-7.43l-2.34-2.19c-5.02-4.77-8.93-9.99-12.66-15.81l-1.75-2.7c-13-21.2-17.43-43.9-17.44-68.49l-.04-3.71c-.01-11.97 1.32-23.52 4.86-34.97.25-.85.5-1.7.77-2.56 2.66-8.33 6.3-15.97 10.6-23.57l1.68-3.01c4.5-7.56 10.25-13.7 16.32-19.99l2.03-2.22C496.54 50.12 526.34 36.65 552 38l-1 2c-2.62.62-5.17 1.13-7.81 1.56-2.96.51-4.5.77-5.97 1.06-19.41 5.09-36.39 17.7-48.06 34-22.8 34.55-26.9 79.4-19.16 119.38 6.4 28.3 19.98 54.58 44.63 70.91a90.23 90.23 0 0 0 23.04 9.9c1.9.4 3.8.82 5.7 1.25Zm92.5-53.62.52-2.14c1.11-4.46 2.31-8.89 3.6-13.3h1c.1 2.7.03 5.34-.14 7.97-.28 5.26-.9 10.47-1.6 15.78a262.14 262.14 0 0 0-1.74 17.27l-.27 3.42c-.16 2.16-.29 4.33-.37 6.5-.26 3.04-.57 5.3-1.88 8.06-3.4 2.53-6.97 3.76-11 5l-2.17.79c-9.17 3.3-18.5 5.71-28.02 7.04l.19.17c-6.34.74-12.51 1.1-18.9 1h-.1v-2l4.69-1 2.63-.56c1.58-.26 2.78-.46 3.75-.58 14.44-3.45 26.99-9.51 36.08-22.51 5.18-7.92 8.7-16.45 11.85-25.35l.98-2.42.39-1.73c.14-.41.27-.77.42-1.08l.09-.33Z" transform="translate(-1880.75 299.85)"/><path d="M655.7-426.24h9c2.19 4.2 3.99 8.42 5.63 12.87l1.56 4.25c.3.77.58 1.54.87 2.34 1.8 4.85 3.62 9.7 5.44 14.54a9763.85 9763.85 0 0 1 5.88 15.69 11467.25 11467.25 0 0 1 12.1 32.33c3.02 8.1 6 16.2 8.65 24.44.92 2.7 2 5.3 3.12 7.91 2.71 6.37 5.04 12.86 7.38 19.37 2.89 8 5.9 15.94 8.93 23.88a774.24 774.24 0 0 1 9.32 25.5c2 5.85 4.13 11.53 6.81 17.1 1.04 2.2 2.01 4.4 2.96 6.64 7.5 18.64 7.5 18.64 22.85 30.58l2.5.56v2h-64v-2l2.01-.63c7.21-2.5 7.21-2.5 12.2-7.98 7.43-22.37-11.65-54.5-18.21-72.4l-79-1 1-3a36372.13 36372.13 0 0 1 31.21-.56c14.93-.28 29.86-.52 44.79-.43l-.6-1.62c-3.77-10.14-7.46-20.3-11-30.53a416.9 416.9 0 0 0-8.15-21.6 424.69 424.69 0 0 1-7.58-20.59 827.42 827.42 0 0 0-5.92-16.54l-.83-2.25c-1.66-4.5-3.34-8.99-5.02-13.48a3446.51 3446.51 0 0 1-4.52-12.13c-.72-1.9-1.42-3.79-2.12-5.68L651.7-402c-2.13-6.85-2.19-11.25.93-17.69l.88-1.93c.71-1.55 1.44-3.1 2.18-4.63ZM93.7-426.24h38v240h-38v-2l1.6-.63c4.68-2.04 7.43-3.82 9.66-8.46 4.6-11.92 3.9-24.94 3.92-37.5a311432.9 311432.9 0 0 0 .31-148.56c.1-13.11-.3-26.95-8.49-37.85-1.83-1.49-1.83-1.49-3.75-2.38l-3.25-1.62v-1ZM-357.3-426.24h37l.04 18.44c.06 20.14.53 165.7.52 167.63-.28 25.38-.28 25.38 9.81 47.87 2.82 2.2 5.18 3.18 8.63 4.06v2h-56v-2l2.75-1.19c4.62-2.57 6.69-5.25 8.48-10.23l.96-3.77.98-3.73c2.24-10.16 1.98-20.54 1.98-30.9a476844.54 476844.54 0 0 0 .1-141.38c.47-21.55.47-21.55-7.63-40.74a61.1 61.1 0 0 0-7.62-5.06v-1ZM1036.7-426.24h21v7.88a204572.12 204572.12 0 0 0 .33 184.53c-.24 22.86-.24 22.86 9.67 42.59 2.08 1.2 2.08 1.2 4.25 1.81l3.75 1.19v2h-57v-2c1.22-.5 2.43-1 3.69-1.5 6.38-3.17 9-9 11.31-15.5a115.5 115.5 0 0 0 1.36-9.77c.96-9.28.95-18.56.96-27.89 0-2.01.6-158.25.68-183.34ZM445.7-429.24v2l-3.04.48c-23.25 3.88-43.73 14.74-57.9 33.9-8.9 12.49-15.19 26.8-19.06 41.62l-.57 2.15c-3.23 12.81-3.8 25.45-3.8 38.6l-.01 2.33c0 15.27.96 30.56 4.94 45.36l.78 2.9c6.98 24.74 21.85 48.06 44.53 61.01 6.94 3.66 13.45 6.8 21.2 8.25 2.44.5 4.63 1.46 6.93 2.4 2 .38 4 .72 6 1v2c-30.06.36-56.6-16.2-77.46-36.38-16.17-16.68-25.48-38.04-29.54-60.62l-.54-2.76a117.62 117.62 0 0 1-1.77-22.3l.01-3.57c.3-22.34 5.63-41.83 16.3-61.37l1.53-2.84c13.69-24.06 37.95-42.42 64.47-50.16 3.03-.8 6.07-1.54 9.13-2.25l2.24-.53c5.3-1.17 10.2-1.37 15.63-1.22ZM-49.3-429.24c23.95-.9 50.63 11.92 67.95 27.98 15.38 15.17 25.7 33.52 32.05 54.02l.69 2.17c6.82 22.72 6.6 54.27-.69 76.83l-.83 2.6c-5.4 16.34-12.94 30.3-24.17 43.4l-1.56 2c-15.85 19.65-41.98 31.35-66.44 35-2 .06-4 .08-6 0v-2l2.94-.6c21.89-4.75 41.66-16.53 54.27-35.44 7.64-12.66 13.7-25.32 17.41-39.65l.63-2.4c3.36-13.6 4.13-27.09 4.06-41.04v-2.45c-.05-12.68-.61-25-3.31-37.42l-.5-2.4c-5.65-26.15-18.72-51.45-41.5-66.6-9.64-5.59-20.1-10.26-31.25-11.63l-2.75-.37-1-2ZM638.7-384.24c1.53 3.91.4 6.33-1.1 10.13l-1.42 3.67-.76 1.92c-1.05 2.64-2.07 5.28-3.1 7.93l-1.53 3.93c-1.89 4.86-3.7 9.74-5.4 14.67l-.69 1.97-1.32 3.82c-1.98 5.72-4.01 11.43-6.03 17.13-.55 1.55-1.1 3.1-1.63 4.64a281.31 281.31 0 0 1-4.56 11.99 1253.55 1253.55 0 0 0-16.78 44.13c-1.3 3.58-2.62 7.15-3.93 10.72a4201.67 4201.67 0 0 0-4.52 12.34c-7.07 18.49-7.07 18.49-4.73 37.5 5.74 5.75 11.52 8.27 19.5 9.5v2h-57v-2l2.45-.94 3.24-1.3 3.2-1.27c13.17-6.28 18.97-22.66 24.11-35.48l.87-2.16c3.14-7.83 6.23-15.68 9.32-23.53l.86-2.19c4.03-10.24 8.06-20.49 12.06-30.74 1.58-4.04 3.17-8.08 4.78-12.1 2.36-5.89 4.68-11.79 7-17.69a27503.94 27503.94 0 0 1 18.43-46.72l3.22-8.14.97-2.45c1.5-3.76 2.98-7.53 4.49-11.28ZM1080.7-426.24h62c.8 3.2 1.17 5.63 1.3 8.87l.12 2.92.12 3.15a11388.23 11388.23 0 0 1 .8 20.51l.26 6.68.12 3.1c.25 6.6.33 13.17.28 19.77h-2l-.26-2.06c-2.42-16.66-8.24-38.63-21.74-49.94-12.92-9.02-25.73-10.33-41-11v-2ZM951.7-426.24h62v2l-3.45.08c-15.5.5-28.16 2.84-40.24 13.23-9.52 11.07-14 24.4-17.52 38.17a31.22 31.22 0 0 1-1.04 4.77l-.95 3.83-.8 2.92h-1c-.04-3.66-.04-7.3 0-10.95v-7.05l.11.11c.14-5.9.37-11.79.69-17.7l.4-7.72.26-5.01.12-2.29.12-2.19.1-1.88c.3-3.45.77-6.88 1.2-10.32ZM469.7-429.24c19.16-.78 37.96 4.89 55.15 13.01 3.02 3.25 2.57 6.94 2.68 11.23l.12 2.79c.12 2.94.2 5.9.3 8.84l.23 5.85c.39 9.76.65 19.5.52 29.28h-2l-.41-2.58c-3.68-20.74-10.65-42.75-27.59-56.42-8.9-6.16-18.46-8.3-29-10v-2ZM533.7-258.24h2a365.53 365.53 0 0 1-3.5 32.2c-1.18 7.98-1.18 7.98-1.79 16.02-.41 9.53-.41 9.53-3.94 12.92a43.86 43.86 0 0 1-9.77 3.86l-1.94.56c-3.38.95-6.77 1.8-10.2 2.56-3.27.75-6.45 1.63-9.67 2.57-8.21 2.1-16.76 2.05-25.19 2.3v-2l3.38-.59c17.29-3.28 32.38-9.52 43.25-23.96 9.34-14.15 13.82-30.02 17.37-46.44Z" transform="translate(527.97 767.53)"/><path d="M638.7-384.24c1.53 3.91.4 6.33-1.1 10.13l-1.42 3.67-.76 1.92c-1.05 2.64-2.07 5.28-3.1 7.93l-1.53 3.93c-1.89 4.86-3.7 9.74-5.4 14.67l-.69 1.97-1.32 3.82c-1.98 5.7-4 11.4-6.02 17.08l-1.78 5.07c-.94 2.62-1.9 5.22-2.88 7.8l-1 2.64-1 2.5-.88 2.19c-1.46 2.2-2.61 2.17-5.12 2.68a193.39 193.39 0 0 1 7.44-21.25l2.68-6.63c.47-1.16.93-2.32 1.42-3.5 2.52-6.25 5.02-12.5 7.52-18.75l.76-1.9c4.8-11.96 9.5-23.96 14.18-35.97ZM153.7-426.24c21.04-.87 41.9 1.72 61.89 8.31 1.79.58 3.6 1.1 5.4 1.62 14.55 4.23 28.09 12.5 39.71 22.07l1.81 1.39c19.31 15.09 31.28 41.75 34.68 65.52 3.74 32.5-1.61 67.16-22.25 93.35l-2.24 2.74-1.9 2.4c-8.97 10.78-20.8 18.15-33.1 24.6l-3.03 1.62c-18.7 9.3-41.12 14.4-62.33 15.3-2.7.12-5.42.16-8.2.14l-3.06-.01-7.38-.05v-1c3.37-.74 6.6-1.17 10.04-1.36 10.52-.67 28.83-7.55 40.66-7.37a110.86 110.86 0 0 0 34.3-18.27l1.88-1.38c18.78-14.59 28-41.27 31.35-63.94 4.23-35.8 1.6-75.67-20.9-105.27-19.27-24.25-48.46-33.94-78.33-37.41-6.33-.57-12.65-.85-19-1v-2Z" transform="translate(527.97 767.53)"/><path d="M153.7-426.24c10.04-.42 19.83.23 29.81 1.31l3.43.36a113.3 113.3 0 0 1 20.76 4.33l-2 1v2l-1.8-.37c-16.74-3.37-33.1-6.23-50.2-6.63v-2ZM622.7-273.24c4.79-.07 9.57-.13 14.36-.17l4.89-.06 7.02-.06 2.2-.05c2.07 0 2.07 0 5.53.34l3 3h-38l1-3ZM-25.3-194.24l2 1-1 1 3 2c-9.02 2.65-17.54 4.65-27 5v-2l3.25-.77 4.31-1.04 2.14-.5a56.1 56.1 0 0 0 10.2-3.39l3.1-1.3ZM613.7-317.24c2.05 6-1.18 11.97-3.44 17.56-1.56 2.44-1.56 2.44-3.66 3.1l-1.9.34c1.9-6.78 3.85-13.69 7-20l2-1ZM-72.3-429.24l-1 2c-2.73.76-5.42 1.41-8.19 2a118.4 118.4 0 0 0-14.81 4l-2-4c17.15-4.77 17.15-4.77 26-4ZM-49.3-429.24c8.98-.34 17.45 1.34 26 4l-1 4-3.56-1.31c-5.67-1.93-11.5-2.91-17.38-3.94l-3.06-.75-1-2ZM-94.3-192.24c7.4 1.4 14.7 3.12 22 5v2a90.05 90.05 0 0 1-23-4l1-3ZM184.7-189.24v1c-6.9.9-13.61 1.12-20.56 1.06l-3.06-.01-7.38-.05v-1c10.17-2.28 20.7-2.4 31-1ZM445.7-429.24v2c-1.1.2-2.2.4-3.32.62l-4.37.82-2.18.4c-3.72.7-7.43 1.4-11.13 2.16l-1-3c7.48-1.94 14.26-3.4 22-3ZM533.7-258.24h2l-.44 6.69-.24 3.76a62.98 62.98 0 0 1-1.32 8.55l-4-1 4-18ZM-283.26-426.34c3.78.1 7.24.48 10.96 1.1v.45c2.3.42 4.62.94 7 1.55l2.76.62c12.4 2.98 24.28 8.42 34.24 16.38l2.07 1.54c8.66 6.88 15.15 17.13 18.93 27.46l1.13 3c6.08 20.85 4.25 44-5.72 63.36-9.49 17.05-25.73 28.19-44.22 33.51-10.91 2.91-27.79 5.64-38.19.13v-1l1.81-.1c19.16-1.2 34.1-4.2 47.94-18.59 4.55-5.29 7.53-10.92 10.25-17.31.4-.9.78-1.82 1.18-2.75 4.51-11.36 5.17-23.15 5.13-35.25l.05-3.54c.01-17.97-5.48-35.75-17.36-49.46-10.8-9.11-22.77-14.47-35.91-17.18-2.29.08-4.43-.35-6.84-.76l-3.55-.59-2.7-.47v-2c2.42-.1 4.76-.12 7.07-.06l3.97-.04ZM427.7-191.24c4.36.51 7.96 1.34 12 3 2 .38 4 .72 6 1v2c-2.25-.12-4.5-.24-6.75-.38l-3.8-.2c-3.06-.37-4.87-.82-7.45-2.42h3v-2l-3-1ZM484.7-189.24l4 3-19 1v-2c10.25-2.55 10.25-2.55 15-2Z" transform="translate(527.97 767.53)"/><path d="M192.7-422.24c5.44-.22 9.87-.1 15 2l-2 1v2c-1.6-.26-3.21-.53-4.81-.81l-2.71-.46c-2.66-.79-3.74-1.62-5.48-3.73ZM469.7-429.24c6.43-.12 12.62.18 19 1v1l-2.38.44c-2.58.44-2.58.44-4.62 1.56-2.05-.25-4.1-.57-6.13-.94l-3.31-.59-2.56-.47v-2ZM626.7-354.24h2a65.77 65.77 0 0 1-5 16h-1c-.63-6 1.63-10.63 4-16ZM593.7-267.24l2 1-1 7-5 1c1.75-6.75 1.75-6.75 4-9Z" transform="translate(527.97 767.53)"/><path d="m205.7-419.24 3.88.31 2.17.18c1.95.5 1.95.5 3.95 3.5-3.81 1.48-6.29.44-10-1v-3ZM196.7-423.24c-1.02 1.55-1.02 1.55-3 3-2.7-.11-5.06-.36-7.69-.81l-2.12-.33c-1.73-.27-3.46-.57-5.19-.86v-1c6.04-1.51 11.9-.64 18 0ZM830.7-186.24v-.18a94.73 94.73 0 0 1-4-.88l-2.78-.67c-13.61-3.46-25.55-9.5-37.22-17.27-.42-6.57.31-12.98 1.1-19.5l.33-2.93 1.07-9.13.72-6.24 1.78-15.2h2c1.2 5.03 2.12 9.93 2.75 15.06 2.58 17.22 10.98 35.3 24.96 46.01a57.51 57.51 0 0 0 17.29 7.93l6 2v2a56.1 56.1 0 0 1-4.42 0c-3.2-.08-6.3-.35-9.58-1Z" transform="translate(527.97 767.53)"/><path d="M791.7-258.24h2a8182.04 8182.04 0 0 0 1.66 6.64c.36 2.46.1 4.02-.66 6.36l-2-5h-1v-8ZM881.7-187.24v1c-4.76.95-9.17 1.08-14 1v-2c4.8-1.4 9.15-.69 14 0ZM613.7-317.24c.99 2.66 1.03 3.9.25 6.69-1.25 2.3-1.25 2.3-4.25 3.3.28-1.47.57-2.95.88-4.43l.49-2.5.63-2.06 2-1ZM445.7-429.24v2c-10.56 1.33-10.56 1.33-15 0v-1c5.05-1.04 9.87-1.1 15-1ZM-80.86-425.62a75.7 75.7 0 0 0-34.44 17.38l-2.94 2.35c-22.02 18.38-30.42 51.43-33.06 78.65a221.3 221.3 0 0 0-.13 7.98v13.82c-.01 12.6.45 24.83 3.38 37.14l.68 2.88c4.5 18.6 11.89 35.35 24.07 50.18l2.4 3.03c12.18 13.92 30.56 22.23 48.6 24.97v2a89.83 89.83 0 0 1-23-4l-2.76-.77a95.46 95.46 0 0 1-36.24-20.23l-2.47-2.08c-22.17-19.05-36.07-48.41-39.24-77.4-2.7-37.1 3.73-73.6 28.34-102.68 17.62-20.16 47.31-39.27 75.37-36.84l-1 2-1.67.4c-1.96.44-3.91.84-5.9 1.22ZM422.7-192.24c2.76.52 5.33 1.1 8 2v2l-9-1 1-3ZM-36.3-187.24v1l-12 1v-2c4.26-1.16 7.68-.76 12 0Z" transform="translate(527.97 767.53)"/><path d="m427.7-191.24 7 1 1 4-8-1 3-1v-2l-3-1ZM621.7-341.24l2 3c-.88 3.19-.88 3.19-2 6h-3l3-9ZM891.64-427.24l2.2.66c12.23 3.88 24.66 9.14 33.86 18.34a83.07 83.07 0 0 1-.3 5.23l-.31 3.57c-.78 8.5-1.61 17.01-2.45 25.51l-.57 5.75-1.37 13.94h-2l-.2-1.86c-2.4-22.08-6.3-45.57-23.8-61.14-5.6-4.2-11.7-6.84-18.2-9.07-.97-.01-1.38-.22-2.8-.93v-2l.3-.01 3.45-.12 2.1-.07c1.04.1 1.92.29 2.75.57 2.41.32 4.81.85 7.34 1.63ZM845.95-425.3l-2.55.85c-11.53 4.49-21.27 11.16-27.52 22.69-4.58 9.76-6.25 20.76-3 31.27.58 1.43 1.19 2.85 1.82 4.25l1.03 2.45c10.9 24.02 40.55 35.14 62.9 45.68 12.27 5.81 23.44 12.33 34.07 20.87l2.43 1.89c11.86 9.76 19.9 23.79 21.57 39.1.96 17.68-2.06 33.02-13.91 46.83-9.22 10.21-19.34 15.58-32.09 20.18l-2.75 1c-6.83 2.4-13.03 3.12-20.25 3v-2l3.3-.66c14.18-3 28.2-7.5 36.87-20.04 4.8-7.6 8.26-15.23 8.83-24.3l.24-3.56c.51-14.7-3.87-27.46-13.24-38.88-13.8-14.6-33.34-23.3-51.06-32.06-14.64-7.25-28.75-14.47-40.94-25.5l-2.16-1.85c-8.72-7.93-15.3-19.28-15.95-31.12-.71-16.1 2.1-28.95 12.74-41.66 9.33-9.9 23.93-20.33 38.43-22.18 2.41-.55 3.8-.44 6.94-.2v2l-5.75 1.95ZM192.7-422.24h9l-2 3c-2.94-.38-2.94-.38-6-1l-1-2Z" transform="translate(527.97 767.53)"/></svg>