<svg xmlns="http://www.w3.org/2000/svg" width="2000" height="140.7" viewBox="-1842 338 2000 141"><path d="M-216 338v1c8 1 15 3 21 6 2 2 2 4 2 7v26h-1v-1c-2-12-6-24-16-32-4-3-8-4-13-5l-2-1h-1v-1h10Zm79 43 2-5 2-5v-1l3-6v2l-1 3-1 2v1l-2 5-1 2-3 9v1l-1 2-3 10-1 2-1 1v2l-2 6h-1l-8 23-3 6-2 7c-4 11-4 11-3 22 3 3 7 4 11 5v1h-32v-1h1l2-1 2-1c7-4 11-13 14-20v-1l5-14 1-1 11-27c0-3 1-6 3-8l1-4 1-2 4-10 2-5Zm-369 93-8 2h-1l-3 1h-3v-1l2-1h2l2-1h2c10-4 18-10 25-19 4-7 7-14 9-22l1-2c2-8 2-15 2-23v-2c0-7 0-14-2-21v-1c-3-15-11-29-24-38l-12-5-5-2h-2l-1-1c14-1 29 7 39 16 9 8 15 19 18 31l1 1c4 13 3 31-1 44v1c-3 9-8 17-14 25l-1 1c-7 8-16 14-26 17Zm-34-134-4 1c-6 2-11 5-15 9l-2 1c-12 11-17 29-19 45v12l2 21 1 2c2 11 7 20 13 29l2 1c5 6 11 10 18 12l9 3v1c-4 0-9-1-13-3h-1c-8-2-15-6-21-11l-1-2a69 69 0 0 1-23-44c-1-21 2-42 16-58 9-10 23-20 37-21h6v1l-5 1Zm298-1-2 1h-2l-2 1c-10 2-20 9-27 18-5 7-8 15-10 23l-1 2c-2 7-2 14-2 22v1l3 26v1c4 14 13 28 26 35l12 5h1l3 1 3 1v1l-6-1h-1a65 65 0 0 1-53-55l-1-1-1-13v-2c0-12 3-24 9-35l1-1c9-16 24-27 42-30h2v-1h8v1h-2Zm53 100v2l-1 3-1 10-1 9c0 5 0 5-2 7l-6 2-1 1-5 1-6 1-4 1-10 1v-2l6-1c8-2 15-5 20-12 4-6 7-13 9-20l1-7h1v4Zm-466-99h7l4 1 1 1c7 1 14 4 20 9l1 1c5 4 8 9 11 16v1c4 12 3 25-3 36-6 10-15 17-25 19-6 2-16 4-22 0h1c11-1 19-3 27-11 3-3 5-6 6-10l1-1c2-7 3-13 3-20v-2c0-11-3-21-10-28a45 45 0 0 0-24-11h-4v-1h6Zm614 99v1l1 4c1 10 6 19 14 26 3 2 6 4 10 4l3 2v1h-2l-6-1h-2l-2-1c-7-2-15-5-21-10l1-11v-7l1-3 1-9h1l1 4Zm49 37-8 1v-1l2-1c8-1 16-4 21-11 3-4 5-9 5-14v-2c1-8-2-16-7-22-8-8-19-13-29-18-9-4-17-9-24-15l-1-1c-5-4-9-11-9-18-1-8 2-17 7-23 6-6 14-12 22-13h4v1l-3 1-2 1c-6 2-12 7-15 13-3 5-4 11-2 17l1 3 1 1c6 14 23 20 35 26 7 3 14 7 20 12l1 1c7 6 11 14 12 22 1 10-1 19-8 27-5 5-11 9-18 11l-1 1-4 1Zm-871-137-2 2-4 3c-2 8 2 14 5 20l3 5 18 34a896 896 0 0 0 10 23v16c-1 16-1 16 5 30 1 2 3 2 5 3v1h-32v-1l1-1c3-1 5-3 7-7 2-7 1-15 1-22v-6c1-11-1-21-7-29l-4-8-2-3-6-11-12-23-1-1c-8-15-8-15-21-24v-1h36Zm-814 0 4 12 34 89c5 19 5 19 18 34l3 1v1h-37v-1l1-1c4-1 6-3 8-5 1-12-10-37-11-41h-45l1-2h43l-25-69-1-1-1-3v-9l1-2 1-1 1-2h5Zm683 0h22v108c0 13 0 13 5 26l5 2v1h-32v-1h1l6-5c2-7 2-15 2-22v-82c1-12 1-12-4-23l-4-3v-1h-1Zm-456 0-3 3c-4 4-5 11-5 16v92c-1 12-1 12 5 22l4 3v1h-31v-1l2-1c2-1 4-3 5-6v-3l1-1 1-15v-83c0-12 0-12-5-24l-4-2v-1h30Zm247 0v117c0 8 0 8 4 16l5 3v1h-32v-1l2-1 1-1h3c2-7 4-13 4-19V339h13Zm-137 13-3 9v2c-1 7 2 15 7 20l8 6 2 1c5 3 28 14 33 18l1 1c8 5 16 13 19 23 1 10 1 19-5 28l-4 4c-5 6-14 10-22 12h-1l-3 1h-4v-2h2l2-1h2l8-3c3-1 6-4 9-7 4-8 6-16 5-25l-3-7-1-1c-7-11-17-16-28-21-30-15-30-15-36-30l-1-1c-2-6-2-13 0-18 4-8 9-15 17-19h1c4-3 9-4 14-4v1h-1c-8 3-14 6-18 13Zm418-3 1 1c7 5 11 13 12 21 0 10-1 19-8 26-6 7-14 12-22 14h-2l-3 1 2 1h2l3 1 8 4 4 7 5 9 3 4 20 32 1 2 4 3v1h-18l-2-4-8-13a520 520 0 0 1-16-28l-6-12-1-1-2-5h-14v-1l2-1h4c8-1 16-5 23-11 7-9 7-21 6-33-1-8-5-15-11-20-6-4-13-6-19-6h-5v-2h6l8 1c8 1 16 4 23 9Zm-899-10v136h-20l2-2c3-1 3-4 4-7l1-2 1-18v-80c0-12 0-12-4-23l-5-3v-1h21Zm707 12c-9 9-15 21-17 34l-1 2-1 18v3c0 7 0 14 2 21v2l2 4v1c4 14 12 27 25 34l10 4 6 1v2l-7-1c-11-2-20-7-28-14l-2-1a66 66 0 0 1-20-36l-1-2-1-17v-2l1-9v-5c3-16 12-31 25-41 8-6 17-10 26-11h7l-1 1-4 1-4 1c-6 2-11 5-15 9l-2 1Zm59-9c9 3 18 10 25 18l1 1c9 14 14 29 14 45v2c-1 17-5 35-17 47l-3 3-5 5-1 1c-9 6-20 12-32 13h-1v-2h2l2-1h1c11-3 21-10 28-20l5-10 1-2c4-9 6-19 6-29v-7c0-8-1-16-3-23v-3c-3-11-8-21-16-29l-1-1c-7-6-15-10-24-11h-1v-1h5l9 2 3 1 2 1Zm-385 64 7 2c5 1 8 3 11 8l40 47c6 8 6 8 14 12v1h-12c-8 1-8 1-10-1l-5-6-44-55-1-1-2-3c-2-2-3-3-3-6l5 2Zm31-67h35l-5 3-12 8-16 16-10 10-9 10-4 5-2-1 4-4 21-24c3-4 7-8 7-14v-1c0-2-1-3-3-4l-3-2-2-1h-1v-1Zm624 0-3 2c-11 6-16 21-21 31l-4 9v1l-2 3-3 6v1l-4 8v1l-1 1v2l-4 7v-5l1-2 1-1v-2l3-5 1-3 3-7 3-6v-1l1-2 1-2 1-2 1-3c5-11 5-11 6-23-1-2-3-4-6-5l-6-2v-1h32Zm-569 96 1 2c1 11 4 22 12 30l1 1c4 4 10 6 15 7v2c-9-1-20-3-28-8l-2-2-3-2c-1-4 2-25 3-30h1Zm199-96v12l1 3v22-1l-2-5c-2-10-6-20-15-25-5-3-10-4-16-4h-4v-2h36Zm-74 0-2 1c-9 1-17 2-23 9s-9 17-11 26l1-36h35Zm-55 6h1l5 4c1 6-1 14-1 20l-2 11h-1v-1c0-12-4-26-13-34-4-3-8-5-13-6v-1h4c7 1 14 3 20 7Zm-236-5c5 0 10 3 15 6l1 5v2l1 2v23h-1l-1-3v-3c-3-11-7-22-16-28l-3-2-2-1-6-1-2-1h-2l-1-1h11l5 1 1 1Zm-173 30-5 13-1 3-2 5-1 2-2 5v2l-2 5-5 12-10 29c-3 7-6 14-5 21 2 4 5 6 9 7l3 1v1h-32v-1l1-1 9-5v-1c6-7 9-16 12-24l2-6 4-10 5-12 2-5 19-48v2l-1 3v2Zm-97 34h-3l5 1c12 2 24 5 33 15 5 8 6 17 5 26 0 5-3 9-6 13l-1 2c-6 8-17 11-27 13l-3 1h-2l-7 1h-12v-1l9-1 10-2h1c7-2 13-5 18-10 4-6 7-14 6-22v-3c0-8-2-16-7-22-5-4-11-7-18-8h-1l-6-1-5-1h-6v-1h2l12-2h1c6-2 11-5 15-9 7-8 7-18 6-29-1-6-4-12-10-16-7-6-17-7-27-7v-2c16 0 32 2 44 14 5 5 7 12 7 19v2c0 7-3 13-8 18-7 7-16 9-25 12Zm235 70 2 1h3v2c-13 0-28-7-38-16l-5-4-1-1-7-9-1-2c-7-11-10-25-10-39v-2l3-20v-1l6-13 1-2 9-12 2-1c10-10 27-18 41-17v1l-5 1h-3c-11 3-21 10-28 20a93 93 0 0 0-11 68c4 16 12 31 26 40l13 6h3Zm53-31 2-8h1l-1 13-1 10v2l-1 4-1 5-6 2-1 1-16 4-11 1v-2h3l1-1h2c9-1 16-6 21-13l7-14v-1l1-1v-2Zm1387-103 3 7 1 2v2l3 8 4 9 7 18 4 14a263 263 0 0 1 12 29 503 503 0 0 1 9 25l1 3c5 11 5 11 13 18h2v1h-37v-1h2c4-2 4-2 6-5 5-13-6-31-10-41l-45-1 1-1 17-1h26v-1a648 648 0 0 1-16-41l-3-10v-1l-3-8-3-6-1-4-1-2c-1-3-1-6 1-10v-1l1-2h6Zm-304 0v136h-21v-1h1c2-1 4-2 5-5 3-7 2-14 2-21l1-85c0-7-1-15-5-21l-2-2-2-1h21Zm-278 0h21v10l1 95c-1 15-1 15 5 28l5 2v1h-32v-1l2-1 5-5v-3l1-2 1-17v-81c0-12 0-12-4-23l-5-3Zm805 0v109c0 13 0 13 6 24l2 1 2 1v1H86v-1l2-1c4-2 5-5 7-9v-5l1-16V340h12Zm49 0v8l1 12v17h-1v-2c-1-9-5-22-12-28-8-5-15-6-24-6v-1h36Zm-74 0v1h-2c-9 0-16 1-23 7-5 7-9 16-10 25l-1 2v2h-1v-11l1-10v-10l1-6h35Zm-465 1 2 1h1l8 2 3 1c8 3 16 7 23 13l1 1c11 8 18 23 20 37 2 18-1 38-13 53l-1 2-1 1c-6 6-12 11-19 14l-2 1c-12 6-25 9-38 9h-8v-1l8-1c6-1 15-4 21-4 7-2 13-6 19-10l1-1c11-8 16-24 18-36 3-21 1-44-12-60-6-8-14-14-24-17l-1-1-7-2-23-2v-1h1c7-1 15 0 22 1h1Zm397-2c7 3 14 6 19 11v5l-1 14-1 4-1 8h-1v-1c-1-13-3-26-13-35l-12-6v-1h3l6 1h1Z"/></svg>