<svg xmlns="http://www.w3.org/2000/svg" width="2000" height="140.7" viewBox="-1841.7 337.5 2000 140.7"><path d="M-215.5 338.5v.1c7.1 1.2 14 3.7 20.6 6.7 1.7 1.9 1.4 4 1.5 6.4l.4 10c.2 5.5.3 11 .3 16.6h-1.2l-.2-1.5c-2.1-11.7-6-24.3-15.7-32-4-2.5-8.5-4.2-13.2-5.1l-1.9-.4-1.4-.2v-1.2c3.6 0 7.2.1 10.8.6Zm78.5 42 1.9-4.5 1.8-4.7.6-1.4 2.5-6.4c.3.8.5 1.5.5 2 0 1.3-.5 2.4-1 3.8l-1 2-.3 1.2-1.8 4.5-.9 2.2-3 8.4-.4 1-.8 2.3-3.4 9.7-1 2.6-.3 1-.4 1.1-.3 1c-.5 1.8-1.3 3.6-2 5.3l-.2.3v.2l-.2.1c-3 7.6-6 15.3-8.7 23l-2.2 6-2.6 7c-4 10.6-4 10.6-2.7 21.4 3.3 3.3 6.6 4.7 11.1 5.4v1.2h-32.4V475l1.4-.5 1.8-.7 1.8-.8c7.5-3.5 10.8-12.9 13.8-20.2l.5-1.2 5.3-13.4.5-1.2 10.7-27.4c.8-2.8 1.8-5.5 3.1-8l1.5-3.9.8-1.9 4.1-10.3c.4-1.6 1.2-3.2 2-5ZM-505.6 474h-.4c-2.7 1-5.4 1.7-8.2 2.2h-.3l-3 .6h-3.5v-1l.3-.2 1.5-.4 2.5-.5 1.2-.3 2-.5c10.2-3.3 19-9.9 25-18.7 4.4-7 7.8-14.6 10-22.6l.3-1.3a94 94 0 0 0 2.3-23.4v-1.4c0-7.2-.3-14.2-1.9-21.3l-.3-1.3a59.7 59.7 0 0 0-23.6-38 47.5 47.5 0 0 0-12-5.3l-5.6-1-1.7-.4-.5-1.2a58.3 58.3 0 0 1 38.6 16 72.5 72.5 0 0 1 18.2 30.7l.4 1.2a81 81 0 0 1-.4 43.7l-.5 1.5c-2.9 9-7.5 17.5-13.7 24.7l-.9 1.1a55.8 55.8 0 0 1-25.8 17ZM-540 340.2l-4 1a43 43 0 0 0-15.2 8.7l-1.7 1.3c-12.5 10.5-17.3 29.3-18.8 44.8v12.4c0 7.1.2 14 1.8 21l.4 1.7c2.3 10.5 7 20.3 13.7 28.6l1.4 1.7a46.3 46.3 0 0 0 18.5 12l9.1 2.2v1.1a51 51 0 0 1-13-2.2l-1.6-.5a54.3 54.3 0 0 1-20.6-11.5l-1.4-1.2a68.9 68.9 0 0 1-22.4-44c-1.5-21.1 2.2-41.9 16.2-58.4a60.6 60.6 0 0 1 36.7-21 19 19 0 0 1 6.1 0l-.5 1.2-4.7 1.1Zm298-.8-2.5.5-1.2.2-2 .4a50 50 0 0 0-27 18.1c-5 7.2-8.7 15.2-10.9 23.7l-.3 1.2a90.3 90.3 0 0 0-2.2 22v1.3c0 8.7.6 17.4 2.8 25.8l.5 1.7a57 57 0 0 0 25.3 34.7c4 2 7.7 3.8 12 4.7h.6l.6.2 2.8 1.1 3.4.6v1.1c-1.9 0-3.8 0-5.7-.3h-.3c-.5 0-1 0-1.4-.2A69.5 69.5 0 0 1-284 456a65.5 65.5 0 0 1-16.8-34.5l-.3-1.5c-.8-4.2-1-8.4-1-12.7v-2a72.2 72.2 0 0 1 9.2-35l.9-1.6a63.2 63.2 0 0 1 41.9-29.8l1.2-.3h.4v-.1c2.8-.5 5.7-.7 8.5-.6v1.2l-1.9.3ZM-189 439l-.2 2.2-.3 2.8a203 203 0 0 1-1.3 9.5c-.6 4.5-.6 4.5-1 9.1-.2 5.5-.2 5.5-2.2 7.4-1.8 1-3.6 1.7-5.6 2.2l-1 .3-5.9 1.5c-1.8.4-3.7.9-5.5 1.5l-3.6.6h-.4c-3.4.5-6.9.5-10.3.6v-1.1l.5-.1a29 29 0 0 1 5.8-1.2c8-2.1 15-5.7 20.2-12.7a76.3 76.3 0 0 0 8.4-19.5l1.5-6.9h1.1v.5l-.2 3.3Zm-465.7-99.4c2.2 0 4.1.3 6.3.6v.3l4 .8 1.5.4a49.4 49.4 0 0 1 19.5 9.3l1.2.9a36 36 0 0 1 10.7 15.6l.7 1.7c3.5 11.9 2.4 25-3.3 36a41 41 0 0 1-25.1 19.1c-6.2 1.7-15.8 3.2-21.8.1v-.6h1c11-.7 19.5-2.4 27.4-10.6 2.5-3 4.2-6.2 5.8-9.8l.7-1.6a54.3 54.3 0 0 0 2.9-20v-2c0-10.3-3.1-20.4-9.9-28.2a45 45 0 0 0-24.3-10.2l-2-.4-1.6-.2v-1.2h6.3ZM-41 439v1.2l.6 3.6A41 41 0 0 0-26.2 470c3 2 6.3 3.5 9.8 4.5l3.4 1.1v1.1h-2.5c-1.8 0-3.6-.2-5.5-.5v-.1l-2.2-.5-1.6-.4c-7.6-2-14.7-5.4-21.2-9.8-.2-3.8.2-7.4.7-11.1l.1-1.7.7-5.2.4-3.5 1-8.7h1.1l1 3.8Zm49 37.2c-2.5.5-5.2.6-7.8.5H.1v-1c.5-.2 1.1-.4 1.7-.4H2c8-1.8 16-4.3 21-11.5 2.7-4.3 4.7-8.6 5-13.8l.1-2c.4-8-2.3-16-7.5-22.1-7.9-8.3-19-13.3-29-18.3a98.3 98.3 0 0 1-23.3-14.5l-1.3-1c-5-4.5-8.7-11-9-17.7a31.7 31.7 0 0 1 7.2-23.7A40.3 40.3 0 0 1-13 338c1.3-.3 2.1-.2 4 0v1l-3.4 1.2-1.4.5a28.4 28.4 0 0 0-15.7 12.9 24.7 24.7 0 0 0-1.7 17.8l1 2.4.6 1.4c6.2 13.6 23.1 20 35.8 26 7 3.3 13.4 7 19.4 11.8l1.4 1.1a33.8 33.8 0 0 1 12.3 22.2 35.6 35.6 0 0 1-8 26.7c-5 5.4-11.2 9.3-18.2 11.5l-1.5.5a26 26 0 0 1-3.6 1v.2Zm-870.7-136.8-2.2 1.1c-2.5 1.4-2.5 1.4-4.2 3.5-1.7 7.6 1.7 13.5 5 20l2.8 5.4c3.5 6.9 15.7 29.6 18 34l9 16.9c1.2 2 1.3 3.1 1.3 5.4v6.7l.1 10a50.4 50.4 0 0 0 4.5 29.8c1.7 1.5 3.4 2 5.5 2.6v1.1h-32.4v-1.1l1-.4c3.6-1.6 5.2-3.7 6.8-7.4 2.4-7 1.7-15.2 1.8-22.5l.1-6c1-10-1.5-20.2-7-28.7l-4.2-7.5-1.7-3.1-6-11.4c-4-7.6-8.2-15.2-12.4-22.8l-.8-1.5c-8-14.5-8-14.5-21.4-23.5v-.6h36.4Zm-814.6 0a46879.3 46879.3 0 0 0 38.1 101c5.6 19 5.6 19 17.8 33.3 1 .4 2.1.8 3.2 1v1.2h-36.4v-1.1l1-.4a14 14 0 0 0 7.5-5.9c1.5-11.8-10.2-37-10.7-40.4h-45l.6-1.7c4.4 0 34.7-.6 43.2-.5-8.3-23-16.7-45.8-25.1-68.6l-.6-1.5-1-2.7c-1.3-3-1.3-6.3 0-9.2l.9-1.6.8-1.7.6-1.2h5Zm683.8 0h21.6V350c0 32.1.2 64.3.4 96.4-.3 13.8-.3 13.8 5 26a11 11 0 0 0 4.9 2.3v1.2h-32v-1.2l1-.3c2.7-1.1 4.3-2.2 5.5-5 2-7 2.4-14.1 2.3-21.4V366c.4-12.2.4-12.2-4.2-23a20.6 20.6 0 0 0-4.5-2.9v-.6Zm-456.3 0-3.7 2.6c-4 4-4.8 10.7-5 16.1v92c0 12 0 12 5 22.4 1.4 1.1 2.6 1.8 4.3 2.3v1.1h-30.7v-1.1l1.5-.7a10 10 0 0 0 5-6.1l.7-2.7.4-1.5c1.2-5 1.3-9.7 1.3-14.8v-19.3l-.2-52.7v-10.6c.2-12.9.2-12.9-5-24.1-1-1-2.4-1.8-3.7-2.3v-.6h30.1Zm246.4 0v4.5c0 37.2.2 74.5.4 111.7 0 8.7 0 8.7 4 16.3 1.6 1.5 3 2.5 5.2 2.9v1.1h-32.4v-1.1l2.2-1.1 1.3-.7c1-.5 1-.5 2.2-.5a47.4 47.4 0 0 0 4.1-18.9v-19.4l.2-10v-40.5l.3-44.3h12.5Zm-137 12.5a20 20 0 0 0-3 9.1v1.7a26.8 26.8 0 0 0 7.2 20.2c2.7 2.5 5.5 4.5 8.5 6.4l1.4.9c5.4 3.3 28.1 14.3 33.5 17.6l1 .7a40 40 0 0 1 18.4 23c1.8 10.3 1 19.6-4.9 28.3l-3.3 4.2a40.5 40.5 0 0 1-22.5 12h-1l-2.4.5h-4.6v-1.1l2.4-.6 1.4-.4h1.2l1.3-.3c2.5-.7 5-1.6 7.4-2.7 3.6-1.7 6.7-4.2 9-7.4a38 38 0 0 0 5.2-25c-.6-2.4-1.6-4.7-2.9-6.9l-.8-1.4c-6.8-10.6-17.5-15.8-28.5-21.2-29.8-14.8-29.8-14.8-36-29.1l-.7-1.3c-2-6-2-12.6.4-18.6a36.5 36.5 0 0 1 16.7-18.3l1.2-.6c4.2-2.7 9.2-4 14.2-4v1.2l-1.7.5c-7.6 2.3-14 5.5-18 12.6Zm418.6-2.8 1.2.8c6.3 5.5 10.4 13 11.3 21.4.5 9.5-1 18.6-7.4 26-6.1 6.7-14 11.2-22.8 13.2l-1.5.4-3 .8 2.4 1 1.5.6c1.8.7 1.8.7 3.5 1 3.2.4 5.4 1.3 7.3 4 1.5 2.2 3 4.6 4.3 7l5.4 9 2.3 3.8c9.8 16.4 9.8 16.4 20.5 32.1l1.2 1.7c1.2 1.3 2.4 2 4 2.9v1.1h-18.8l-1.8-3.7c-2.3-4.6-5-9-7.5-13.5l-7.5-13.2-8.5-14.9-6.8-11.7-.6-1c-1-1.6-1.6-3.3-2-5h-14.3v-1.2l2.2-.3 4-.4c8.6-.8 16.7-4.5 22.8-10.7 7.6-9.5 7.7-21.3 6.8-33-1.2-8-5.4-15.2-11.8-20.2a37.3 37.3 0 0 0-18.9-6l-1.5-.2-3.6-.4v-1.1h6.6c2.7 0 5.5.1 8.2.6h-.2c8.2 1.3 16 4 23 9Zm-899-9.7v136h-20.4c.6-1.2.6-1.2 2-2 2.9-1.8 3.5-4 4.4-7.2l.5-2.1c1.4-5.8 1.2-11.8 1.2-17.6V366c.3-12.2.3-12.2-4.3-23.2-1.4-1-2.8-2-4.3-2.8v-.6h21Zm707 11.5a62.2 62.2 0 0 0-17.5 34.3l-.2 1.5c-1 5.9-1.5 11.9-1.5 17.9v3.5a77 77 0 0 0 2 21.2l.3 1.5 1.2 4.2.4 1.2a55.5 55.5 0 0 0 25.3 34c3 1.6 6.1 2.7 9.4 3.6l6.5 1.6v1.1c-2.2 0-4.4-.2-6.6-.5h-.8v-.1a56.1 56.1 0 0 1-28-13.6l-1.3-1.2a66.2 66.2 0 0 1-20.8-36.4l-.5-2a82.2 82.2 0 0 1-1.4-16.5v-2c0-3.4.2-6.4 1-9.7.4-1.5.6-3 .8-4.5a65 65 0 0 1 24.7-40.8 59.2 59.2 0 0 1 26.1-11.4 20 20 0 0 1 6.8-.1l-.6 1.1c-1.5.5-3 .8-4.7 1.2l-3.8.9c-5.7 1.7-11 4.7-15.4 8.7l-1.4 1.3Zm58.4-9.1a57 57 0 0 1 25 18l1.1 1.7a73.2 73.2 0 0 1 13.8 44.9v1.4c0 17.1-4.3 35-16.6 47.5-1.3 1.3-1.3 1.3-2.6 3a32.8 32.8 0 0 1-5 4.7l-1 .8a57 57 0 0 1-31.8 12.7h-1.8v-1.1l1.8-.5 2.5-.6 1.2-.2h.1c11.2-3 20.9-10 27.3-19.7 2.2-3.5 4-7.1 5.8-10.9l.7-1.6c3.7-9.2 5.7-19 5.7-29v-7.4c.2-7.7-.6-15.4-2.4-22.9l-.5-2.3c-2.7-11-8-21-16-29l-1.2-1.2a44.7 44.7 0 0 0-23.4-11l-1.6-.3v-1.1c2 0 3.9.2 5.7.5 2.8.3 5.7.8 8.5 1.8v.1l2.9 1 1.8.7Zm-384.8 64c2.2 1 4.6 1.6 7 2 5.4 1 8 3.3 11.3 7.8l39.4 47.6c6 7.7 6 7.7 14.7 11.6v1.1l-12 .6c-8.1.5-8.1.5-10.6-1.2-2-2-3.4-4.4-4.8-6.8l-44-54.7-1-1.3-2-2.3c-1.7-2-2.8-3.3-3-6 1.7.5 3.3 1 5 1.7Zm30.8-66.4h35.3c-1.5 1-3.1 1.8-4.8 2.6a48.7 48.7 0 0 0-12.3 8.2c-.3.3-10.8 10.3-15.5 15.4l-10.2 10.6c-1.1 1.3-8.8 9-9.5 9.8l-4 4.6-1.7-.6 4-4.5 21.2-23.7c3.3-4 6.6-8 6.8-13.5V347c-.3-2-1-2.8-2.4-4.2-1.8-1-1.8-1-3.6-1.6l-1.9-.7-1.4-.5v-.6Zm624.1 0-3 1.8c-10.7 5.6-15.7 20.7-20.4 31.2l-4.1 8.7-.6 1.2-1.2 2.5-3 6.5-.2.3-3.8 8.2-.7 1.6-.5 1-.5 1.4a48 48 0 0 1-3.5 6.7 5 5 0 0 1 .1-4.3l.2-.4.6-1.4.7-1.5.7-1.6 2.2-5.2 1.5-3.3 2.9-6.5 2.5-5.9.5-1.3 1-2.3c.3-.7.5-1.3.8-1.7l.7-1.7 1.6-3.6c5-10.8 5-10.8 5.6-22.5a11.1 11.1 0 0 0-5.7-5.6 82 82 0 0 0-5.7-1.7v-.6h31.3Zm-568.3 95.6.1 1.5c1.4 11.4 4.3 22.8 13 31l1 1c4 3.7 9 5.5 14.3 6.9v1.1c-9.3 0-19.5-3-27.4-8-1-.6-1-.6-2.3-1a6.6 6.6 0 0 1-3.3-3c-.5-3.6 2.5-24.4 3.4-29.5h1.2Zm198.5-95.6.6 11.5.2 3.5.3 9.5v12l-.3-.9a14 14 0 0 1-1.7-5c-2.5-9.9-5.6-19.6-14.7-25.3-5-2.5-10.4-3.8-15.9-4l-4.3-.2v-1.1h35.8Zm-74 0c0 .2-1.2.7-2 .7-8.4.8-17 2.2-23.3 8.6-6 7.5-8.2 16.9-10.5 26-.2 0-.1-23.5.6-35.3h35.3Zm-55.1 5.1 1 .5c2.2 1.1 3.7 2.2 5.2 4 1.2 6.4-.6 13.9-1.4 20.2l-1.4 11.2h-1.1v-1.5c-.5-12-3.9-25.5-12.9-34a36.9 36.9 0 0 0-12.7-6v-1.2h3.3c7 1 13.8 3.3 20 6.9Zm-236-4.9c5.4.9 10.7 3 15.3 6 .9 1.8 1.3 3.7 1.3 5.7v1.7l.1 1.8.1 1.9.1 6v15.4h-.5l-.9-3.3-.5-1.8-.2-1.5c-2.6-10.3-6.2-21.1-15.2-27.4a49 49 0 0 0-3.7-1.9l-1.6-.8c-2-.9-4-1.4-6.2-1.7l-2.3-.5h-.3l-1.2-.3h-.3l-.6-1.2h4.8c2 0 4 .3 6 .6v.2l4.6.9 1.1.2Zm-173 30.5c-1.8 4.3-3.2 8.7-4.8 13-.4 1-.7 2.1-1.2 3.1l-1.8 4.8-.6 2.1-2 5.1-.6 1.5-2 5.3-.1.4h-.1l-4.4 11.8c-1.7 4.8-9.9 27.5-10.6 29.1a37.8 37.8 0 0 0-4.3 21.1 13 13 0 0 0 8.3 6.7l3.7.7v1.1h-32.5v-1.1l1.4-.5c4.7-1.8 4.7-1.8 8.3-5.2l.8-.9c5.7-6.9 8.6-16 11.7-24.3l2.2-5.6 4.1-10.4.1-.2c1.1-3.5 3.3-8.5 4.6-11.8l2-4.8c6.3-16.5 13.8-36.5 19-47.8.3-.8.3-.3.2.9v.9a8 8 0 0 1-.8 3.4l-.6 1.6Zm-96.8 33.6-2.8.6 4.5.5c12.6 2 24.5 5.5 33.1 15.7 5.7 7.6 6.4 16 5.6 25.3-.9 5-3 9.7-6.2 13.6l-1 1.5a45.5 45.5 0 0 1-27 13.2 17 17 0 0 1-3.5.6l-1.2.1-7.8 1c-3.8.2-7.5.2-11.3.1v-1.1c2.9-.1 5.8-.4 8.8-.8 2.6-.3 4.7-.7 9.7-1.8l1.5-.1a34.2 34.2 0 0 0 17.5-10.4 34 34 0 0 0 6.5-21.3V437c0-8-2.2-15.5-7.7-21.5-5-4.4-11.1-7.3-17.7-8.5l-1.5-.3-5.6-.8-5.3-.5-1.7-.2-4-.4v-1.1h1.7c4.4-.3 8.5-.8 12.8-2l.7-.1a32 32 0 0 0 15-8.8c6.8-8.2 7-18.1 6.3-28.4a28.1 28.1 0 0 0-10-16.6c-7.9-5.5-17.6-7-27-7.3v-1.1c15.6-.2 31.2 2 43.2 13.2 5 5.1 7.8 12.1 7.6 19.3v1.7c.1 7.2-3.4 13-8.1 18.2-7 6.8-15.9 9.6-25 11.8Zm235.2 70.6 1.4.3 3.5.8v1.1a58 58 0 0 1-38.3-15.1l-4.4-4.2-1.3-1.3a47 47 0 0 1-7.2-9l-1-1.5a72 72 0 0 1-10-39v-2c0-6.9.8-13.5 2.8-20l.5-1.5c1.5-4.7 3.6-9 6-13.3l1-1.8c2.5-4.3 5.8-7.8 9.2-11.3l1.2-1.3c10-10.6 27-18.3 41.5-17.5l-.5 1.1-4.5 1-3.4.5c-11.1 3.1-20.8 10-27.3 19.4-13 19.6-15.3 45.1-11 67.9a63.3 63.3 0 0 0 25.4 40.3c4.1 2.5 8.5 4.4 13.2 5.7l3.2.7Zm53-31.8 2-7.5h.5c0 4.5-.3 9-1 13.5a152 152 0 0 0-1 9.8v2l-.3 3.7c-.2 1.7-.3 3-1 4.5-2 1.5-4 2.2-6.3 2.9l-1.3.5a83.7 83.7 0 0 1-16 4h.2c-3.6.5-7.1.7-10.8.6v-1.1l2.7-.6 1.5-.3 2-.4c8.3-1.4 15.6-6 20.6-12.8 3-4.5 5-9.3 6.8-14.4l.5-1.4.2-1 .3-.6v-.1l.3-1.3Zm1386.4-102.9a64 64 0 0 1 3.2 7.4l1 2.4.4 1.3 3.1 8.3 3.3 9 7 18.3 4.9 14c2.1 5 4 10.2 6 15.4l5 13.6c1.9 4.8 3.6 9.7 5.3 14.5a85 85 0 0 0 3.9 9.7l1.7 3.8c4.2 10.6 4.2 10.6 13 17.4l1.4.3v1.2h-36.4V475l1.1-.3c4.1-1.4 4.1-1.4 7-4.5 4.2-12.8-6.7-31-10.4-41.3l-45-.5.6-1.7 17.8-.3 25.5-.3-.4-1c-2.1-5.7-4.2-11.4-6.2-17.3-1.5-4.1-3-8.2-4.7-12.3-1.5-3.8-3-7.7-4.3-11.7l-3.4-9.4-.4-1.3-2.9-7.6-2.5-7-1.3-3.2-.7-1.9c-1.2-3.9-1.2-6.4.5-10l.5-1.1 1.3-2.7h5.1Zm-303.2 0v136.6h-21.6V475l.9-.3c2.7-1.2 4.2-2.2 5.5-4.8 2.6-6.8 2.2-14.2 2.2-21.4l.2-84.5c0-7.5-.2-15.3-4.8-21.5-1-.9-1-.9-2.2-1.4l-1.8-.9v-.6h21.6Zm-278.2 0h21v10.5l.4 95.4c-.2 14.5-.2 14.5 5.6 27.2a12 12 0 0 0 4.9 2.3v1.2h-31.9V475l1.5-.6c2.7-1.5 3.9-3 4.9-5.9l.5-2.1.6-2.1c1.3-5.8 1.1-11.7 1.1-17.6v-80.4c.4-12.3.4-12.3-4.3-23.2-1.3-1-2.8-2-4.3-2.9v-.6Zm805 0v4.5l.2 105c-.1 13-.1 13 5.5 24.2a6 6 0 0 0 2.4 1l2.1.7v1.2H86V475l2.1-.8c3.6-1.8 5.1-5.1 6.4-8.8.4-1.9.6-3.7.8-5.6.5-5.3.5-10.6.5-15.9l.5-104.3h12Zm48.4 0c.4 1.9.6 3.2.7 5v1.7l.1 1.8.5 11.7.1 3.8.1 1.8.2 11.2H157l-.1-1.2c-1.4-9.5-4.7-22-12.4-28.4a40.8 40.8 0 0 0-23.3-6.2v-1.2h35.3Zm-73.4 0v1.2h-2c-8.8.3-16 1.6-22.9 7.5-5.6 7.1-9.2 15.6-10.5 24.5l-.6 2.2-.5 1.6h-.5v-10.2l.4-10 .3-4.4.1-2.9v-1.3l.2-1.2v-1l.7-6h35.3Zm-464.8 1.7-.1.1 2.1.5h.8v.2h.2c2.6.7 5.2 1.4 7.7 2.3l3 .9c8.4 2.4 16 7 22.7 12.5l1 .8a59.3 59.3 0 0 1 19.7 37.3A71.9 71.9 0 0 1-337 449l-1.3 1.6-1 1.3a59.6 59.6 0 0 1-18.9 14l-1.7 1c-12 5.7-25 8.6-38.2 8.7h-7.9v-.6a50 50 0 0 1 8-1c6.2-1 15-4 20.9-4a63 63 0 0 0 19.5-10.3l1-.8c10.7-8.3 16-23.5 17.9-36.4 2.4-20.4.9-43-12-59.9a52.8 52.8 0 0 0-23.8-16.6l-1.8-.6c-2.3-.8-4.5-1.4-6.8-2-7.6-1.4-15.1-2.4-22.9-2.6v-1.2h1c7.3-.3 14.7.2 21.9 1.5l1.6.2ZM15 339.4c7 2.3 14 5.2 19.2 10.5l-.1 3-.2 2-1.4 14.5-.3 3.3-.8 7.9h-1.1l-.2-1c-1.3-12.6-3.5-26-13.5-34.8a36.4 36.4 0 0 0-12-5.7v-1.2H8c2 .1 3.8.6 5.7 1.2l1.3.3Z"/></svg>