<svg xmlns="http://www.w3.org/2000/svg" width="250" height="17.58" viewBox="-1842 338 250 17.6"><path d="M-1638.75 337.93v.12c1 .13 1.88.38 2.63.75.24.25.24.5.24.88v3.25h-.12v-.13c-.25-1.5-.75-3-2-4-.5-.37-1-.5-1.63-.62l-.24-.13h-.13v-.12h1.25Zm9.88 5.37.24-.62.26-.63v-.12l.37-.75v.25l-.13.37-.12.25v.13l-.25.62-.13.25-.37 1.13v.12l-.13.25-.37 1.25-.13.25-.12.13v.25l-.25.75h-.13l-1 2.87-.37.75-.25.88c-.5 1.37-.5 1.37-.38 2.75.38.37.88.5 1.38.62v.13h-4v-.13h.13l.24-.12.26-.13c.87-.5 1.37-1.62 1.74-2.5v-.12l.63-1.75.13-.13 1.37-3.37c0-.38.13-.75.38-1l.12-.5.13-.25.5-1.25.24-.63Zm-46.13 11.63-1 .25h-.13l-.37.12h-.38v-.12l.26-.13h.24l.26-.12h.24a7.22 7.22 0 0 0 3.13-2.38c.5-.87.88-1.75 1.13-2.75l.12-.25c.25-1 .25-1.87.25-2.87v-.25c0-.88 0-1.75-.25-2.63v-.12a7.5 7.5 0 0 0-3-4.75l-1.5-.63-.63-.25h-.24l-.13-.12c1.75-.13 3.63.87 4.88 2a7.6 7.6 0 0 1 2.24 3.87l.13.13c.5 1.62.38 3.87-.13 5.5v.12c-.37 1.13-1 2.13-1.74 3.13l-.13.12c-.88 1-2 1.75-3.25 2.13Zm-4.25-16.75-.5.12a4.7 4.7 0 0 0-1.88 1.13l-.24.12c-1.5 1.38-2.13 3.63-2.38 5.63v1.5l.25 2.62.13.25c.24 1.38.87 2.5 1.62 3.63l.25.12a4.5 4.5 0 0 0 2.25 1.5l1.13.38v.12c-.5 0-1.13-.12-1.63-.37h-.13c-1-.25-1.87-.75-2.62-1.38l-.13-.25a8.63 8.63 0 0 1-2.87-5.5c-.13-2.62.25-5.25 2-7.25 1.13-1.25 2.88-2.5 4.63-2.62h.74v.12l-.62.13Zm37.25-.13-.25.13h-.25l-.25.12a6.03 6.03 0 0 0-3.38 2.25 8.4 8.4 0 0 0-1.24 2.88l-.13.25c-.25.87-.25 1.75-.25 2.75v.12l.38 3.25v.13a7.22 7.22 0 0 0 3.24 4.37l1.5.63h.13l.38.12.37.13v.12l-.75-.12h-.13a8.13 8.13 0 0 1-6.62-6.88l-.13-.12-.12-1.63v-.25c0-1.5.38-3 1.13-4.37l.12-.13c1.13-2 3-3.37 5.25-3.75h.25v-.12h1v.12h-.25Zm6.63 12.5v.25l-.13.38-.13 1.25-.12 1.12c0 .63 0 .63-.25.88l-.75.25-.13.12-.62.13-.75.12-.5.13-1.25.12v-.25l.75-.12c1-.25 1.88-.63 2.5-1.5.5-.75.88-1.63 1.13-2.5l.12-.88h.13v.5Zm-58.26-12.37h.88l.5.12.13.13c.87.12 1.74.5 2.5 1.12l.12.13c.63.5 1 1.12 1.38 2v.12c.5 1.5.37 3.13-.38 4.5a4.87 4.87 0 0 1-3.13 2.38c-.74.25-2 .5-2.74 0h.12c1.38-.13 2.38-.38 3.38-1.38.37-.37.62-.75.74-1.25l.13-.12c.25-.88.38-1.63.38-2.5v-.25c0-1.38-.38-2.63-1.26-3.5a5.62 5.62 0 0 0-3-1.38h-.5v-.12h.76Zm76.76 12.37v.13l.12.5a4.97 4.97 0 0 0 1.75 3.25c.38.25.75.5 1.25.5l.38.25v.12h-.26l-.74-.12h-.26l-.24-.13a7.25 7.25 0 0 1-2.63-1.25l.13-1.37v-.88l.12-.37.13-1.13h.12l.13.5Zm6.12 4.63-1 .12v-.12l.25-.13c1-.12 2-.5 2.63-1.37.37-.5.62-1.13.62-1.75v-.25c.13-1-.25-2-.88-2.75-1-1-2.37-1.63-3.62-2.25a12.17 12.17 0 0 1-3-1.88l-.13-.12a3.04 3.04 0 0 1-1.12-2.25c-.13-1 .25-2.13.88-2.88.74-.75 1.74-1.5 2.74-1.62h.5v.12l-.37.13-.25.12a3.4 3.4 0 0 0-1.88 1.63c-.37.62-.5 1.37-.24 2.12l.12.38.13.12c.74 1.75 2.87 2.5 4.37 3.25.88.38 1.75.88 2.5 1.5l.13.13a4.34 4.34 0 0 1 .5 6.12 5.23 5.23 0 0 1-2.26 1.38l-.12.12-.5.13Zm-108.88-17.13-.24.25-.5.38c-.26 1 .24 1.75.62 2.5l.38.62 2.24 4.25c.4.96.83 1.92 1.26 2.88v2c-.13 2-.13 2 .62 3.75.13.25.38.25.63.37v.13h-4v-.13l.12-.12c.38-.13.63-.38.88-.88.24-.87.12-1.87.12-2.75v-.75a5.11 5.11 0 0 0-.88-3.62l-.5-1-.24-.38-.76-1.37-1.5-2.88-.12-.12c-1-1.88-1-1.88-2.63-3v-.13h4.5Zm-101.74 0 .5 1.5 4.24 11.13c.63 2.37.63 2.37 2.26 4.25l.37.12v.13h-4.63v-.13l.13-.12c.5-.13.75-.38 1-.63.13-1.5-1.25-4.62-1.38-5.12h-5.62l.13-.25h5.37l-3.13-8.63-.12-.12-.13-.38v-1.12l.13-.25.13-.13.12-.25h.63Zm85.37 0h2.75v13.5c0 1.63 0 1.63.63 3.25l.62.25v.13h-4v-.13h.13l.74-.62c.26-.88.26-1.88.26-2.75v-10.25c.12-1.5.12-1.5-.5-2.88l-.5-.37v-.13h-.13Zm-57 0-.38.38c-.5.5-.62 1.37-.62 2v11.5c-.13 1.5-.13 1.5.63 2.75l.5.37v.13h-3.88v-.13l.25-.12c.25-.13.5-.38.63-.75v-.38l.12-.12.13-1.88v-10.37c0-1.5 0-1.5-.63-3l-.5-.25v-.13h3.75Zm30.88 0v14.63c0 1 0 1 .5 2l.62.37v.13h-4v-.13l.25-.12.13-.13h.37c.25-.87.5-1.62.5-2.37v-14.38h1.63Zm-17.13 1.63-.38 1.12v.25a3.1 3.1 0 0 0 .88 2.5l1 .75.25.13c.63.37 3.5 1.75 4.13 2.25l.12.12c1 .63 2 1.63 2.38 2.88.12 1.25.12 2.37-.63 3.5l-.5.5a5.4 5.4 0 0 1-2.75 1.5h-.13l-.37.12h-.5v-.25h.25l.25-.12h.25l1-.38c.38-.12.75-.5 1.13-.87.5-1 .74-2 .62-3.13l-.38-.87-.12-.13c-.88-1.37-2.13-2-3.5-2.62-3.75-1.88-3.75-1.88-4.5-3.75l-.13-.13a3.46 3.46 0 0 1 0-2.25c.5-1 1.13-1.87 2.13-2.37h.13c.5-.38 1.12-.5 1.74-.5v.12h-.12c-1 .38-1.75.75-2.25 1.63Zm52.25-.38.13.13a3.8 3.8 0 0 1 1.5 2.62c0 1.25-.13 2.38-1 3.25a5.47 5.47 0 0 1-2.76 1.75h-.24l-.38.13.25.12h.25l.38.13 1 .5.5.87.62 1.13.38.5 2.5 4 .12.25.5.37v.13h-2.25l-.25-.5-1-1.63a65.4 65.4 0 0 1-2-3.5l-.75-1.5-.13-.12-.24-.63h-1.76v-.12l.26-.13h.5c1-.12 2-.62 2.87-1.37.88-1.13.88-2.63.75-4.13-.13-1-.63-1.87-1.38-2.5a4.42 4.42 0 0 0-2.37-.75h-.63v-.25h.76l1 .13c1 .12 2 .5 2.87 1.12Zm-112.38-1.25v17h-2.5l.26-.25c.37-.12.37-.5.5-.87l.12-.25.13-2.25v-10c0-1.5 0-1.5-.5-2.88l-.63-.37v-.13h2.63Zm88.38 1.5a7.67 7.67 0 0 0-2.13 4.25l-.12.25-.13 2.25v.38c0 .87 0 1.75.26 2.62v.25l.24.5v.13a6.78 6.78 0 0 0 3.13 4.25l1.25.5.75.12v.25l-.88-.12a7.16 7.16 0 0 1-3.5-1.75l-.24-.13a8.26 8.26 0 0 1-2.5-4.5l-.13-.25-.13-2.12v-.25l.13-1.13v-.62c.38-2 1.5-3.88 3.13-5.13 1-.75 2.12-1.25 3.24-1.37h.88l-.13.12-.5.13-.5.12a4.7 4.7 0 0 0-1.87 1.13l-.25.12Zm7.38-1.12a7.68 7.68 0 0 1 3.12 2.25l.13.12a10.29 10.29 0 0 1 1.74 5.63v.25c-.12 2.12-.62 4.37-2.12 5.87l-.38.38-.62.62-.13.13a8.76 8.76 0 0 1-4 1.62h-.12v-.25h.25l.25-.12h.13a6.34 6.34 0 0 0 3.5-2.5l.62-1.25.13-.25c.5-1.13.74-2.38.74-3.63v-.87c0-1-.12-2-.37-2.88v-.37a7.98 7.98 0 0 0-2-3.63l-.13-.12a5.53 5.53 0 0 0-3-1.38h-.12v-.12h.63l1.12.25.38.12.24.13Zm-48.13 8 .88.25c.62.12 1 .37 1.37 1l5 5.87c.75 1 .75 1 1.75 1.5v.13h-1.5c-1 .12-1 .12-1.25-.13l-.63-.75-5.5-6.87-.12-.13-.25-.37c-.25-.25-.38-.38-.38-.75l.63.25Zm3.88-8.38h4.37l-.63.38-1.5 1-2 2-1.24 1.25-1.13 1.25-.5.62-.25-.12.5-.5 2.63-3c.37-.5.87-1 .87-1.75v-.13c0-.25-.13-.37-.38-.5l-.37-.25-.25-.12h-.13v-.13Zm78 0-.38.25c-1.38.75-2 2.63-2.63 3.88l-.5 1.12v.13l-.24.37-.38.75v.13l-.5 1v.12l-.13.13v.25l-.5.87v-.62l.13-.25.13-.13v-.25l.37-.62.13-.38.37-.87.38-.75v-.13l.12-.25.13-.25.12-.25.13-.37c.62-1.38.62-1.38.74-2.88-.12-.25-.37-.5-.74-.62l-.76-.25v-.13h4Zm-71.13 12 .13.25a5.9 5.9 0 0 0 1.5 3.75l.12.13c.5.5 1.25.75 1.88.87v.25a8.67 8.67 0 0 1-3.5-1l-.26-.25-.37-.25c-.13-.5.25-3.12.38-3.75h.12Zm24.88-12v1.5l.12.38v2.75-.13l-.25-.62c-.25-1.25-.75-2.5-1.88-3.13a3.67 3.67 0 0 0-2-.5h-.5v-.25h4.5Zm-9.26 0-.24.13c-1.13.12-2.13.25-2.88 1.12a7.54 7.54 0 0 0-1.38 3.25l.13-4.5h4.38Zm-6.87.75h.13l.62.5c.13.75-.13 1.75-.13 2.5l-.24 1.38h-.13v-.13c0-1.5-.5-3.25-1.63-4.25-.5-.37-1-.62-1.62-.75v-.12h.5a6 6 0 0 1 2.5.87Zm-29.5-.62c.63 0 1.25.37 1.88.75l.12.62v.25l.13.25v2.88h-.13l-.13-.38v-.37c-.37-1.38-.87-2.75-2-3.5l-.37-.25-.25-.13-.75-.12-.25-.13h-.25l-.13-.12h1.38l.63.12.12.13Zm-21.63 3.75-.62 1.62-.13.38-.24.62-.13.25-.25.63v.25l-.25.62-.63 1.5-1.24 3.63c-.38.87-.76 1.75-.63 2.62.25.5.63.75 1.13.88l.37.12v.13h-4v-.13l.13-.12 1.12-.63v-.12c.75-.88 1.13-2 1.5-3l.25-.75.5-1.25.63-1.5.24-.63 2.38-6v.25l-.13.38v.25Zm-12.12 4.25h-.38l.63.12c1.5.25 3 .63 4.13 1.88.62 1 .74 2.12.62 3.25 0 .62-.38 1.12-.75 1.62l-.13.25c-.74 1-2.12 1.38-3.37 1.63l-.38.12h-.24l-.88.13h-1.5v-.13l1.13-.12 1.24-.25h.13a5 5 0 0 0 2.25-1.25c.5-.75.88-1.75.75-2.75v-.38c0-1-.25-2-.88-2.75a4.63 4.63 0 0 0-2.24-1h-.13l-.75-.12-.63-.13h-.74v-.12h.24l1.5-.25h.13a4.7 4.7 0 0 0 1.88-1.13c.87-1 .87-2.25.74-3.62-.12-.75-.5-1.5-1.24-2-.88-.75-2.13-.88-3.38-.88v-.25c2 0 4 .25 5.5 1.75.63.63.88 1.5.88 2.38v.25c0 .87-.38 1.62-1 2.25-.88.87-2 1.12-3.13 1.5Zm29.38 8.75.24.12h.38v.25a7.7 7.7 0 0 1-4.75-2l-.63-.5-.12-.12-.88-1.13-.12-.25a9.15 9.15 0 0 1-1.25-4.87v-.25l.38-2.5v-.13l.74-1.62.13-.25 1.13-1.5.24-.13c1.26-1.25 3.38-2.25 5.13-2.12v.12l-.63.13h-.37a6.34 6.34 0 0 0-3.5 2.5 11.62 11.62 0 0 0-1.38 8.5c.5 2 1.5 3.87 3.26 5l1.62.75h.38Zm6.62-3.88.25-1h.13l-.13 1.63-.13 1.25v.25l-.12.5-.13.62-.74.25-.13.13-2 .5-1.38.12v-.25h.38l.13-.12h.24a3.7 3.7 0 0 0 2.63-1.63l.88-1.75v-.12l.12-.13v-.25Zm173.38-12.87.37.87.13.25v.25l.37 1 .5 1.13.88 2.25.5 1.75a32.64 32.64 0 0 1 1.5 3.62c.4 1.03.77 2.07 1.12 3.13l.13.37c.62 1.38.62 1.38 1.62 2.25h.25v.13h-4.63v-.13h.26c.5-.25.5-.25.74-.62.63-1.63-.74-3.88-1.24-5.13l-5.63-.12.13-.13 2.12-.12h3.25v-.13c-.72-1.68-1.4-3.4-2-5.12l-.38-1.25v-.13l-.37-1-.38-.75-.12-.5-.13-.25c-.12-.37-.12-.75.13-1.25v-.12l.13-.25h.74Zm-38 0v17h-2.63v-.13h.13c.24-.12.5-.25.62-.62.38-.88.25-1.75.25-2.63l.13-10.62a4.8 4.8 0 0 0-.63-2.63l-.25-.25-.25-.12h2.63Zm-34.76 0h2.63v1.25l.13 11.87c-.13 1.88-.13 1.88.62 3.5l.63.25v.13h-4v-.13l.24-.12.63-.63v-.37l.13-.25.12-2.13v-10.12c0-1.5 0-1.5-.5-2.88l-.63-.37Zm100.63 0v13.62c0 1.63 0 1.63.75 3l.25.13.25.12v.13h-4v-.13l.25-.12c.5-.25.63-.63.88-1.13v-.62l.12-2v-13h1.5Zm6.13 0v1l.12 1.5v2.12h-.13v-.25c-.12-1.12-.62-2.75-1.5-3.5-1-.62-1.87-.75-3-.75v-.12h4.5Zm-9.26 0v.12h-.24c-1.13 0-2 .13-2.88.88-.63.87-1.13 2-1.25 3.12l-.13.25v.25h-.12v-1.37l.13-1.25v-1.25l.12-.75h4.38Zm-58.12.12.25.13h.13l1 .25.37.12c1 .38 2 .88 2.88 1.63l.12.12c1.38 1 2.25 2.88 2.5 4.63.25 2.25-.13 4.75-1.63 6.62l-.12.25-.13.13a7.78 7.78 0 0 1-2.37 1.75l-.25.12c-1.5.75-3.13 1.13-4.75 1.13h-1v-.13l1-.12c.75-.13 1.88-.5 2.63-.5.87-.25 1.62-.75 2.37-1.25l.13-.13c1.37-1 2-3 2.24-4.5.38-2.62.13-5.5-1.5-7.5a5.79 5.79 0 0 0-3-2.12l-.12-.13-.88-.25-2.87-.25v-.12h.13c.87-.13 1.87 0 2.74.12h.13Zm49.63-.25a7.4 7.4 0 0 1 2.37 1.38v.62l-.13 1.75-.12.5-.13 1h-.12v-.12c-.13-1.63-.38-3.25-1.63-4.38l-1.5-.75v-.12h.38l.75.12h.13Z"/></svg>