<svg width="50" height="50" xmlns="http://www.w3.org/2000/svg"><circle style="fill:#1a1a1a;stroke:#d9d9d9;stroke-width:.472569" cx="25" cy="25" r="24.764"/><path style="fill:#f9f9f9;fill-opacity:1;stroke:none;stroke-width:1.00152;stroke-opacity:.996078" d="M22.894 11.485c-1.744.007-3.437.338-4.95 1.14-.788.847 3.028-.188 3.545 3.046 3.476-1.844 9.81-.972 13 1.858-3.87-.931-4.209-1.45-4.411.496-.857-.695-2.42-.92-3.046.113 4.207 2.35-5.192-.33-7.582-.624 4.807 3.258 18.249 13.075 4.935 4.982.008 2.561-.796 6.556-1.54 8.978 4.932-6.325 2.996-5.325 4.822 3.179 2.92-7.283.97-7.083 4.46.545-.181-13.67.149-8.029 3.65 2.849 2.724-12.377-1.209-13.927 6.4.468-.277-3.63-2.08-11.142-4.345-14.225 1.82 1.121 2.863 3.087 3.925 4.879-.665-4.669-3.513-9.502-6.169-12.609 7.654 4.303-3.273-5.111-12.694-5.075zm-5.962 3.69c-3.06.983-8.025 2.16-9.108 6.096 1.416-2.377 2.9-2.984 8.892-5.02.039-.512.12-.764.216-1.077zm8.53.958c-.273 1.85-1.555.587-1.414.018-1.041.352.977 2.775 2.732-.125-.43-.066-.953.037-1.318.107zm-14.974 5.475c4.28-.766 6.724-.503 10.18.013-3.882-1.801-6.83-1.227-10.18-.013z"/></svg>