<svg xmlns="http://www.w3.org/2000/svg" width="50" height="50"><path style="fill:#fff" d="M22 0c-2.8 0-5 .5-7.2 1.6-1 1.1 4.4 0 5 4.4a18 18 0 0 1 18.7 2.8c-5.5-1.1-6-2.2-6 .5-1.2-1-4-1-4.5.6 6 3.3-7.7-.6-11-1.1 6.6 5 26.4 18.7 7.2 7.1 0 3.9-1.1 9.4-2.2 13.2 7.1-9.3 4.4-7.7 6.6 4.4 4.4-10.4 1.6-10.4 6.6 1.1 0-19.8.5-12 5.5 3.9C44.5 20.3 39 18 50 39c-.5-5-3.3-16-6.6-20.3 2.8 1.6 4.4 4.4 6 7.1a42.9 42.9 0 0 0-9.3-18.7C51.6 13.7 35.7 0 22 0Zm-8.8 5.5C8.8 6.5 1.6 8.2 0 14.3 2.2 11 4.4 9.9 12.6 7l.6-1.6Zm12.6 1c-.5 2.8-2.7 1.2-2.2 0-1.6.6 1.1 4.5 3.9 0h-1.7Zm-22 8.3c6-1 10-1 14.9 0-5.5-2.7-10-1.6-14.9 0Z"/></svg>