<svg xmlns="http://www.w3.org/2000/svg" width="34.5" height="32"><path d="M21.6 19c-2.9 0 4.3 8.7-3.6.8C20.9 24 23.7 29 28 32c-1.4-2.2-11.5-17.2 6.5 0-3.6-4.3-10-13-13-13Z" style="fill:#55f;stroke-width:.0249331"/><path d="M10 11.2c5.1 6.4-2.8 15-6.4 20.8 6.5 0 13-21.6 7.2-1.4 6.5-9.4 3.6-18-.7-19.4Z" style="fill:#d40000;stroke-width:.0249331"/><path d="M17.3 3.3h-.8c0 1.4-2.1 2.8-2.8.7-2.2 2.9 5 2.1 3.6-.7z" style="fill:#fff;stroke-width:.0249331"/><path d="M7.2 4.7C-2.1 6.9 0 11.9.7 13.3c.8-8.6 15.1 0 18.7-6.4-5 2.1-11.5-5-7.2-3 4.3-5 20.1-.6 13 7.3-.8 1.4-14.4 9.3-4.3 7.1-6.5-.7 7.1-3.5 7.9-7.1 0 2.8-2.2 4.3-4.4 5.7C45.3 3.3 13-6 7.2 4.7Z" style="fill:#fff;stroke-width:.0249331"/></svg>