<svg width="90.715" height="71.377" xmlns="http://www.w3.org/2000/svg"><path style="fill:#fff;fill-opacity:1;stroke:none;stroke-width:2.64472;stroke-opacity:.996078" d="M73.818 70.141c-9.248-28.724-10.12-43.624-9.643-7.524-9.214-20.143-4.064-20.672-11.774-1.44-4.822-22.455.29-25.094-12.734-8.393 1.963-6.395 4.09-16.945 4.068-23.708 35.156 21.37-.34-4.552-13.034-13.156 6.627.608 18.348 7.855 22.59 3.813 1.585-2.046-1.136-4.382-2.569-2.164 1.652-2.727 5.78-2.136 8.043-.299.535-5.14 1.432-3.769 11.65-1.31-8.425-7.475-25.15-9.775-34.33-4.907-1.366-8.539-11.442-5.806-9.362-8.043C52.306-10.546 97.27 26.867 73.318 13.402c7.012 8.203 14.534 20.967 16.29 33.295-2.803-4.733-5.558-9.922-10.366-12.882 5.983 8.141 10.744 27.978 11.473 37.562-20.09-38.012-9.705-33.92-16.897-1.236z"/><path style="fill:#fff;fill-opacity:1;stroke:none;stroke-width:2.64472;stroke-opacity:.996078" d="M42.843 12.321c-.373 1.503 3.013 4.84 3.735-.047-.065-.208 3.037-.455 3.481-.283-4.635 7.658-9.965 1.26-7.216.33zM24.052 9.743c-.255.826-.468 1.489-.57 2.842C7.658 17.962 3.74 19.565 0 25.842 2.86 15.446 15.971 12.339 24.052 9.743z"/><path style="fill:#fff;fill-opacity:1;stroke:none;stroke-width:.935049;stroke-opacity:.996078" d="M7.014 26.681c10.727-3.837 17.02-4.015 26.905.085-1.61-.236-3.215-.605-4.844-.76-8.064-.967-9.3-1.339-22.04.724l-.025-.018z"/></svg>