<svg width="90.715" height="71.377" xmlns="http://www.w3.org/2000/svg"><path style="fill:#fff;fill-opacity:1;stroke:none;stroke-width:2.64472;stroke-opacity:.996078" d="M39.797 0C35.19.018 30.72.892 26.723 3.01c-2.08 2.237 7.997-.496 9.363 8.043 9.18-4.868 25.903-2.567 34.328 4.908-10.218-2.46-11.113-3.831-11.648 1.309-2.263-1.837-6.391-2.429-8.043.298 1.433-2.218 4.153.118 2.568 2.164-4.242 4.042-15.963-3.204-22.59-3.812 12.694 8.604 48.19 34.526 13.033 13.156.022 6.763-2.103 17.312-4.066 23.707 13.024-16.7 7.91-14.06 12.732 8.395 7.71-19.232 2.562-18.704 11.776 1.44-.477-36.1.394-21.201 9.642 7.523 7.192-32.684-3.193-36.776 16.897 1.236-.73-9.584-5.49-29.422-11.473-37.563 4.808 2.96 7.562 8.15 10.365 12.883-1.756-12.328-9.277-25.092-16.289-33.295C93.528 24.763 64.674-.097 39.797 0zM24.053 9.742C15.972 12.338 2.86 15.446 0 25.842c3.74-6.277 7.658-7.88 23.482-13.256.102-1.353.316-2.018.57-2.844zm25.265 2.192c-1.056.006-2.789.183-2.74.34-.722 4.886-4.107 1.55-3.734.046-2.75.93 2.58 7.328 7.215-.33-.111-.043-.388-.059-.74-.056zM20.783 23.748c-4.15.012-8.406 1.015-13.77 2.934l-.003.03.025.018c12.74-2.063 13.975-1.691 22.04-.724 1.628.155 3.235.524 4.845.76-4.943-2.05-8.987-3.03-13.137-3.018z"/></svg>