<svg width="48" height="44.773" xmlns="http://www.w3.org/2000/svg"><path style="fill:#fff" d="M3619.79-5855.158c-379.46 81.844-304.243 299.596-252.908 356.794 20.953-345.17 597.018-.247 746.453-255.608-210.54 90.707-485.62-197.404-307.326-113.679 185.389-221.402 802.17-29.97 515.324 283.409-30.238 52.925-555.8 367.82-168.323 275.305-241.805-8.147 298.017-134.242 325.335-291.963 8.644 115.377-98.42 173.006-177.609 255.777 839.75-574.019-457.309-927.547-680.947-510.035zm410.762-53.744-56.67 15.589c22.24 48.462-74.158 94.486-90.212 24.143-100.822 112.903 202.806 71.467 146.882-39.732zm-313.235 316.894c208.968 258.315-103.387 604.08-244.972 834.075 259.97 12.142 518.668-860.553 271.386-46.428 274.701-391.997 144.015-717.498-26.414-787.647zm461.72 324.603c-116.296 3.47 196.838 343.168-136.385 25.719 113.665 174 227.378 380.535 412.17 482.684l3.826.957c-57.544-83.448-463.085-685.052 248.686-.9-132.879-166.132-407.317-512.07-528.296-508.46z" transform="matrix(.0347 0 0 .0347 -115.372 209.901)"/></svg>