<?xml version="1.0" encoding="UTF-8" standalone="no"?>
<svg
   width="49.999996"
   height="50"
   version="1.1"
   id="svg1"
   sodipodi:docname="eagle-logo-preview.svg"
   inkscape:version="1.3.2 (091e20ef0f, 2023-11-25, custom)"
   xmlns:inkscape="http://www.inkscape.org/namespaces/inkscape"
   xmlns:sodipodi="http://sodipodi.sourceforge.net/DTD/sodipodi-0.dtd"
   xmlns="http://www.w3.org/2000/svg"
   xmlns:svg="http://www.w3.org/2000/svg">
  <defs
     id="defs1" />
  <sodipodi:namedview
     id="namedview1"
     pagecolor="#ffffff"
     bordercolor="#000000"
     borderopacity="0.25"
     inkscape:showpageshadow="2"
     inkscape:pageopacity="0.0"
     inkscape:pagecheckerboard="0"
     inkscape:deskcolor="#d1d1d1"
     inkscape:zoom="5.0436416"
     inkscape:cx="-34.796287"
     inkscape:cy="-13.284053"
     inkscape:window-width="3072"
     inkscape:window-height="1644"
     inkscape:window-x="0"
     inkscape:window-y="0"
     inkscape:window-maximized="1"
     inkscape:current-layer="svg1" />
  <g
     id="g2">
    <ellipse
       style="fill:#1a1a1a;stroke:#d9d9d9;stroke-width:0.472569"
       id="path2"
       cx="24.999998"
       cy="25"
       rx="24.763714"
       ry="24.763716" />
    <path
       style="fill:#f9f9f9;fill-opacity:1;stroke:none;stroke-width:1.00152;stroke-opacity:0.996078"
       d="m 22.894307,11.485272 c -1.74461,0.0068 -3.43734,0.337789 -4.95096,1.139849 -0.78767,0.847123 3.02836,-0.187829 3.54565,3.045782 3.47635,-1.84345 9.80914,-0.972091 12.99958,1.858597 -3.86943,-0.931571 -4.20835,-1.450751 -4.41095,0.495702 -0.85697,-0.695649 -2.42019,-0.919832 -3.04578,0.112849 4.20721,2.350512 -5.19181,-0.329458 -7.58208,-0.624077 4.80706,3.258226 18.24894,13.074558 4.93543,4.98201 0.008,2.561063 -0.79638,6.555835 -1.53974,8.97754 4.93202,-6.324078 2.99542,-5.324343 4.82145,3.17908 2.91967,-7.282914 0.97019,-7.082967 4.45942,0.54531 -0.18064,-13.670612 0.1492,-8.02855 3.6513,2.848864 2.72352,-12.377015 -1.20915,-13.926604 6.39868,0.468058 -0.27644,-3.629339 -2.07899,-11.141738 -4.34468,-14.224631 1.82073,1.120914 2.86363,3.086301 3.92509,4.878628 -0.66497,-4.668457 -3.51308,-9.502022 -6.16843,-12.608394 7.65327,4.302267 -3.27338,-5.1119 -12.69398,-5.075167 z m -5.96205,3.689172 c -3.06018,0.983072 -8.0255197,2.160032 -9.1085697,6.096866 1.41629,-2.377021 2.8999897,-2.984057 8.8923397,-5.01988 0.0386,-0.512364 0.11966,-0.764191 0.21585,-1.076986 z m 8.52993,0.958836 c -0.27341,1.850266 -1.55527,0.586965 -1.41402,0.01742 -1.04139,0.352179 0.97701,2.77502 2.73223,-0.124967 -0.43019,-0.06551 -0.95354,0.03711 -1.31821,0.107547 z m -14.97443,5.474304 c 4.27992,-0.765706 6.72435,-0.502897 10.181,0.01363 -3.88268,-1.801416 -6.83151,-1.226947 -10.181,-0.01363 z"
       id="path1" />
  </g>
</svg>
