<svg xmlns="http://www.w3.org/2000/svg" width="281.2" height="40"><path d="M14 237.5c0-.6.3-1 .9-1 .5 0 1-.2 1.2-.4.5-.8.8-32.1.3-33.7-.2-.9-.7-1.4-1.4-1.5-.6-.1-1-.5-1-1 0-1 .3-1 5.5-.8 4.4 0 5.4.2 5.4.8 0 .3-.5.8-1.2 1l-1.1.2-.1 14.8v16.4c.3 1 .8 1.8 1.8 2.4 1.3.8 2.2 1 7 .8 6.5-.1 7.1-.5 8-4.9.3-1.7.8-2.6 1.2-2.6.5 0 .7.9.8 4.1l-.1 5.3-.3 1H27.4c-13 0-13.4 0-13.4-1zm29.5.2c-.2-.5.1-.9 1-1.2 1.7-.6 1.2.5 10-21.8 3.5-8.5 6.6-15.7 7-16 .5-.3.9-.3 1.1 0 .3.3 3.7 8.7 7.8 18.8 7 17.5 7.4 18.3 8.9 18.9 1 .4 1.4.8 1.2 1.3-.4 1-9.3 1-9.7 0-.2-.5 0-1 .3-1.2.5-.3 0-2-2.4-8l-3.1-7.5H55.3l-3.1 7.6c-2.4 5.8-3 7.6-2.5 8 .4.1.5.6.3 1-.4 1.1-6 1.1-6.5 0zM64.1 218c0-.7-3.5-9.4-3.8-9.4-.1 0-.7 1.1-1.2 2.4l-1.9 5-1 2.3h4c2.1 0 4-.1 4-.3zM93 237.9A22 22 0 0 1 75.7 221a19 19 0 0 1 6-16.3 24.2 24.2 0 0 1 23.1-5.3c4.5 1.1 5.4 1.8 6.2 4.4.8 3 .2 3.4-2 1.4-4.5-4-11.4-5.5-16.8-3.4-5.5 2-9.4 7.4-10.5 14.3-1.2 8.1 2.2 15.4 8.7 18.2 3 1.2 8.1 1.9 11.9 1.5 3.7-.3 3.7-.4 3.5-6-.2-3.4-.3-3.7-1.3-4.3-.7-.3-1.2-.8-1.2-1.1 0-.5 1.3-.6 5.3-.6 4.8 0 5.4 0 5.5.8.1.6-.1.8-.8.8-1.4 0-1.9 1.4-1.9 5.6 0 4.1.5 5.5 2 5.5.6 0 .8.3.7.9-.1.7-1 .8-9.4.8-5.1 0-10.4 0-11.8-.3zm25.3-.2c-.1-.4 0-.8.4-1 .4 0 1-.2 1.4-.4 1-.3 1.2-2.6 1.1-15.7 0-17.9-.2-19-3.7-19.7-1-.2-1.6-.6-1.6-1 0-.6.9-.7 4-.8l4-.2 13.7 14.7 13.9 14.6-.2-13.6-.1-13.6-1-.1c-.7-.1-1-.5-1-1 0-1 .2-1 4-.8 3.2 0 4 .2 4 .8 0 .3-.5.8-1.1 1a2 2 0 0 0-1.5 1.3c-.2.7-.3 9-.3 18.6 0 13.9-.2 17.4-.6 17.5-.4 0-7.1-6.9-15-15.3l-14.4-15.3-.1 13.6v14.2c.2.3.8.8 1.5 1 2.3 1 1 1.7-3.1 1.8-3.3.1-4 0-4.3-.6zm42.3.4c-.7-.6-.3-1.6.6-1.6.5 0 1-.4 1.4-.9.5-1 .7-32.3.1-33.6-.1-.4-.7-1-1.4-1.2-.6-.2-1-.8-1-1.2 0-.6.7-.7 5.4-.5 4.4 0 5.5.2 5.5.8 0 .3-.6.8-1.2 1l-1.2.2v17c-.2 17.9-.2 18.4 1.8 18.4.6 0 .8.3.7.9-.1.7-.8.8-5.3.9-2.8 0-5.2 0-5.4-.2zm13.3-.2c-.3-.6.2-1.4 1-1.4.3 0 .9-.3 1.3-.8.4-.4 4-9 7.9-18.9 4.3-10.8 7.4-18.1 7.8-18.2.4 0 .9.1 1.1.5.4.4 7.1 16.8 14.4 35 .4 1 1.1 1.8 2 2.1.9.3 1.4.8 1.3 1.3-.2 1-9.1 1.3-9.7.3-.2-.3 0-.8.4-1.1.6-.5.3-1.5-2.4-8.3l-3.2-7.7-5 .2-5.2.1-3 7.1c-3 7.5-3.2 8.2-2.3 8.5.3.1.4.6.2 1-.2.6-.9.8-3.3.8-1.6 0-3.1-.2-3.3-.5zm20.7-19.8c0-.5-3.8-10-4-9.8-.2.2-3.9 9.6-3.9 10l4 .1c2.1 0 3.9-.1 3.9-.3zm19.3 20c-.6-.6-.3-1.6.6-1.6.5 0 1.1-.4 1.4-.9.5-1 .7-32.3.2-33.6-.2-.4-.8-1-1.4-1.2-.7-.3-1-.7-1-1a54 54 0 0 1 15.8-.4c6.5.9 9.4 4 9.4 10 0 3-.2 3.6-1.4 5.4-1.7 2.4-4.8 4-8.2 4.4-3.2.4-4.5 0-3.6-1 .3-.4 1.1-.7 1.8-.7 1.5 0 4-1.5 5-3 1.1-1.8 1-6.3 0-8.7-1.4-2.8-3.2-3.8-7.2-4l-3.3-.2v16.8c0 9.1 0 17 .2 17.4.2.4.8.7 1.5.7.8 0 1 .3 1 .9-.2.7-.9.8-5.3.9-2.8 0-5.3 0-5.5-.2zm27 0c-.7-.6-.4-1.6.5-1.6.5 0 1.2-.4 1.4-.9.3-.6.5-6.6.4-17.5l-.1-16.6-1.2-.5c-.6-.4-1.1-.9-1.1-1.2 0-.5 1.8-.6 8.5-.6 8.3 0 8.7 0 11.3 1.2 3.9 1.8 5.2 4 5.2 8.8 0 3.2-.1 3.8-1.4 5.6-1.8 2.6-4.9 4.1-8.8 4.5-2.9.2-3.1.1-3-.7.2-.6.8-1 2-1.1 3.9-.7 6-3.7 5.7-8-.4-5.2-2.7-7.4-8-7.7l-3.4-.2v17c0 17.6 0 18 2 18 .5 0 .8.2.7.8-.2.7-.9.8-5.3.9-2.8 0-5.3 0-5.5-.2zm27.8 0c-.7-.7-.3-1.5.7-1.6l1-.2.2-17.5v-17.5l-1-.5c-.7-.2-1.2-.8-1.2-1.1 0-.7 1.4-.7 12.4-.6H293l.1 3.3c.1 2.7 0 3.1-.6 3-.5-.1-1-1-1.4-1.8l-.5-1.6-7-.2h-7V217h6.4c4 0 6.5-.2 6.5-.5s.3-.5.7-.5c.8 0 1.4 2 1 3.5-.3 1.1-1.7 1.7-1.7.7 0-.3-2.5-.5-6.5-.5h-6.5v7.2c0 6.3.1 7.2.9 7.8.7.7 2 .8 7.6.8 6.2 0 7 0 7.7-1 .6-.4 1-1.3 1-1.8s.3-.9.7-.9c.5 0 .7.7.7 3.2v3.3H282c-7.2 0-13.3-.1-13.4-.3z" style="fill:#522e7a;fill-opacity:1;stroke-width:.463976" transform="translate(-14 -198.5)"/></svg>