<svg width="281.17" height="40" xmlns="http://www.w3.org/2000/svg"><path style="fill:#522e7a;fill-opacity:1;stroke-width:.463976" d="M14 237.467c0-.609.31-.928.9-.928.496 0 1.037-.22 1.203-.488.473-.766.777-32.058.326-33.614-.265-.913-.752-1.443-1.416-1.54-.647-.095-1.013-.478-1.013-1.059 0-.86.3-.903 5.452-.78 4.402.106 5.452.261 5.452.806 0 .372-.522.798-1.16.949l-1.16.274-.134 14.826c-.074 8.155-.01 15.515.14 16.357.19 1.05.741 1.82 1.759 2.455 1.3.811 2.15.908 6.923.79 6.49-.162 7.156-.565 8.015-4.867.352-1.765.764-2.692 1.196-2.692.511 0 .69.94.796 4.175.075 2.297.02 4.646-.125 5.22l-.26 1.044H27.446c-13.138 0-13.447-.021-13.447-.928zm29.517.206c-.194-.504.13-.863 1.072-1.191 1.566-.547 1.065.546 9.969-21.741 3.413-8.545 6.535-15.743 6.938-15.997.476-.3.873-.304 1.135-.008.222.25 3.712 8.675 7.755 18.724 7.073 17.58 7.408 18.295 8.874 18.907 1.04.435 1.439.858 1.256 1.333-.406 1.058-9.353 1.015-9.76-.047-.158-.409-.003-.918.343-1.132.498-.308-.008-1.956-2.447-7.956l-3.076-7.569H55.268l-3.074 7.584c-2.366 5.836-2.936 7.67-2.472 7.957.332.205.475.707.318 1.116-.406 1.06-6.117 1.078-6.523.02zm20.604-19.577c.02-.656-3.49-9.395-3.774-9.395-.156 0-.709 1.096-1.227 2.436-.519 1.34-1.38 3.532-1.914 4.871l-.97 2.436h3.937c2.165 0 3.942-.156 3.948-.348zm28.811 19.78c-8.29-1.392-15.753-8.682-17.26-16.86-1.002-5.435 1.304-11.731 5.985-16.343 5.627-5.543 14.45-7.554 23.184-5.286 4.442 1.154 5.402 1.84 6.11 4.37.846 3.02.284 3.435-1.935 1.43-4.482-4.05-11.412-5.46-16.812-3.423-5.515 2.08-9.415 7.402-10.487 14.31-1.264 8.149 2.209 15.403 8.708 18.189 2.897 1.242 8.085 1.924 11.85 1.558 3.69-.358 3.707-.387 3.498-5.999-.127-3.417-.226-3.742-1.297-4.275-.638-.317-1.16-.844-1.16-1.172 0-.45 1.301-.595 5.329-.595 4.707 0 5.348.095 5.486.812.107.559-.139.812-.79.812-1.425 0-1.906 1.404-1.906 5.568 0 4.163.481 5.567 1.906 5.567.651 0 .897.253.79.812-.142.739-.997.818-9.43.879-5.1.036-10.396-.123-11.769-.353zm25.295-.177c-.166-.431.002-.819.408-.945.378-.118.971-.301 1.318-.407 1.052-.32 1.227-2.65 1.187-15.757-.056-17.844-.279-19.02-3.738-19.728-.911-.186-1.56-.6-1.56-.996 0-.53.857-.705 3.945-.807l3.944-.13 13.81 14.644 13.81 14.646-.123-13.587-.123-13.587-1.044-.148c-.679-.097-1.044-.468-1.044-1.062 0-.85.285-.905 4.06-.78 3.182.105 4.06.28 4.06.81 0 .37-.515.796-1.143.944a2.052 2.052 0 0 0-1.467 1.413c-.178.629-.332 8.973-.341 18.542-.014 13.922-.138 17.417-.621 17.487-.332.048-7.076-6.804-14.987-15.228l-14.384-15.315-.123 13.598c-.067 7.48-.02 13.865.104 14.19.125.327.772.8 1.437 1.053 2.322.883 1.019 1.608-3.139 1.747-3.263.11-4.015.004-4.246-.597zm42.25.401c-.647-.646-.303-1.56.587-1.56.502 0 1.128-.405 1.392-.898.526-.982.698-32.33.185-33.667-.162-.423-.789-.957-1.392-1.186-.603-.23-1.096-.742-1.096-1.14 0-.62.77-.703 5.451-.59 4.402.105 5.452.26 5.452.805 0 .372-.522.798-1.16.949l-1.16.274-.122 17.092c-.126 17.809-.071 18.36 1.837 18.36.612 0 .855.263.75.812-.136.705-.83.83-5.279.943-2.817.071-5.268-.016-5.446-.194zm13.363-.169c-.374-.605.125-1.392.883-1.392.329 0 .93-.367 1.336-.816.406-.449 3.97-8.957 7.92-18.907 4.31-10.856 7.446-18.145 7.843-18.227.364-.074.868.134 1.119.464.356.468 7.062 16.846 14.366 35.088.4 1 1.117 1.733 2.032 2.078.855.323 1.36.813 1.28 1.239-.184.957-9.12 1.303-9.705.375-.232-.366-.097-.808.348-1.142.641-.48.359-1.452-2.393-8.25l-3.12-7.706-5.113.13-5.112.131-2.942 7.152c-3.086 7.501-3.283 8.2-2.395 8.496.306.102.415.53.247.967-.24.624-.913.784-3.304.784-1.652 0-3.132-.209-3.29-.464zm20.649-19.835c.003-.524-3.81-9.918-3.963-9.762-.184.187-3.927 9.613-3.927 9.888 0 .122 1.775.222 3.944.222 2.17 0 3.945-.156 3.946-.348zm19.345 20.004c-.647-.646-.302-1.56.588-1.56.5 0 1.127-.405 1.391-.898.526-.982.698-32.33.186-33.667-.163-.423-.806-.963-1.43-1.2-.624-.237-1.048-.691-.943-1.009.249-.748 11.243-1.019 15.792-.389 6.456.895 9.379 4.042 9.379 10.096 0 2.946-.16 3.55-1.397 5.31-1.714 2.44-4.769 4.086-8.245 4.445-3.185.329-4.408-.02-3.577-1.021.315-.38 1.121-.692 1.792-.692 1.578-.002 3.96-1.467 5.022-3.088 1.128-1.721 1.102-6.27-.05-8.635-1.341-2.756-3.178-3.784-7.115-3.982l-3.366-.17v16.716c0 9.193.127 17.046.282 17.45.155.403.797.733 1.426.733.84 0 1.103.216.989.812-.135.705-.83.83-5.278.943-2.818.071-5.268-.016-5.446-.194zm26.91 0c-.646-.646-.302-1.56.588-1.56.502 0 1.13-.41 1.398-.91.32-.597.444-6.59.364-17.5l-.122-16.594-1.16-.578c-.638-.318-1.16-.846-1.16-1.173 0-.464 1.895-.59 8.584-.57 8.24.024 8.69.073 11.218 1.234 3.913 1.797 5.253 4.031 5.253 8.756 0 3.24-.135 3.781-1.396 5.576-1.844 2.626-4.87 4.16-8.837 4.478-2.837.228-3.07.178-2.916-.624.116-.604.712-.961 1.933-1.16 3.886-.631 6.07-3.67 5.722-7.96-.424-5.204-2.737-7.436-7.985-7.7l-3.456-.175v16.893c0 17.617.043 18.006 1.983 18.006.578 0 .817.273.713.812-.135.705-.829.83-5.278.943-2.817.071-5.268-.016-5.446-.194zm27.824-.014c-.647-.647-.268-1.488.735-1.63l1.044-.149.122-17.524.121-17.525-1.165-.443c-.641-.243-1.166-.765-1.166-1.158 0-.63 1.488-.7 12.411-.591l12.412.123.138 3.17c.121 2.783.041 3.152-.655 3.016-.436-.085-1.039-.885-1.339-1.778l-.546-1.624-7.035-.128-7.034-.128v15.335h6.495c4.021 0 6.496-.176 6.496-.464 0-.255.31-.464.687-.464.84 0 1.374 1.903.978 3.48-.276 1.1-1.665 1.68-1.665.696 0-.287-2.475-.464-6.496-.464h-6.495v7.12c0 6.308.096 7.207.848 7.887.709.642 1.973.768 7.656.768 6.188 0 6.891-.084 7.735-.928.51-.51.928-1.345.928-1.856 0-.515.31-.927.696-.927.552 0 .696.67.696 3.247v3.248h-13.146c-7.23 0-13.285-.139-13.456-.31z" transform="translate(-14 -198.471)"/></svg>