<svg width="606" height="86.211" xmlns="http://www.w3.org/2000/svg"><path style="fill:#522e7a;fill-opacity:1" d="M14 282.519c0-1.313.667-2 1.941-2 1.068 0 2.234-.474 2.591-1.052 1.02-1.652 1.675-69.095.703-72.448-.57-1.968-1.62-3.11-3.052-3.32-1.394-.204-2.183-1.029-2.183-2.282 0-1.854.647-1.946 11.75-1.68 9.487.227 11.75.562 11.75 1.737 0 .8-1.125 1.72-2.5 2.044l-2.5.59-.289 31.955c-.159 17.576-.022 33.44.304 35.253.408 2.264 1.596 3.923 3.79 5.292 2.803 1.749 4.633 1.958 14.92 1.702 13.99-.348 15.423-1.218 17.275-10.49.76-3.803 1.648-5.801 2.58-5.801 1.1 0 1.486 2.027 1.714 9 .162 4.95.04 10.012-.269 11.25l-.563 2.25h-28.98c-28.315 0-28.982-.046-28.982-2zm63.617.444c-.417-1.087.279-1.86 2.31-2.569 3.377-1.177 2.297 1.179 21.486-46.857 7.357-18.416 14.086-33.93 14.954-34.478 1.027-.648 1.882-.654 2.447-.018.478.538 7.999 18.698 16.713 40.356 15.245 37.891 15.967 39.43 19.126 40.75 2.241.936 3.101 1.849 2.709 2.872-.875 2.28-20.16 2.188-21.039-.101-.338-.88-.004-1.978.741-2.439 1.075-.664-.018-4.216-5.274-17.149l-6.628-16.311h-22.217l-6.627 16.345c-5.099 12.578-6.327 16.531-5.326 17.15.715.441 1.023 1.523.685 2.404-.876 2.283-13.186 2.323-14.06.045zm44.407-42.194c.045-1.415-7.52-20.25-8.133-20.25-.337 0-1.528 2.362-2.645 5.25a1370.667 1370.667 0 0 1-4.124 10.5l-2.093 5.25h8.486c4.667 0 8.496-.338 8.51-.75zm62.098 42.633c-17.87-3.002-33.953-18.713-37.202-36.341-2.159-11.713 2.812-25.284 12.9-35.223 12.127-11.946 31.143-16.281 49.969-11.392 9.573 2.486 11.641 3.966 13.168 9.418 1.822 6.509.613 7.402-4.17 3.08-9.66-8.727-24.597-11.768-36.236-7.377-11.886 4.484-20.292 15.955-22.602 30.843-2.725 17.563 4.76 33.197 18.768 39.202 6.245 2.677 17.425 4.147 25.54 3.359 7.954-.773 7.99-.834 7.54-12.93-.274-7.364-.487-8.065-2.797-9.213-1.375-.684-2.5-1.82-2.5-2.526 0-.97 2.806-1.283 11.486-1.283 10.145 0 11.526.204 11.824 1.75.232 1.204-.299 1.75-1.701 1.75-3.072 0-4.109 3.027-4.109 12 0 8.973 1.037 12 4.109 12 1.402 0 1.933.545 1.701 1.75-.305 1.591-2.149 1.763-20.323 1.893-10.993.079-22.407-.264-25.365-.76zm54.516-.384c-.356-.93.004-1.764.879-2.037.816-.254 2.094-.649 2.841-.876 2.267-.692 2.646-5.714 2.558-33.961-.12-38.46-.6-40.995-8.055-42.52-1.965-.402-3.36-1.293-3.36-2.146 0-1.142 1.845-1.52 8.5-1.74l8.5-.282 29.764 31.565 29.765 31.565-.265-29.284-.265-29.283-2.25-.32c-1.463-.208-2.25-1.008-2.25-2.289 0-1.83.614-1.949 8.75-1.68 6.858.226 8.75.603 8.75 1.744 0 .8-1.108 1.716-2.463 2.036-1.485.35-2.741 1.56-3.162 3.045-.384 1.355-.715 19.339-.735 39.964-.03 30.004-.297 37.538-1.338 37.689-.716.104-15.252-14.665-32.302-32.82l-31-33.009-.265 29.308c-.146 16.12-.045 29.883.224 30.585.27.702 1.663 1.723 3.097 2.268 5.003 1.902 2.195 3.465-6.765 3.766-7.035.236-8.655.008-9.153-1.288zm91.06.865c-1.393-1.393-.65-3.364 1.267-3.364 1.08 0 2.43-.87 3-1.935 1.133-2.116 1.504-69.68.399-72.56-.35-.912-1.7-2.063-3-2.557-1.3-.494-2.364-1.6-2.364-2.455 0-1.337 1.662-1.517 11.75-1.275 9.487.227 11.75.562 11.75 1.737 0 .8-1.125 1.72-2.5 2.044l-2.5.59-.262 36.838c-.274 38.384-.155 39.573 3.958 39.573 1.319 0 1.842.566 1.615 1.75-.29 1.52-1.787 1.787-11.375 2.03-6.072.155-11.355-.032-11.738-.416zm28.802-.364c-.806-1.305.27-3 1.904-3 .707 0 2.002-.792 2.878-1.76.875-.966 8.557-19.304 17.07-40.75 9.289-23.397 16.05-39.107 16.906-39.283.784-.161 1.869.289 2.41 1 .768 1.008 15.22 36.306 30.964 75.623.863 2.156 2.407 3.736 4.38 4.48 1.842.695 2.931 1.75 2.756 2.67-.395 2.063-19.653 2.807-20.917.808-.498-.79-.207-1.742.752-2.46 1.381-1.034.773-3.132-5.159-17.782l-6.724-16.61-11.02.282-11.018.282-6.341 15.414c-6.65 16.167-7.075 17.674-5.16 18.312.658.22.893 1.14.53 2.084-.516 1.345-1.966 1.69-7.12 1.69-3.56 0-6.75-.45-7.09-1zm44.505-42.75c.007-1.13-8.213-21.376-8.543-21.04-.395.402-8.462 20.717-8.462 21.31 0 .264 3.825.48 8.5.48s8.502-.338 8.505-.75zm41.693 43.114c-1.393-1.393-.65-3.364 1.267-3.364 1.08 0 2.43-.87 3-1.935 1.133-2.116 1.504-69.68.399-72.56-.35-.912-1.737-2.077-3.082-2.588-1.344-.511-2.258-1.49-2.031-2.173.536-1.614 24.23-2.197 34.036-.838 13.913 1.928 20.213 8.71 20.213 21.758 0 6.35-.342 7.65-3.009 11.445-3.696 5.258-10.279 8.807-17.77 9.58-6.866.709-9.501-.044-7.711-2.201.68-.819 2.417-1.49 3.863-1.492 3.401-.005 8.533-3.16 10.823-6.655 2.43-3.71 2.375-13.514-.107-18.611-2.891-5.939-6.85-8.154-15.334-8.583L462 205.3v36.028c0 19.815.273 36.739.607 37.609.334.87 1.717 1.582 3.073 1.582 1.81 0 2.378.465 2.131 1.75-.29 1.52-1.787 1.787-11.375 2.03-6.072.155-11.355-.032-11.738-.416zm58 0c-1.393-1.393-.65-3.364 1.267-3.364 1.08 0 2.436-.881 3.013-1.958.689-1.288.958-14.204.785-37.721l-.263-35.763-2.5-1.246c-1.375-.685-2.5-1.823-2.5-2.53 0-1 4.084-1.27 18.5-1.228 17.758.053 18.728.16 24.177 2.662 8.434 3.872 11.323 8.687 11.323 18.87 0 6.982-.292 8.15-3.009 12.019-3.974 5.66-10.496 8.965-19.046 9.651-6.114.491-6.618.383-6.285-1.346.25-1.3 1.533-2.07 4.166-2.498 8.375-1.362 13.084-7.913 12.332-17.157-.912-11.216-5.9-16.027-17.209-16.598L520 205.3v36.41c0 37.969.093 38.809 4.273 38.809 1.246 0 1.761.586 1.539 1.75-.292 1.52-1.788 1.787-11.376 2.03-6.072.155-11.355-.032-11.738-.416zm59.969-.031c-1.395-1.395-.578-3.207 1.583-3.514l2.25-.32.262-37.77.262-37.77-2.512-.955c-1.381-.525-2.512-1.648-2.512-2.496 0-1.356 3.207-1.51 26.75-1.275l26.75.267.298 6.832c.26 5.998.088 6.792-1.412 6.5-.94-.183-2.238-1.907-2.885-3.832l-1.177-3.5-15.162-.276-15.162-.276v33.052h14c8.667 0 14-.381 14-1 0-.55.667-1 1.481-1 1.809 0 2.962 4.1 2.109 7.5-.595 2.37-3.59 3.622-3.59 1.5 0-.62-5.333-1-14-1h-14v15.345c0 13.596.209 15.533 1.829 17 1.527 1.381 4.251 1.655 16.5 1.655 13.338 0 14.853-.182 16.671-2 1.1-1.1 2-2.9 2-4 0-1.111.667-2 1.5-2 1.19 0 1.5 1.444 1.5 7v7h-28.333c-15.584 0-28.634-.3-29-.667z" transform="translate(-14 -198.471)"/></svg>