<svg id="gnt_svg_lg" fill="#009BFF" class="gnt_n_lg_svg" preserveAspectRatio="xMinYMid meet" viewBox="0 0 561.17 45.5"><path d="M14.99 33.09L7.63 16.03v20.05H.17V3.77h9.88l8.46 20.2 8.22-20.2h9.88v32.31h-7.37V15.79l-7.46 17.3h-6.79zm39.83 3.61c-2.6 0-4.89-.55-6.87-1.64a12.12 12.12 0 01-6.35-11.1c0-2.5.56-4.7 1.69-6.61a11.93 11.93 0 014.66-4.47 14.12 14.12 0 016.87-1.62c2.6 0 4.89.54 6.87 1.62a12 12 0 014.66 4.47c1.12 1.9 1.69 4.1 1.69 6.61 0 2.5-.56 4.7-1.69 6.61a12.05 12.05 0 01-4.66 4.49 13.96 13.96 0 01-6.87 1.64zm0-6.55c1.46 0 2.62-.56 3.49-1.69a7.13 7.13 0 001.31-4.49c0-1.87-.44-3.36-1.31-4.47a4.21 4.21 0 00-3.49-1.66 4.2 4.2 0 00-3.49 1.66 7.05 7.05 0 00-1.31 4.47c0 1.87.44 3.37 1.31 4.49a4.19 4.19 0 003.49 1.69zm25.8-7.42v13.35h-8.27V11.9h7.56l.43 3.18a8.95 8.95 0 013.09-2.76 8.5 8.5 0 014.18-1.05c2.63 0 4.74.86 6.32 2.57s2.38 4.17 2.38 7.37v14.87h-8.27V22.16c0-1.43-.32-2.48-.95-3.16a3.45 3.45 0 00-2.66-1.02c-1.14 0-2.06.36-2.76 1.09-.7.73-1.05 1.95-1.05 3.66zm38.87 11.79a13.2 13.2 0 01-7.36 2.18c-2.6 0-4.67-.75-6.2-2.26-1.54-1.5-2.3-3.52-2.3-6.06v-10.3h-3.94V11.9H104l1.05-6.75h6.84v6.75h6.32v6.18h-6.32v9.27c0 .82.25 1.47.74 1.92.49.46 1.15.69 1.97.69.41 0 .83-.08 1.26-.24a7.9 7.9 0 001.21-.57l2.42 5.37zm27.7-1c0 2.47-.57 4.59-1.71 6.34a11.07 11.07 0 01-4.73 4.04c-2.01.93-4.35 1.4-7.01 1.4a21.57 21.57 0 01-11.31-3.14l3.09-5.32c1.08.63 2.21 1.15 3.4 1.54 1.19.4 2.42.59 3.68.59 2.12 0 3.71-.48 4.75-1.43 1.05-.95 1.57-2.3 1.57-4.04v-.86a9.23 9.23 0 01-2.97 1.97 10.7 10.7 0 01-9.41-.8 10.63 10.63 0 01-3.9-4.28c-.93-1.82-1.4-3.9-1.4-6.25 0-2.38.46-4.47 1.38-6.27.92-1.81 2.2-3.21 3.85-4.23a10.7 10.7 0 015.7-1.52c1.46 0 2.81.35 4.06 1.05a8.23 8.23 0 012.97 2.76l.43-3.18h7.56v21.63zm-12.83-4.71c1.39 0 2.52-.5 3.37-1.5.86-1 1.28-2.34 1.28-4.02a6 6 0 00-1.28-4.02c-.86-1-1.98-1.5-3.37-1.5-1.43 0-2.57.5-3.42 1.5a5.95 5.95 0 00-1.28 4.02 6 6 0 001.28 3.99c.86 1.03 2 1.53 3.42 1.53zm30.37 7.89c-2.6 0-4.89-.55-6.87-1.64a12.12 12.12 0 01-6.35-11.1c0-2.5.56-4.7 1.69-6.61a11.93 11.93 0 014.66-4.47 14.12 14.12 0 016.87-1.62c2.6 0 4.89.54 6.87 1.62a12 12 0 014.66 4.47c1.12 1.9 1.69 4.1 1.69 6.61 0 2.5-.56 4.7-1.69 6.61a12.05 12.05 0 01-4.66 4.49 13.9 13.9 0 01-6.87 1.64zm0-6.55c1.46 0 2.62-.56 3.49-1.69a7.13 7.13 0 001.31-4.49c0-1.87-.44-3.36-1.31-4.47a4.21 4.21 0 00-3.49-1.66 4.2 4.2 0 00-3.49 1.66 7.05 7.05 0 00-1.31 4.47c0 1.87.44 3.37 1.31 4.49a4.2 4.2 0 003.49 1.69zm25.8-7.99v13.92h-8.27V11.9h7.6l.43 3.09a7.2 7.2 0 012.85-2.66 8.1 8.1 0 013.75-.9c1.43 0 2.72.32 3.9.95a7.65 7.65 0 012.85 2.66 8.3 8.3 0 013.35-2.69 10.5 10.5 0 014.35-.93c1.68 0 3.16.39 4.44 1.16a8.18 8.18 0 013.02 3.23 10.06 10.06 0 011.09 4.78v15.49h-8.27V21.45c0-1.01-.28-1.82-.83-2.42-.55-.6-1.26-.9-2.11-.9a3.3 3.3 0 00-2.52 1c-.63.67-.95 1.68-.95 3.04v13.92h-8.27V21.45c0-1.01-.27-1.82-.81-2.42a2.8 2.8 0 00-2.19-.9c-1.01 0-1.84.33-2.47 1-.62.66-.94 1.67-.94 3.03zm57.5 11.45a19.1 19.1 0 01-10.51 3.09c-2.88 0-5.35-.53-7.39-1.59a11.27 11.27 0 01-4.7-4.44 12.96 12.96 0 01-1.64-6.56c0-2.5.54-4.72 1.62-6.65a11.75 11.75 0 014.47-4.54 13.14 13.14 0 016.65-1.64c2.47 0 4.65.53 6.53 1.59a11.38 11.38 0 014.42 4.42 13.33 13.33 0 011.52 7.72c-.05.38-.1.78-.17 1.19h-16.87c.76 2.79 2.83 4.18 6.23 4.18 1.52 0 2.87-.24 4.04-.71s2.15-.95 2.95-1.43l2.85 5.37zm-11.31-16.34c-2.69 0-4.31 1.43-4.85 4.28h9.22c-.22-1.55-.75-2.65-1.59-3.3a4.37 4.37 0 00-2.78-.98zm24.86 9.45v9.36h-8.27V11.9h7.56l.52 4.04a6.85 6.85 0 016.51-4.37c.86 0 1.5.11 1.95.33v7.56a5.63 5.63 0 00-1.16-.28c-.43-.06-.91-.1-1.45-.1-1.65 0-3 .61-4.06 1.83-1.07 1.21-1.6 3.15-1.6 5.81zm29.51 7.46c-1.46 3.74-3.12 6.53-4.99 8.36a9.75 9.75 0 01-7.13 2.76c-1.3 0-2.47-.14-3.52-.43a11.43 11.43 0 01-2.66-1.05l2.33-5.7a9 9 0 001.47.57c.54.16 1.11.24 1.71.24.86 0 1.62-.21 2.3-.62a5.03 5.03 0 001.78-2.23l.38-.85-10.92-23.33h9.12l5.37 14.49 4.42-14.49h8.98l-8.64 22.28z"/><path fill="#404040" d="M337.23 36.09l-2.04-6.03h-12.12l-2.04 6.03h-8.74l11.83-32.31h10.26l11.83 32.31h-8.98zm-11.93-12.6h7.65l-3.8-11.31-3.85 11.31zm40.77 12.6l-.43-3.18a8.36 8.36 0 01-2.95 2.78 8.35 8.35 0 01-4.18 1.02 10.24 10.24 0 01-9.6-6.11 15.17 15.17 0 01-1.38-6.63c0-2.5.46-4.7 1.38-6.61.92-1.9 2.18-3.39 3.78-4.47a9.67 9.67 0 015.54-1.62 9.1 9.1 0 017.13 3.42V1.4h8.27v34.69h-7.56zm-5.32-5.94c1.43 0 2.57-.56 3.44-1.69a7.13 7.13 0 001.31-4.49c0-1.87-.44-3.37-1.31-4.49a4.16 4.16 0 00-3.44-1.69c-1.46 0-2.62.56-3.49 1.69a7.15 7.15 0 00-1.31 4.49c0 1.87.44 3.37 1.31 4.49a4.2 4.2 0 003.49 1.69zm44-18.25l-9.36 24.19h-9.03L377 11.9h9.08l4.94 15.63 4.85-15.63h8.88zm25.43 21.71a19.1 19.1 0 01-10.51 3.09c-2.88 0-5.35-.53-7.39-1.59s-3.61-2.54-4.7-4.44-1.64-4.09-1.64-6.56c0-2.5.54-4.72 1.62-6.65a11.75 11.75 0 014.47-4.54 13.14 13.14 0 016.65-1.64c2.47 0 4.65.53 6.53 1.59a11.38 11.38 0 014.42 4.42 13.33 13.33 0 011.52 7.72c-.05.38-.1.78-.17 1.19h-16.87c.76 2.79 2.83 4.18 6.23 4.18 1.52 0 2.87-.24 4.04-.71s2.15-.95 2.95-1.43l2.85 5.37zm-11.31-16.34c-2.69 0-4.31 1.43-4.85 4.28h9.22c-.22-1.55-.75-2.65-1.59-3.3a4.4 4.4 0 00-2.78-.98zm24.85 9.45v9.36h-8.27V11.9h7.56l.52 4.04a6.85 6.85 0 016.51-4.37c.86 0 1.5.11 1.95.33v7.56a5.63 5.63 0 00-1.16-.28c-.43-.06-.91-.1-1.45-.1-1.65 0-3 .61-4.06 1.83-1.07 1.21-1.6 3.15-1.6 5.81zm30.56 7.8a13.2 13.2 0 01-7.36 2.18c-2.6 0-4.66-.75-6.2-2.26-1.54-1.5-2.3-3.52-2.3-6.06v-10.3h-3.94V11.9h4.32l1.05-6.75h6.84v6.75h6.32v6.18h-6.32v9.27c0 .82.25 1.47.74 1.92.49.46 1.15.69 1.97.69.41 0 .83-.08 1.26-.24a7.9 7.9 0 001.21-.57l2.41 5.37zm3.94 1.57V11.9c1.33.29 2.68.43 4.04.43 1.39 0 2.8-.14 4.23-.43v24.19h-8.27zm23.05.61a16.33 16.33 0 01-10.79-3.85L494 28.2a15.3 15.3 0 003.59 2.16c1.28.55 2.54.83 3.78.83.82 0 1.48-.14 1.97-.43.49-.28.74-.71.74-1.28 0-.6-.28-1.08-.83-1.45-.55-.36-1.54-.72-2.97-1.07l-2.28-.57c-4.53-1.2-6.8-3.63-6.8-7.27a6.7 6.7 0 011.33-4.18 8.59 8.59 0 013.66-2.71c1.55-.63 3.36-.95 5.42-.95 2.03 0 3.94.32 5.73.95 1.79.63 3.43 1.55 4.92 2.76l-3.61 4.75a15.5 15.5 0 00-3.52-2.14 8.7 8.7 0 00-3.47-.81c-1.74 0-2.61.57-2.61 1.71 0 .51.26.92.78 1.24s1.26.6 2.21.85l3.09.86c2.31.63 4.02 1.58 5.13 2.85a6.62 6.62 0 011.66 4.51c0 1.58-.44 2.97-1.33 4.16a8.53 8.53 0 01-3.73 2.76c-1.61.65-3.47.97-5.59.97zm37.92-3.09a19.1 19.1 0 01-10.51 3.09c-2.88 0-5.35-.53-7.39-1.59a11.27 11.27 0 01-4.7-4.44 12.96 12.96 0 01-1.64-6.56c0-2.5.54-4.72 1.62-6.65a11.75 11.75 0 014.47-4.54 13.14 13.14 0 016.65-1.64c2.47 0 4.65.53 6.53 1.59a11.38 11.38 0 014.42 4.42 13.33 13.33 0 011.52 7.72c-.05.38-.1.78-.17 1.19h-16.87c.76 2.79 2.83 4.18 6.23 4.18 1.52 0 2.87-.24 4.04-.71s2.15-.95 2.95-1.43l2.85 5.37zm-11.31-16.34c-2.69 0-4.31 1.43-4.85 4.28h9.22c-.22-1.55-.75-2.65-1.59-3.3a4.4 4.4 0 00-2.78-.98zm24.85 9.45v9.36h-8.27V11.9h7.56l.52 4.04a6.85 6.85 0 016.51-4.37c.86 0 1.5.11 1.95.33v7.56a5.63 5.63 0 00-1.16-.28c-.43-.06-.91-.1-1.45-.1-1.65 0-3 .61-4.06 1.83-1.07 1.21-1.6 3.15-1.6 5.81z"/><circle cx="482.1" cy="5" r="5"/></svg>