<svg
   xmlns:dc="http://purl.org/dc/elements/1.1/"
   xmlns:cc="http://creativecommons.org/ns#"
   xmlns:rdf="http://www.w3.org/1999/02/22-rdf-syntax-ns#"
   xmlns:svg="http://www.w3.org/2000/svg"
   xmlns="http://www.w3.org/2000/svg"
   xmlns:sodipodi="http://sodipodi.sourceforge.net/DTD/sodipodi-0.dtd"
   xmlns:inkscape="http://www.inkscape.org/namespaces/inkscape"
   width="28.248808"
   height="31.057854"
   fill="none"
   version="1.1"
   id="svg26"
   sodipodi:docname="rumble.svg"
   inkscape:version="1.0.2-2 (e86c870879, 2021-01-15)">
  <metadata
     id="metadata32">
    <rdf:RDF>
      <cc:Work
         rdf:about="">
        <dc:format>image/svg+xml</dc:format>
        <dc:type
           rdf:resource="http://purl.org/dc/dcmitype/StillImage" />
        <dc:title></dc:title>
      </cc:Work>
    </rdf:RDF>
  </metadata>
  <defs
     id="defs30" />
  <sodipodi:namedview
     pagecolor="#ffffff"
     bordercolor="#666666"
     borderopacity="1"
     objecttolerance="10"
     gridtolerance="10"
     guidetolerance="10"
     inkscape:pageopacity="0"
     inkscape:pageshadow="2"
     inkscape:window-width="1366"
     inkscape:window-height="697"
     id="namedview28"
     showgrid="false"
     inkscape:zoom="8.1928571"
     inkscape:cx="63.997528"
     inkscape:cy="15.529807"
     inkscape:window-x="-8"
     inkscape:window-y="-8"
     inkscape:window-maximized="1"
     inkscape:current-layer="svg26" />
  <path
     d="m 17.297528,17.529807 c 1.2,-0.95 1.2,-2.8 0,-3.78 a 27.45,27.45 0 0 0 -5.58,-3.59 c -1.38,-0.6599999 -2.9200002,0.26 -3.1400002,1.83 -0.34,2.4 -0.4,4.82 -0.18,7.12 0.15,1.59 1.6700002,2.54 3.0700002,1.93 a 25.4,25.4 0 0 0 5.83,-3.5 z m 8.97,-6.99 a 7.57,7.57 0 0 1 0.02,10.19 33.84,33.84 0 0 1 -16.9600002,10.13 6.62,6.62 0 0 1 -7.98,-4.63 c -1.96999998,-6.73 -1.67999998,-14.34 0.22,-21.0999999 1,-3.55 4.34,-5.77999998 7.78,-4.95999998 C 15.717528,1.6898071 21.697528,5.5998071 26.267528,10.539807 Z"
     fill="#85c742"
     id="path24"
     style="fill:#000000" />
</svg>
