<svg xmlns="http://www.w3.org/2000/svg" width="2500" height="1430" viewBox="28.4 71.1 194.8 111.4"><path d="M39.4 114.6c-.4 0-.8.3-.8.8l-2 17.3 2 17c0 .4.4.8.8.8s.7-.4.8-.8l2.1-17-2.1-17.3c0-.5-.4-.8-.8-.8zm-7.2 6.6c-.4 0-.7.3-.7.8L30 132.7l1.5 10.6c0 .4.3.7.7.7.4 0 .7-.3.8-.7l1.7-10.6L33 122c0-.5-.4-.8-.8-.8zm14.8-10c-.6 0-1 .4-1 1l-1.8 20.5 1.8 19.8c0 .6.4 1 1 1 .5 0 .9-.4 1-1l2-19.8-2-20.6c-.1-.5-.5-1-1-1zm7.6-.7c-.6 0-1 .4-1.1 1l-1.7 21.2 1.7 20.5c0 .6.5 1 1.1 1s1-.4 1.1-1l2-20.5-2-21.1c0-.7-.5-1.1-1-1.1zm9 42.8zm0-40.2c0-.7-.6-1.3-1.3-1.3-.7 0-1.2.6-1.3 1.3l-1.6 19.6 1.6 20.6c0 .8.6 1.3 1.3 1.3.7 0 1.3-.5 1.3-1.3l1.8-20.6-1.8-19.6zm6.5-13.7c-.8 0-1.4.6-1.5 1.4l-1.5 32 1.5 20.5c0 .8.7 1.5 1.5 1.5s1.4-.7 1.5-1.5l1.7-20.6-1.7-31.9c0-.8-.7-1.4-1.5-1.4zm7.7-7.4c-.9 0-1.6.7-1.6 1.6l-1.4 39.2 1.4 20.5c0 1 .7 1.6 1.6 1.6.9 0 1.6-.7 1.6-1.6l1.6-20.5-1.6-39.2c0-.9-.7-1.6-1.6-1.6zm8-3.5c-1 0-1.7.7-1.8 1.8l-1.3 42.4L84 153c0 1 .9 1.8 1.8 1.8 1 0 1.8-.8 1.8-1.8l1.5-20.3-1.5-42.4c0-1-.8-1.8-1.8-1.8zm10 .3c0-1-1-2-2-2s-2 1-2 2l-1.2 44 1.2 20a2 2 0 0 0 2 2c1 0 2-.8 2-2l1.3-20-1.4-44zm0 64zm6-65c-1.1 0-2 1-2.1 2.1l-1.1 42.8 1 20c.1 1.2 1 2.1 2.2 2.1s2.1-1 2.1-2.1l1.3-20-1.3-42.8c0-1.1-1-2-2-2zm8.1 1.4c-1.3 0-2.3 1-2.3 2.3l-1 41.2 1 19.9a2.3 2.3 0 0 0 4.6 0l1.1-19.9-1.1-41.2a2.3 2.3 0 0 0-2.3-2.3zm9.5-7.6a2.5 2.5 0 0 0-1.4-.4c-.4 0-.9.2-1.3.4a2.5 2.5 0 0 0-1.1 2v.5l-1 48.6 1 19.7v.1c0 .6.2 1 .6 1.5a2.4 2.4 0 0 0 1.8.9c.7 0 1.3-.3 1.8-.7s.7-1 .7-1.8l.1-2 1-17.7-1.1-49a2.5 2.5 0 0 0-1.1-2zm1.1 70.8zm7-75.4a2.6 2.6 0 0 0-3 .2 2.6 2.6 0 0 0-1 2v.3l-1 53.2.5 9.9.5 9.6c0 1.4 1.2 2.6 2.7 2.6 1.4 0 2.6-1.2 2.6-2.7l1.1-19.4-1.1-53.5a2.7 2.7 0 0 0-1.3-2.2zm72 30.4c-3.3 0-6.4.7-9.3 1.9A42 42 0 0 0 148.5 71a42.5 42.5 0 0 0-15.2 2.8c-1.8.7-2.3 1.4-2.3 2.8V152c0 1.4 1.2 2.6 2.6 2.7h65.8a23.6 23.6 0 1 0 0-47.4zM49 169.1c-2.8-.7-3.5-1-3.5-2.1 0-.8.6-1.6 2.5-1.6 1.6 0 2.8.7 4 1.8l2.5-2.4a8.4 8.4 0 0 0-6.4-2.8c-3.4 0-6.3 2-6.3 5.2 0 3.4 2.3 4.4 5.5 5.2 3.3.7 4 1.2 4 2.4 0 1.3-1 1.9-3.1 1.9-1.7 0-3.3-.6-4.5-2l-2.5 2.2c1.3 2 3.8 3.2 6.8 3.2 4.8 0 6.9-2.2 6.9-5.6 0-3.8-3.1-4.7-5.9-5.4zm16.2-7.1c-4.8 0-7.6 3.7-7.6 9 0 5.4 2.8 9.1 7.6 9.1s7.6-3.7 7.6-9c0-5.4-2.8-9.1-7.6-9.1zm0 14.6c-2.9 0-4-2.4-4-5.5s1.1-5.6 4-5.6c2.8 0 4 2.4 4 5.6 0 3-1.2 5.5-4 5.5zm21.8-4.5c0 2.8-1.4 4.6-3.6 4.6-2.3 0-3.6-1.8-3.6-4.6v-9.8h-3.5v9.8c0 5.2 2.8 8 7 8 4.5 0 7.2-3 7.2-8v-9.8H87v9.8zm18.6-2.4v3.8c-.1-.4-.7-1.3-1.1-2l-6.3-9.2H95v17.5h3.4v-11.5l1.2 2 6.5 9.5h3.1v-17.5h-3.5v7.4zm13.5-7.4h-5.5v17.5h5.3c4.5 0 9-2.6 9-8.7 0-6.5-3.8-8.8-8.8-8.8zm-.2 14.1H117v-10.7h1.9c3.7 0 5.2 1.8 5.2 5.4 0 3.2-1.6 5.3-5.3 5.3zm19.8-11c1.6 0 2.6.8 3.2 2l3.3-1.5a6.6 6.6 0 0 0-6.4-3.9c-4.6 0-7.8 3.7-7.8 9 0 5.6 3 9.1 7.6 9.1 3.2 0 5.3-1.5 6.5-4l-3-1.7c-.9 1.6-1.8 2.2-3.4 2.2-2.6 0-4.1-2.4-4.1-5.5 0-3.3 1.5-5.6 4.1-5.6zm13-3.1h-3.5v17.5h10.6v-3.4h-7v-14.1zm16.3-.3c-4.7 0-7.6 3.7-7.6 9 0 5.4 2.9 9.1 7.6 9.1 4.8 0 7.7-3.7 7.7-9 0-5.4-2.9-9.1-7.7-9.1zm0 14.6c-2.8 0-4-2.4-4-5.5s1.2-5.6 4-5.6c2.9 0 4 2.4 4 5.6 0 3-1.1 5.5-4 5.5zm21.8-4.5c0 2.8-1.3 4.6-3.6 4.6-2.2 0-3.6-1.8-3.6-4.6v-9.8h-3.5v9.8c0 5.2 2.9 8 7.1 8 4.5 0 7.2-3 7.2-8v-9.8h-3.6v9.8zm13.4-9.8h-5.4v17.5h5.2c4.5 0 9-2.6 9-8.7 0-6.5-3.7-8.8-8.8-8.8zm-.2 14.1h-1.7v-10.7h1.8c3.7 0 5.3 1.8 5.3 5.4 0 3.2-1.7 5.3-5.4 5.3z" style="fill:#bcbcbc" fill="#666"/></svg>