<svg version="1.1" id="Layer_1" x="0" y="0" xml:space="preserve" width="119.08" height="50" xmlns="http://www.w3.org/2000/svg"><style type="text/css" id="style1">.st2{fill:#fff}</style><switch id="switch6" transform="translate(0 -.335) scale(.60842)"><g id="g6"><path id="blue_box_on_news_logo" style="fill:#1a428a" d="M0 .55h195.29v57.54H0z"/><path id="red_box_on_news_logo" style="fill:#b12028" d="M.09 60.02h195.63v22.71H.09z"/><path class="st2" d="M167.43 3.76c-11.33 0-20.93 7.4-24.24 17.62V5.08h-12.35v.01h-4.24v10.66h4.24V53.8h12.35V37.1c3.31 10.22 12.91 17.62 24.24 17.62 14.07 0 25.48-11.4 25.48-25.48S181.5 3.76 167.43 3.76m-.13 37.7c-6.74 0-12.21-5.47-12.21-12.21 0-6.75 5.47-12.21 12.21-12.21 6.75 0 12.22 5.47 12.22 12.21-.01 6.74-5.48 12.21-12.22 12.21" id="path1"/><path id="F_on_news_logo" class="st2" d="M22.57 18.42v6.35h13.16v13.27H22.46l.03 15.71H8.97V5.13h28.86l.88 13.29z"/><path id="O_on_news_logo" class="st2" d="m68.26 39.21.02-19.43c0-2.21-2-4.19-4.28-4.19-2.29 0-4.13 1.98-4.13 4.19l-.01 19.37c0 2.22 1.85 4.02 4.14 4.02 2.28 0 4.26-1.74 4.26-3.96m-28.7-9.7c0-13.06 10.91-23.65 24.37-23.65S88.3 16.45 88.3 29.51c0 13.05-10.91 23.64-24.37 23.64-13.45 0-24.37-10.59-24.37-23.64"/><path id="X_on_news_logo" class="st2" d="M104.1 15.67 98.21 5.2H83.26l13.37 23.41-14.16 25.07 14.52.03 6.93-12.3 7.01 12.27h14.92l-14.43-25.23L124.53 5.2h-14.44z"/><g id="g5"><path class="st2" d="M30.73 63.14h5.2l5.91 7.34v-7.34h5.51v16.63h-4.94l-6.18-7.67v7.67h-5.51V63.14Z" id="path2"/><path class="st2" d="M70.49 63.14h14.18v4.56h-8.72v1.69h8.12v4.01h-8.12v1.81h8.84v4.56h-14.3z" id="path3"/><path class="st2" d="M106.56 63.14h5.82l2.35 7.98 2.68-8.03h4.8l2.68 8.03 2.35-7.98h5.72l-5.44 16.74h-4.85l-2.92-8.27-2.92 8.27H112Z" id="path4"/><path class="st2" d="m153.31 77.28 2.97-3.54a9.523 9.523 0 0 0 5.82 1.95c1 0 1.43-.26 1.43-.71v-.05c0-.48-.52-.74-2.3-1.09-3.73-.76-7.01-1.83-7.01-5.34v-.05c0-3.16 2.47-5.61 7.05-5.61 3.21 0 5.58.76 7.51 2.28l-2.71 3.75c-1.57-1.14-3.44-1.64-4.99-1.64-.83 0-1.21.29-1.21.69v.05c0 .45.45.74 2.21 1.07 4.25.78 7.1 2.02 7.1 5.37v.05c0 3.49-2.87 5.63-7.34 5.63-3.38-.01-6.42-.96-8.53-2.81z" id="path5"/></g></g></switch></svg>