<svg version="1.1" id="Layer_1" x="0" y="0" xml:space="preserve" width="186.6" height="60.542" xmlns="http://www.w3.org/2000/svg"><style type="text/css" id="style1">.st1{fill:#fff}</style><g id="g10" transform="translate(11.223)"><path style="fill:#1f3f66;fill-opacity:1;stroke:none;stroke-width:1.94588" id="rect9" d="M-11.223.539h186.6v60.003h-186.6z"/><path id="rect1" style="fill:none" d="M0 0h165v60H0z"/><g id="g9" transform="translate(-.423 .62)"><path class="st1" id="polygon1" d="M4.404 24.856H0l4.358 15.219h4.153l2.305-9.538 2.304 9.538h4.153l4.358-15.219h-4.427L14.923 35.01l-2.602-10.154H9.31L6.708 35.01z"/><path class="st1" id="polygon2" d="M26.788 34.028h7.074v-3.331h-7.074v-2.533h7.233v-3.308H22.863v15.219h11.158v-3.308h-7.233z"/><path class="st1" d="m40.41 24.856-5.727 15.219h4.267l.776-2.305h6.32l.776 2.305h4.267l-5.75-15.219zm.343 9.606 2.122-6.184 2.145 6.184z" id="path2"/><path class="st1" d="M65.122 29.921c0-2.829-1.917-5.065-5.294-5.065h-7.621v15.219h3.925v-5.157h2.008l2.556 5.157h4.495l-3.103-5.59c1.414-.502 3.034-1.917 3.034-4.564zm-5.887 1.666h-3.103v-3.423h3.103c1.027 0 1.894.662 1.894 1.711 0 1.05-.867 1.712-1.894 1.712z" id="path3"/><path class="st1" id="polygon3" d="M72.483 40.076V28.393l8.419 11.683h2.214V24.857h-2.282v11.408l-8.283-11.408h-2.35v15.219z"/><path class="st1" id="polygon4" d="M88.775 33.322h7.78v-2.008h-7.78v-4.449h7.94v-2.008H86.493v15.219h10.222v-2.008h-7.94z"/><path class="st1" id="polygon5" d="M100.663 24.857h-2.556l4.358 15.219h2.442l3.149-11.751 3.171 11.751h2.442l4.335-15.219h-2.555L112.3 37.064l-3.309-12.207h-1.848l-3.331 12.207z"/><path class="st1" d="M125.375 31.086c-1.894-.479-3.537-.913-3.537-2.282 0-1.278 1.164-2.145 2.852-2.145 1.643 0 3.24.548 4.404 1.78l1.323-1.688c-1.346-1.369-3.194-2.122-5.545-2.122-3.172 0-5.385 1.825-5.385 4.335 0 3.103 2.829 3.811 5.271 4.449 1.939.502 3.674.958 3.674 2.555 0 1.095-.867 2.35-3.331 2.35-2.122 0-3.765-1.004-4.792-2.145l-1.301 1.757c1.301 1.437 3.286 2.419 6.001 2.419 4.107 0 5.75-2.213 5.75-4.586.001-3.24-2.897-4.016-5.384-4.677z" id="path5"/><circle class="st1" cx="136.724" cy="32.653" r=".945" id="circle5"/><circle class="st1" cx="141.248" cy="32.653" r=".945" id="circle6"/><path class="st1" d="M141.248 24.957a7.696 7.696 0 1 0 .001 15.393 7.696 7.696 0 0 0-.001-15.393zm-2.399 9.788h-1.181v-.367s-.328.4-.945.4a2.126 2.126 0 1 1 2.126-2.126zm2.399.034a2.126 2.126 0 0 1-2.126-2.126v-3.165h1.181v1.349s.372-.31.945-.31a2.127 2.127 0 0 1 0 4.252zm6.633-2.397h-1.204a.945.945 0 1 0 0 .542h1.204a2.127 2.127 0 1 1 0-.542z" id="path6"/><path class="st1" d="M152.302 23.526c.307.179.709.385 1.083.385l.06-.002c.268-.017.528-.192.769-.38.203-.159.394-.34.597-.531.094-.089.189-.179.287-.268a2.792 2.792 0 0 0-.817-.385c-.46-.137-.575-.249-.599-.279.017-.192.276-.435.715-.672a3.491 3.491 0 0 1 1.665-.434c.644 0 1.2.144 1.682.437a6.977 6.977 0 0 1 1.535-.17c.473 0 .951.048 1.421.143l.243.05c.39.083.807.179 1.215.321l.129.047c.405.153.824.342 1.246.564.029.015.055.032.073.043l.389.256c-.289-.74-.826-1.382-1.608-1.919-1.2-.824-2.75-1.241-4.61-1.241-1.756 0-3.224.376-4.362 1.117-1.037.676-1.625 1.532-1.751 2.551l.153.088.485.279z" id="path7"/><path class="st1" d="M162.251 29.491a8.373 8.373 0 0 0-2.617-.852c1.048-.276 1.964-.699 2.73-1.262 1.25-.918 1.883-2.042 1.883-3.341 0-.271-.025-.533-.076-.784 0 .039-.392.085-.428.09a9.217 9.217 0 0 0-.678.132c-.474.113-.94.254-1.413.371-.693.173-1.417.298-2.133.211a5.285 5.285 0 0 0-.247-.024c.008.113.013.229.013.347 0 1.106-.318 2.02-.946 2.716-.63.698-1.542 1.128-2.711 1.279-.243.034-.888.127-.888.597 0 .213.113.57.87.57h.391c.779 0 1.328.063 1.631.188a3.163 3.163 0 0 1 1.633 1.517c.373.727.562 1.684.562 2.844 0 1.508-.388 2.751-1.153 3.696-.76.938-1.704 1.395-2.884 1.395-.46 0-.923-.094-1.377-.279-.426-.174-.525-.302-.547-.34.024-.039.103-.139.334-.325.574-.459.865-.983.865-1.557 0-1.202-.683-1.864-1.924-1.864-1.435 0-2.225.737-2.225 2.075 0 .964.505 1.796 1.5 2.474.96.654 2.125.985 3.465.985 2.023 0 3.921-.426 5.641-1.265C163.83 37.951 165 36.2 165 33.879c0-1.957-.925-3.434-2.749-4.388z" id="path8"/><path class="st1" d="m153.448 28.052-.4-.301a4.548 4.548 0 0 1-.47-.395l-.028-.03c.273-.129.578-.178.853-.306.39-.182.731-.447 1.079-.696.33-.236.732-.551 1.15-.591.295-.029.566.002.855-.083l.347-.101c-.255-.36-.482-.667-.892-.862-.038-.018-.132-.073-.222-.114a.438.438 0 0 0-.155-.046.067.067 0 0 0-.039.01 7.134 7.134 0 0 1 .237-.16c.904-.578 1.976-.872 3.045-.897l.125-.001a5.606 5.606 0 0 1 .651.039c.189.023.38.041.571.041.094 0 .188-.004.282-.014.336-.035.663-.122.987-.215.309-.089.622-.164.935-.24.307-.074.613-.173.922-.237l.025-.005-.026-.016a10.508 10.508 0 0 0-1.302-.579 9.294 9.294 0 0 0-1.149-.303l-.238-.049a6.626 6.626 0 0 0-2.285-.059 6.275 6.275 0 0 0-1.082.263c-.505.171-1.01.409-1.43.74a6.446 6.446 0 0 0-.308.262c-.313.283-.607.588-.94.848-.313.244-.661.469-1.068.494a1.444 1.444 0 0 1-.093.003c-.482 0-.952-.223-1.356-.459l-.384-.222c-.837-.48-1.677-.952-2.411-1.588-.224-.193-.467-.386-.772-.386l-.061.003c-.243.02-.485.038-.728.051-1.205.065-2.404.203-3.6.341a52.47 52.47 0 0 0-2.438.331l.555.256c1.034.482 2.125.863 3.237 1.122.25.058.518.128.778.128l.067-.001c.228-.011.459-.059.685-.091.308-.045.638-.137.959-.137.144 0 .285.019.422.069.181.066.348.179.518.269.181.096.363.19.545.283.356.183.716.369 1.057.571.324.191.625.417.946.611.011.006.07.049.095.049.004 0 .006-.001.008-.003-.06.062-.14.136-.183.176a5.419 5.419 0 0 0-.672.831c-.176.262-.301.575-.53.797-.198.19-.43.341-.672.468a5.96 5.96 0 0 1-.436.205l-.351.163c.244.193.471.405.727.584.248.173.514.328.772.477l.11.064c.493-.205.98-.436 1.47-.652.566-.248 1.141-.461 1.706-.71z" id="path9"/></g></g></svg>