<svg xmlns="http://www.w3.org/2000/svg" xml:space="preserve" id="Layer_1" width="186.6" height="60.5" x="0" y="0" version="1.1"><style id="style1" type="text/css">.st1{fill:#fff}</style><g id="g10" transform="translate(11.2)"><path id="rect9" d="M-11.2.5h186.6v60H-11.2z" style="fill:#1f3f66;fill-opacity:1;stroke:none;stroke-width:1.94588"/><path id="rect1" d="M0 0h165v60H0z" style="fill:none"/><g id="g9" transform="translate(-.4 .6)"><path id="polygon1" d="M4.4 24.9H0L4.4 40h4.1l2.3-9.6 2.3 9.6h4.2l4.3-15.2h-4.4L14.9 35 12.3 25h-3L6.7 35z" class="st1"/><path id="polygon2" d="M26.8 34h7v-3.3h-7v-2.5H34v-3.3H23V40H34v-3.3h-7.2z" class="st1"/><path id="path2" d="M40.4 24.9 34.7 40h4.2l.8-2.3H46l.8 2.3h4.3l-5.8-15.2zm.4 9.6 2-6.2 2.2 6.2z" class="st1"/><path id="path3" d="M65.1 30c0-3-1.9-5.1-5.3-5.1h-7.6V40h4v-5.2h2l2.5 5.2h4.5L62 34.5c1.4-.5 3-2 3-4.6zm-5.9 1.6h-3v-3.4h3c1 0 2 .6 2 1.7 0 1-1 1.7-2 1.7z" class="st1"/><path id="polygon3" d="M72.5 40V28.5L80.9 40h2.2V24.9h-2.3v11.4l-8.2-11.4h-2.4V40z" class="st1"/><path id="polygon4" d="M88.8 33.3h7.8v-2h-7.8V27h8v-2H86.4V40h10.2v-2h-8z" class="st1"/><path id="polygon5" d="M100.7 24.9H98l4.4 15.2h2.4l3.2-11.8 3.1 11.8h2.5l4.3-15.2h-2.6L112.3 37 109 24.9H107L103.8 37z" class="st1"/><path id="path5" d="M125.4 31c-2-.4-3.6-.8-3.6-2.2 0-1.3 1.2-2.1 2.9-2.1a6 6 0 0 1 4.4 1.7l1.3-1.6a7.5 7.5 0 0 0-5.5-2.2c-3.2 0-5.4 1.9-5.4 4.4 0 3 2.8 3.8 5.3 4.4 1.9.5 3.6 1 3.6 2.6 0 1-.8 2.3-3.3 2.3-2.1 0-3.8-1-4.8-2.1l-1.3 1.7a7.8 7.8 0 0 0 6 2.4c4.1 0 5.8-2.2 5.8-4.5 0-3.3-3-4-5.4-4.7z" class="st1"/><circle id="circle5" cx="136.7" cy="32.7" r=".9" class="st1"/><circle id="circle6" cx="141.2" cy="32.7" r=".9" class="st1"/><path id="path6" d="M141.2 25a7.7 7.7 0 1 0 0 15.4 7.7 7.7 0 0 0 0-15.4zm-2.4 9.7h-1.1v-.3s-.4.4-1 .4a2.1 2.1 0 1 1 2.1-2.1zm2.4 0a2.1 2.1 0 0 1-2-2v-3.2h1.1v1.3s.4-.3 1-.3a2.1 2.1 0 0 1 0 4.3zm6.7-2.3h-1.2a1 1 0 1 0 0 .5h1.2a2.1 2.1 0 1 1 0-.5z" class="st1"/><path id="path7" d="M152.3 23.5c.3.2.7.4 1 .4h.1c.3 0 .6-.2.8-.4l.6-.5.3-.3a2.8 2.8 0 0 0-.8-.4c-.5 0-.6-.2-.6-.2 0-.2.3-.5.7-.7a3.5 3.5 0 0 1 1.7-.4c.6 0 1.2.1 1.6.4a7 7 0 0 1 1.6-.2c.5 0 1 0 1.4.2h.2l1.3.3c.5.2 1 .4 1.3.7h.1l.4.3c-.3-.8-.8-1.4-1.6-2a8 8 0 0 0-4.6-1.2c-1.8 0-3.2.4-4.4 1.1-1 .7-1.6 1.5-1.7 2.6h.1l.5.3z" class="st1"/><path id="path8" d="M162.3 29.5a8.4 8.4 0 0 0-2.7-.9c1-.2 2-.7 2.8-1.2 1.2-1 1.8-2 1.8-3.4v-.7h-.5a9.2 9.2 0 0 0-.6.2c-.5 0-1 .2-1.4.3a6 6 0 0 1-2.2.3 5.3 5.3 0 0 0-.2 0v.3a4 4 0 0 1-1 2.7c-.6.7-1.5 1.1-2.7 1.3-.2 0-.9.1-.9.6 0 .2.2.5 1 .5h.3l1.6.2a3.2 3.2 0 0 1 1.7 1.5c.3.8.5 1.7.5 2.9 0 1.5-.4 2.7-1.1 3.7-.8 1-1.7 1.4-3 1.4l-1.3-.3-.5-.3s0-.2.3-.4c.6-.4.9-1 .9-1.5 0-1.2-.7-1.9-2-1.9-1.4 0-2.2.8-2.2 2 0 1 .5 1.9 1.5 2.6a6 6 0 0 0 3.5 1c2 0 3.9-.5 5.6-1.3 2.3-1.1 3.5-2.9 3.5-5.2 0-2-1-3.5-2.7-4.4z" class="st1"/><path id="path9" d="m153.4 28-.4-.2a4.5 4.5 0 0 1-.4-.4l.8-.4 1-.7 1.2-.6h.9l.3-.2c-.2-.3-.4-.6-.9-.8l-.2-.1a.4.4 0 0 0-.1 0 7.1 7.1 0 0 1 .2-.2 6 6 0 0 1 3-1h.1a5.6 5.6 0 0 1 .7.1 4.7 4.7 0 0 0 .8 0c.4 0 .7 0 1-.2l1-.2.9-.2a10.5 10.5 0 0 0-1.3-.6 9.3 9.3 0 0 0-1.2-.3l-.2-.1a6.6 6.6 0 0 0-2.3 0 6.3 6.3 0 0 0-1 .2l-1.5.7a6.4 6.4 0 0 0-.3.3l-1 .9a2 2 0 0 1-1 .4 1.4 1.4 0 0 1-.1 0c-.5 0-1-.2-1.4-.4l-.4-.2-2.4-1.6c-.2-.2-.4-.4-.7-.4H147.7l-3.6.4a52.5 52.5 0 0 0-2.5.3l.6.3c1 .5 2.1.8 3.2 1.1l.8.1h.8l1-.2h.3l.6.3a40.2 40.2 0 0 0 1.6.9l.9.6h.1l-.2.2a5.4 5.4 0 0 0-.6.9l-.6.8a3 3 0 0 1-.6.4 6 6 0 0 1-.5.2l-.3.2.7.6.8.5 1.5-.6 1.7-.7z" class="st1"/></g></g></svg>