<svg version="1.1" id="Layer_1" x="0" y="0" xml:space="preserve" width="189.681" height="60" xmlns="http://www.w3.org/2000/svg"><style type="text/css" id="style1">.st1{fill:#fff}</style><path id="rect1" style="fill:#710200;fill-opacity:1;stroke-width:1.07219" d="M0 0h189.681v60H0z"/><g id="g12" style="fill:#fff;fill-opacity:1" transform="translate(12.228)"><path class="st1" id="polygon1" style="fill:#fff;fill-opacity:1" d="M69.2 38.9h5V27.8l10.1 11.1h4.5V20.8h-5v11.1L73.7 20.8h-4.5z"/><path class="st1" id="polygon2" style="fill:#fff;fill-opacity:1" d="M99.8 35.7v-4.4h10.1v-3.1H99.8v-4.3h11.9v-3.1H94.8v18.1h16.9v-3.2z"/><path class="st1" id="polygon3" style="fill:#fff;fill-opacity:1" d="M122.9 32.2 119 20.8h-5.2l6.8 18.1h4.2l4.7-11 4.7 11h4.2l6.9-18.1H140l-4 11.4-4.6-11.4h-3.8z"/><path class="st1" d="M163 29.7c-.6-.4-1.2-.7-2-.9-.8-.2-1.7-.4-2.9-.5l-1.5-.2-1.5-.2c-1-.1-1.8-.3-2.3-.7-.5-.4-.8-.8-.8-1.3 0-.7.3-1.2 1-1.6.7-.4 1.7-.6 2.9-.6 1 0 2 .1 2.9.3.9.2 1.7.5 2.4 1l3.2-2.2c-1.1-.7-2.3-1.3-3.6-1.6-1.3-.3-2.9-.5-4.7-.5-2.7 0-4.9.5-6.5 1.5-1.6 1-2.4 2.3-2.4 4 0 1.5.6 2.7 1.8 3.6 1.1.8 2.8 1.3 5 1.5l1.7.2 1.4.2c1.1.1 1.9.4 2.4.7.5.3.7.8.7 1.5 0 1.5-1.5 2.2-4.5 2.2-1.3 0-2.4-.1-3.5-.4-1-.2-1.9-.6-2.7-1.2l-3.2 2.3c1.2.9 2.6 1.5 4.1 1.8 1.5.3 3.3.5 5.3.5 2.8 0 5.1-.5 6.8-1.5 1.8-1 2.7-2.3 2.7-4-.2-1.7-.9-3-2.2-3.9z" id="path3" style="fill:#fff;fill-opacity:1"/><path class="st1" d="M15.6 38.3c.6-.2 1-.9 1-1.6 0-.5-.2-.9-.5-1.2-.4-.4-1-.7-1.8-.7H9.6v7.7h4.7c1.1 0 1.6-.3 2-.7.5-.5.7-1.1.7-1.6 0-.9-.5-1.7-1.4-1.9zM10.9 36h3.2c.4 0 .6.1.9.3.2.2.3.4.3.7 0 .3-.1.6-.3.8-.2.2-.5.3-.8.3H11V36Zm4.4 5c-.2.2-.6.4-1 .4h-3.5v-2.3h3.5c.4 0 .7.2 1 .4.2.2.3.4.3.7.1.3-.1.6-.3.8z" id="path4" style="fill:#fff;fill-opacity:1"/><path class="st1" d="M21.9 41.6c-1.7 0-2.8-1.3-2.8-2.9 0-1.6 1.1-2.9 2.8-2.9.9 0 2 .4 2.7 1.1l.9-.9c-.9-.8-2.2-1.4-3.6-1.4-2.5 0-4.1 1.8-4.1 4.1s1.7 4.1 4.2 4.1c1.7 0 3-.8 3.8-1.6l-.9-.9c-.8.7-1.8 1.3-3 1.3z" id="path5" style="fill:#fff;fill-opacity:1"/><path class="st1" id="polygon5" style="fill:#fff;fill-opacity:1" d="M1.7 34.8v7.7H3v-5.3l4.4 5.3h1.2v-7.7H7.3v5.3l-4.5-5.3z"/><path class="st1" d="M59.8 27.9c-1.7-1.5-3.8-2.2-6.3-2.2h-7.9v-2.2h15.2v-5.9H39.3v13.9H54c1.7 0 2.5.7 2.5 2v1.2c0 1.4-.8 2.4-2.5 2.4h-5.8c-1.7 0-2.5-1-2.5-2.3h-6.3c0 2.3.9 4.1 2.6 5.6 1.7 1.5 3.8 2.3 6.3 2.3h5.4c2.5 0 4.6-.8 6.3-2.3 1.7-1.5 2.6-3.4 2.6-5.7v-1.2c-.2-2.3-1.1-4.2-2.8-5.6z" id="path6" style="fill:#fff;fill-opacity:1"/><path class="st1" id="polygon6" style="fill:#fff;fill-opacity:1" d="M36.7 42.6v-25h-9.6v5.8h3.3v19.2z"/><path class="st1" d="m3.7 26.3 8.1 5.6-3.9-9c-.8-2.1-3.1-2.6-4.7-1.2-1.1 1-1.6 3.3.5 4.6Z" id="path7" style="fill:#fff;fill-opacity:1"/><path class="st1" d="m11.8 30.9 1.4-10.1c.3-2.5-1.6-3.7-3.1-3.5-1.3 0-3.3 1.6-2.4 4z" id="path8" style="fill:#fff;fill-opacity:1"/><path class="st1" d="M15.1 20.6c-.3.2-1.1.3-1 1.6l1.3 8.7 4-9.6c.8-2.1-.9-3.9-2.4-4h-.2c-1.4 0-3 1-2.9 3.1h.8c-.1 0 .3 0 .4.2z" id="path9" style="fill:#fff;fill-opacity:1"/><path class="st1" d="m15.4 31.9 8.1-5.6c1.9-1.3 1.6-3.4.5-4.5-.4-.5-1.2-.9-2.1-.9-1 0-2.1.5-2.7 2.1z" id="path10" style="fill:#fff;fill-opacity:1"/><path class="st1" d="M24.3 27c-.5 0-1.1.2-1.6.5L15 32.9h9.4c1.9 0 3.2-2 2.6-3.8-.4-1.2-1.5-2.1-2.7-2.1Z" id="path11" style="fill:#fff;fill-opacity:1"/><path class="st1" d="m12.2 32.9-7.6-5.3C2.8 26.5.9 27.1.2 29c-.7 2.1.8 3.9 2.8 3.9Z" id="path12" style="fill:#fff;fill-opacity:1"/></g></svg>