<?xml version="1.0" encoding="utf-8"?>
<svg xmlns="http://www.w3.org/2000/svg" version="1.1" id="svg179669" width="499.99997" height="512.07666" viewBox="0 0 499.99997 512.07666" xmlns:bx="https://boxy-svg.com">
  <defs id="defs179673">
    <linearGradient id="linearGradient28234">
      <stop id="stop28230" offset="0" style="stop-color:#b5d2ec;stop-opacity:1;"/>
      <stop id="stop28232" offset="1" style="stop-color:#5a9bd5;stop-opacity:1"/>
    </linearGradient>
    <linearGradient gradientTransform="matrix(1, 0, 0, 1, 497.597412, -109.684786)" gradientUnits="userSpaceOnUse" y2="367.18478" x2="-65.79129" y1="367.18478" x1="-432.40347" id="linearGradient28236" href="#linearGradient28234"/>
    <bx:export>
      <bx:file format="png"/>
    </bx:export>
  </defs>
  <path style="fill-opacity: 1; stroke: none; stroke-width: 1px; stroke-linecap: butt; stroke-linejoin: miter; stroke-opacity: 1; fill: rgb(180, 106, 78); transform-origin: 249.446px 339.176px;" d="M 455.339 387.581 C 326.957 471.761 159.653 452.475 39.484 377.974 C 143.177 260.703 354.24 271.963 455.339 387.581 Z" id="path180365"/>
  <circle r="240.437" cy="257.5" cx="248.5" id="path28293" style="fill:#ffffff;fill-opacity:1;stroke:#000000;stroke-width:4.12503;stroke-miterlimit:4;stroke-dasharray:none;stroke-opacity:1"/>
  <path d="M 50.55 210.852 L 51.126 208.268 C 51.784 208.249 52.575 208.285 53.496 208.374 C 54.388 208.411 55.348 208.51 56.377 208.669 C 57.376 208.777 58.365 208.927 59.346 209.118 C 60.326 209.31 61.204 209.5 61.981 209.687 C 62.508 211.363 62.699 213.357 62.552 215.668 C 62.415 217.937 62.09 220.227 61.575 222.538 C 60.799 226.026 59.704 229.105 58.291 231.775 C 56.849 234.394 55.048 236.506 52.891 238.112 C 50.703 239.666 48.167 240.671 45.283 241.127 C 42.36 241.574 39.034 241.349 35.305 240.451 C 31.616 239.563 28.581 238.212 26.202 236.399 C 23.794 234.535 21.96 232.389 20.7 229.961 C 19.44 227.532 18.716 224.901 18.529 222.067 C 18.312 219.181 18.531 216.268 19.186 213.326 C 19.803 210.553 20.554 208.1 21.438 205.966 C 22.293 203.781 23.19 202.049 24.13 200.77 C 24.751 200.92 25.538 201.154 26.49 201.472 C 27.452 201.747 28.457 202.1 29.508 202.53 C 30.528 202.909 31.539 203.33 32.541 203.792 C 33.514 204.203 34.331 204.577 34.992 204.914 L 34.403 207.561 L 24.834 208.909 C 24.556 209.24 24.265 209.812 23.961 210.625 C 23.658 211.437 23.407 212.284 23.211 213.167 C 22.827 214.889 22.797 216.587 23.121 218.258 C 23.406 219.921 24.116 221.509 25.252 223.022 C 26.389 224.535 27.989 225.894 30.053 227.1 C 32.078 228.296 34.625 229.263 37.693 230.002 C 43.247 231.34 47.786 231.171 51.31 229.496 C 54.834 227.821 57.054 224.925 57.971 220.807 C 58.233 219.631 58.375 218.624 58.397 217.789 C 58.39 216.901 58.264 216.273 58.019 215.904 L 50.55 210.852 Z" style="font-style:normal;font-variant:normal;font-weight:bold;font-stretch:normal;font-size:59.9288px;line-height:1.25;font-family:'PT Serif';-inkscape-font-specification:'PT Serif Bold';letter-spacing:-0.31px;fill:#000000;fill-opacity:1;stroke:none;stroke-width:1.555" id="path28328"/>
  <path d="M 73.051 184.957 L 65.3 203.432 L 63.228 202.454 C 63.09 200.497 63.234 198.649 63.659 196.91 L 32.794 182.337 C 32.353 183.075 31.806 183.81 31.15 184.541 C 30.495 185.272 29.845 185.887 29.2 186.387 L 27.128 185.408 L 34.879 166.933 L 36.951 167.911 C 37.053 168.811 37.067 169.763 36.994 170.769 C 36.9 171.718 36.743 172.614 36.52 173.455 L 67.385 188.028 C 67.862 187.307 68.401 186.592 69.004 185.883 C 69.623 185.135 70.281 184.5 70.979 183.978 L 73.051 184.957 Z" style="font-style:normal;font-variant:normal;font-weight:bold;font-stretch:normal;font-size:59.9288px;line-height:1.25;font-family:'PT Serif';-inkscape-font-specification:'PT Serif Bold';letter-spacing:-0.31px;fill:#000000;fill-opacity:1;stroke:none;stroke-width:1.555" id="path28330"/>
  <path d="M 88.652 155.392 L 77.236 174.053 L 75.341 172.72 C 75.518 171.81 75.75 170.809 76.037 169.718 C 76.313 168.567 76.672 167.475 77.114 166.441 L 48.792 146.52 L 44.942 152.813 L 51.345 162.282 L 49.984 164.506 C 49.231 164.183 48.295 163.731 47.176 163.151 C 46.057 162.571 44.916 161.949 43.752 161.286 C 42.589 160.623 41.453 159.954 40.345 159.278 C 39.204 158.579 38.251 157.96 37.486 157.422 L 58.626 122.868 C 59.424 123.429 60.332 124.12 61.352 124.94 C 62.371 125.761 63.396 126.611 64.427 127.491 C 65.458 128.371 66.444 129.246 67.386 130.115 C 68.295 130.962 69.054 131.702 69.664 132.338 L 68.27 134.616 L 57.619 132.091 L 53.77 138.383 L 82.092 158.304 C 82.834 157.481 83.597 156.699 84.383 155.959 C 85.191 155.182 85.983 154.549 86.757 154.059 L 88.652 155.392 Z" style="font-style:normal;font-variant:normal;font-weight:bold;font-stretch:normal;font-size:59.9288px;line-height:1.25;font-family:'PT Serif';-inkscape-font-specification:'PT Serif Bold';letter-spacing:-0.31px;fill:#000000;fill-opacity:1;stroke:none;stroke-width:1.555" id="path28332"/>
  <path d="M 81.216 96.082 L 91.6 84.809 L 93.207 86.532 C 93.037 87.265 92.81 88.058 92.527 88.914 C 92.244 89.708 91.876 90.442 91.424 91.115 L 97.582 115.466 L 107.141 125.719 C 107.762 125.166 108.468 124.734 109.259 124.423 C 110.05 124.052 110.826 123.756 111.588 123.537 L 113.195 125.261 L 100.142 139.434 L 98.535 137.71 C 98.761 136.917 99.059 136.077 99.426 135.19 C 99.794 134.304 100.247 133.448 100.784 132.621 L 91.267 122.414 L 68.284 116.24 C 67.522 116.824 66.731 117.318 65.912 117.72 C 65.121 118.092 64.359 118.402 63.625 118.651 L 62.018 116.927 L 75.919 101.834 L 77.526 103.558 C 77.356 104.23 77.129 104.962 76.846 105.757 C 76.563 106.551 76.153 107.392 75.616 108.279 L 93.011 113.857 L 87.44 95.441 C 86.65 95.995 85.845 96.473 85.026 96.876 C 84.207 97.278 83.473 97.588 82.823 97.806 L 81.216 96.082 Z" style="font-style:normal;font-variant:normal;font-weight:bold;font-stretch:normal;font-size:59.9288px;line-height:1.25;font-family:'PT Serif';-inkscape-font-specification:'PT Serif Bold';letter-spacing:-0.31px;fill:#000000;fill-opacity:1;stroke:none;stroke-width:1.555" id="path28334"/>
  <path d="M 128.493 81.343 C 127.272 78.277 126.55 75.253 126.326 72.273 C 126.086 69.253 126.38 66.423 127.21 63.781 C 128.023 61.101 129.377 58.677 131.27 56.51 C 133.163 54.343 135.617 52.54 138.631 51.101 C 141.645 49.662 144.521 48.921 147.259 48.877 C 149.997 48.833 152.522 49.405 154.832 50.594 C 157.164 51.726 159.259 53.416 161.116 55.664 C 162.957 57.872 164.488 60.51 165.709 63.576 C 166.93 66.642 167.66 69.685 167.9 72.704 C 168.124 75.685 167.829 78.515 167.016 81.196 C 166.223 83.82 164.88 86.215 162.987 88.382 C 161.094 90.549 158.64 92.352 155.626 93.791 C 152.612 95.23 149.736 95.971 146.998 96.015 C 144.26 96.059 141.725 95.515 139.393 94.383 C 137.046 93.212 134.951 91.522 133.11 89.313 C 131.252 87.066 129.714 84.409 128.493 81.343 L 128.493 81.343 Z M 137.866 76.868 C 138.867 79.384 139.982 81.635 141.211 83.621 C 142.423 85.569 143.729 87.144 145.126 88.348 C 146.545 89.495 148.041 90.231 149.614 90.556 C 151.208 90.824 152.869 90.546 154.597 89.721 C 156.177 88.967 157.347 87.894 158.105 86.502 C 158.848 85.072 159.263 83.423 159.351 81.557 C 159.424 79.651 159.184 77.567 158.633 75.304 C 158.103 72.984 157.338 70.566 156.336 68.05 C 155.335 65.535 154.227 63.303 153.015 61.356 C 151.823 59.352 150.536 57.768 149.154 56.603 C 147.793 55.382 146.315 54.637 144.721 54.369 C 143.148 54.044 141.48 54.302 139.715 55.145 C 138.025 55.952 136.79 57.079 136.01 58.527 C 135.215 59.936 134.781 61.594 134.709 63.499 C 134.657 65.348 134.915 67.424 135.482 69.726 C 136.07 71.972 136.864 74.352 137.866 76.868 L 137.866 76.868 Z" style="font-style:normal;font-variant:normal;font-weight:bold;font-stretch:normal;font-size:59.9288px;line-height:1.25;font-family:'PT Serif';-inkscape-font-specification:'PT Serif Bold';letter-spacing:-0.31px;fill:#000000;fill-opacity:1;stroke:none;stroke-width:1.555" id="path28336"/>
  <path d="M 187.079 75.525 C 188.9 75.161 190.729 75.179 192.568 75.579 L 193.263 77.916 L 175.65 84.059 L 174.955 81.722 C 175.453 81.141 176.002 80.588 176.601 80.062 C 177.187 79.496 177.83 78.977 178.529 78.507 L 168.177 43.701 C 167.242 43.8 166.384 43.805 165.602 43.716 C 164.859 43.614 164.172 43.491 163.543 43.349 L 162.848 41.012 L 192.658 30.614 C 192.902 31.434 193.132 32.349 193.349 33.36 C 193.553 34.329 193.751 35.346 193.942 36.411 C 194.158 37.421 194.337 38.445 194.478 39.482 C 194.644 40.465 194.773 41.392 194.865 42.265 L 192.528 43.08 L 187.748 36.738 L 176.69 40.595 L 181.5 56.769 L 189.309 54.045 L 190.466 48.415 L 192.176 47.819 C 192.645 48.832 193.075 49.926 193.467 51.102 C 193.896 52.264 194.288 53.44 194.642 54.629 C 194.969 55.872 195.266 57.081 195.531 58.255 C 195.835 59.416 196.064 60.468 196.218 61.409 L 194.508 62.006 L 190.498 58.042 L 182.689 60.766 L 187.079 75.525 Z" style="font-style:normal;font-variant:normal;font-weight:bold;font-stretch:normal;font-size:59.9288px;line-height:1.25;font-family:'PT Serif';-inkscape-font-specification:'PT Serif Bold';letter-spacing:-0.31px;fill:#000000;fill-opacity:1;stroke:none;stroke-width:1.555" id="path28338"/>
  <path d="M 244.936 65.887 C 246.767 66.162 248.489 66.803 250.102 67.808 L 250.043 70.262 L 231.533 70.088 L 231.592 67.634 C 232.24 67.253 232.927 66.915 233.654 66.62 C 234.381 66.283 235.146 66.01 235.95 65.802 L 236.834 29.256 C 235.921 29.032 235.109 28.745 234.399 28.394 C 233.728 28.043 233.117 27.693 232.567 27.343 L 232.626 24.889 L 263.956 25.184 C 263.935 26.045 263.872 26.992 263.767 28.024 C 263.663 29.013 263.539 30.046 263.393 31.121 C 263.288 32.153 263.143 33.185 262.958 34.216 C 262.815 35.205 262.652 36.13 262.472 36.989 L 260.016 36.966 L 257.445 29.321 L 245.823 29.212 L 245.412 46.193 L 253.619 46.27 L 256.435 41.324 L 258.232 41.341 C 258.365 42.461 258.436 43.646 258.446 44.895 C 258.496 46.144 258.505 47.393 258.475 48.641 C 258.404 49.932 258.314 51.18 258.205 52.384 C 258.136 53.589 258.03 54.665 257.887 55.611 L 256.09 55.594 L 253.518 50.467 L 245.311 50.39 L 244.936 65.887 Z" style="font-style:normal;font-variant:normal;font-weight:bold;font-stretch:normal;font-size:59.9288px;line-height:1.25;font-family:'PT Serif';-inkscape-font-specification:'PT Serif Bold';letter-spacing:-0.31px;fill:#000000;fill-opacity:1;stroke:none;stroke-width:1.555" id="path28340"/>
  <path d="M 271.64 72.134 L 256.971 70.236 L 257.259 67.798 C 257.943 67.452 258.659 67.176 259.407 66.969 C 260.2 66.724 260.962 66.562 261.695 66.483 L 281.906 27.082 L 286.301 27.651 L 296.32 70.963 C 297.092 71.237 297.854 71.596 298.605 72.04 C 299.362 72.442 300.012 72.896 300.555 73.4 L 300.267 75.838 L 281.677 73.433 L 281.965 70.995 C 282.763 70.707 283.618 70.449 284.529 70.219 C 285.441 69.99 286.303 69.841 287.115 69.772 L 284.875 59.125 L 271.69 57.419 L 266.981 67.167 C 268.772 67.659 270.421 68.502 271.928 69.696 L 271.64 72.134 Z M 273.608 53.433 L 284.12 54.793 L 281.708 42.039 L 281.231 36.375 L 281.112 36.359 L 279.139 41.836 L 273.608 53.433 Z" style="font-style:normal;font-variant:normal;font-weight:bold;font-stretch:normal;font-size:59.9288px;line-height:1.25;font-family:'PT Serif';-inkscape-font-specification:'PT Serif Bold';letter-spacing:-0.31px;fill:#000000;fill-opacity:1;stroke:none;stroke-width:1.555" id="path28342"/>
  <path d="M 318.807 83.114 L 301.259 76.491 L 302.044 74.174 C 303.848 73.845 305.566 73.829 307.2 74.125 L 318.904 39.609 C 318.195 39.204 317.484 38.683 316.769 38.046 C 316.055 37.41 315.448 36.768 314.948 36.121 L 315.734 33.804 L 333.282 40.427 L 332.496 42.744 C 331.669 42.936 330.789 43.04 329.853 43.054 C 328.969 43.041 328.132 42.954 327.341 42.793 L 315.636 77.309 C 316.331 77.755 317.024 78.268 317.715 78.85 C 318.443 79.446 319.069 80.095 319.592 80.797 L 318.807 83.114 Z" style="font-style:normal;font-variant:normal;font-weight:bold;font-stretch:normal;font-size:59.9288px;line-height:1.25;font-family:'PT Serif';-inkscape-font-specification:'PT Serif Bold';letter-spacing:-0.31px;fill:#000000;fill-opacity:1;stroke:none;stroke-width:1.555" id="path28344"/>
  <path d="M 336.691 86.726 C 337.396 87.383 337.984 88.047 338.456 88.716 C 338.928 89.386 339.383 90.045 339.82 90.694 L 338.709 92.857 L 322.595 83.463 L 323.705 81.301 C 324.706 81.293 325.614 81.378 326.429 81.557 C 327.263 81.698 328.067 81.896 328.843 82.151 L 345.379 49.938 C 343.85 48.504 342.702 47.12 341.936 45.786 L 343.047 43.623 L 348.592 46.856 C 349.29 47.263 350.085 47.701 350.976 48.172 C 351.902 48.663 352.864 49.174 353.86 49.705 C 354.875 50.198 355.899 50.721 356.93 51.273 C 357.98 51.787 358.976 52.318 359.918 52.867 C 361.836 53.985 363.471 55.259 364.822 56.687 C 366.228 58.098 367.263 59.613 367.927 61.233 C 368.626 62.873 368.919 64.597 368.807 66.405 C 368.749 68.195 368.233 70.038 367.259 71.936 C 365.857 74.668 364.097 76.55 361.98 77.584 C 359.864 78.618 357.517 78.951 354.942 78.583 C 355.11 81.787 355.336 85.098 355.62 88.518 C 355.924 91.899 356.353 95.255 356.909 98.586 L 358.486 101.871 L 357.492 103.807 L 348.755 98.713 L 347.469 95.523 C 346.936 92.501 346.743 89.258 346.889 85.794 C 347.091 82.313 347.402 78.97 347.824 75.765 L 343.586 73.294 L 336.691 86.726 Z M 356.135 55.468 C 355.054 54.838 354.124 54.443 353.344 54.285 L 345.193 70.164 L 348.28 71.963 C 350.058 73 351.926 73.202 353.883 72.568 C 355.859 71.896 357.549 70.194 358.951 67.462 C 359.672 66.058 360.111 64.761 360.269 63.572 C 360.446 62.344 360.386 61.224 360.089 60.213 C 359.793 59.202 359.304 58.301 358.622 57.51 C 357.941 56.718 357.112 56.038 356.135 55.468 L 356.135 55.468 Z" style="font-style:normal;font-variant:normal;font-weight:bold;font-stretch:normal;font-size:59.9288px;line-height:1.25;font-family:'PT Serif';-inkscape-font-specification:'PT Serif Bold';letter-spacing:-0.31px;fill:#000000;fill-opacity:1;stroke:none;stroke-width:1.555" id="path28346"/>
  <path d="M 373.985 117.461 L 360.492 104.624 L 362.015 102.772 C 362.761 102.96 363.567 103.235 364.434 103.596 C 365.331 103.986 366.129 104.398 366.83 104.833 L 389.524 77.253 C 388.919 76.445 388.396 75.6 387.957 74.719 C 387.518 73.838 387.211 73.053 387.035 72.366 L 388.559 70.514 L 402.053 83.351 L 400.529 85.203 C 399.816 85.104 399.071 84.916 398.293 84.639 C 397.545 84.391 396.849 84.047 396.204 83.608 L 386.501 95.4 L 398.303 106.627 L 408.006 94.835 C 407.46 94.084 407.026 93.324 406.706 92.556 C 406.415 91.816 406.182 91.102 406.007 90.414 L 407.53 88.562 L 421.024 101.399 L 419.5 103.251 C 418.702 103.128 417.882 102.87 417.042 102.476 C 416.202 102.082 415.416 101.653 414.686 101.19 L 391.991 128.771 C 392.567 129.55 393.06 130.366 393.47 131.22 C 393.909 132.101 394.246 132.914 394.48 133.658 L 392.957 135.51 L 379.463 122.672 L 380.987 120.821 C 381.673 120.952 382.39 121.142 383.138 121.39 C 383.886 121.639 384.611 121.981 385.311 122.416 L 395.696 109.795 L 383.895 98.568 L 373.51 111.188 C 373.997 111.883 374.399 112.584 374.717 113.292 C 375.034 114 375.298 114.772 375.509 115.61 L 373.985 117.461 Z" style="font-style:normal;font-variant:normal;font-weight:bold;font-stretch:normal;font-size:59.9288px;line-height:1.25;font-family:'PT Serif';-inkscape-font-specification:'PT Serif Bold';letter-spacing:-0.31px;fill:#000000;fill-opacity:1;stroke:none;stroke-width:1.555" id="path28348"/>
  <path d="M 411.684 120.971 C 414.271 119.05 416.903 117.666 419.582 116.818 C 422.294 115.945 424.925 115.677 427.475 116.014 C 430.058 116.326 432.498 117.262 434.797 118.822 C 437.096 120.382 439.159 122.609 440.985 125.505 C 442.812 128.4 443.98 131.293 444.488 134.182 C 444.996 137.072 444.905 139.861 444.216 142.551 C 443.582 145.251 442.399 147.814 440.667 150.241 C 438.969 152.642 436.826 154.803 434.239 156.724 C 431.653 158.644 429.003 160.041 426.292 160.913 C 423.613 161.762 420.982 162.03 418.399 161.718 C 415.872 161.416 413.459 160.486 411.16 158.926 C 408.861 157.366 406.798 155.138 404.971 152.243 C 403.145 149.347 401.977 146.455 401.469 143.565 C 400.961 140.676 401.024 137.881 401.658 135.181 C 402.325 132.456 403.508 129.893 405.207 127.491 C 406.938 125.064 409.097 122.891 411.684 120.971 L 411.684 120.971 Z M 417.365 129.975 C 415.242 131.551 413.381 133.192 411.779 134.9 C 410.211 136.582 408.998 138.287 408.139 140.013 C 407.336 141.75 406.921 143.484 406.893 145.216 C 406.921 146.958 407.459 148.659 408.506 150.319 C 409.463 151.837 410.641 152.855 412.039 153.373 C 413.47 153.866 415.044 153.968 416.761 153.679 C 418.51 153.365 420.37 152.684 422.339 151.637 C 424.363 150.601 426.436 149.295 428.559 147.719 C 430.681 146.144 432.526 144.514 434.094 142.832 C 435.718 141.16 436.942 139.473 437.768 137.771 C 438.649 136.08 439.075 134.364 439.047 132.621 C 439.075 130.89 438.554 129.177 437.485 127.482 C 436.46 125.857 435.221 124.781 433.768 124.252 C 432.348 123.699 430.763 123.58 429.013 123.894 C 427.319 124.218 425.47 124.916 423.468 125.988 C 421.522 127.07 419.487 128.399 417.365 129.975 L 417.365 129.975 Z" style="font-style:normal;font-variant:normal;font-weight:bold;font-stretch:normal;font-size:59.9288px;line-height:1.25;font-family:'PT Serif';-inkscape-font-specification:'PT Serif Bold';letter-spacing:-0.31px;fill:#000000;fill-opacity:1;stroke:none;stroke-width:1.555" id="path28350"/>
  <path d="M 426.723 179.16 C 427.113 180.26 427.424 181.384 427.655 182.53 C 427.941 183.693 428.116 184.775 428.18 185.775 L 426.198 186.968 L 416.41 168.16 L 418.392 166.967 C 419.146 167.452 419.851 168.017 420.506 168.661 C 421.181 169.343 421.783 170.018 422.314 170.688 L 451.834 152.913 C 451.522 151.963 451.282 151.019 451.114 150.082 C 450.981 149.124 450.921 148.22 450.936 147.371 L 452.918 146.177 L 456.621 153.294 C 457.405 154.8 458.366 156.471 459.505 158.308 C 460.663 160.182 461.663 161.929 462.506 163.548 C 463.545 165.543 464.363 167.598 464.96 169.711 C 465.612 171.84 465.885 173.901 465.78 175.893 C 465.694 177.923 465.157 179.829 464.167 181.612 C 463.211 183.374 461.656 184.904 459.5 186.202 C 457.449 187.438 455.44 188.053 453.475 188.05 C 451.529 188.084 449.687 187.66 447.95 186.778 C 446.212 185.896 444.6 184.641 443.114 183.014 C 441.662 181.366 440.408 179.525 439.349 177.492 C 439.251 177.303 439.095 177.002 438.879 176.588 C 438.664 176.174 438.428 175.722 438.174 175.232 C 437.973 174.76 437.755 174.297 437.52 173.845 C 437.34 173.41 437.218 173.088 437.154 172.879 L 426.723 179.16 Z M 458.352 164.121 C 457.96 163.368 457.611 162.786 457.307 162.376 C 457.056 161.983 456.771 161.61 456.451 161.259 L 440.597 170.806 C 440.669 171.208 440.864 171.758 441.182 172.457 C 441.534 173.135 441.818 173.68 442.034 174.095 C 442.563 175.111 443.229 175.996 444.032 176.749 C 444.835 177.502 445.753 178.037 446.785 178.355 C 447.838 178.71 449.003 178.8 450.282 178.623 C 451.56 178.447 452.929 177.919 454.39 177.04 C 457.171 175.365 458.84 173.396 459.397 171.131 C 459.954 168.867 459.606 166.53 458.352 164.121 L 458.352 164.121 Z" style="font-style:normal;font-variant:normal;font-weight:bold;font-stretch:normal;font-size:59.9288px;line-height:1.25;font-family:'PT Serif';-inkscape-font-specification:'PT Serif Bold';letter-spacing:-0.31px;fill:#000000;fill-opacity:1;stroke:none;stroke-width:1.555" id="path28352"/>
  <path d="M 478.703 222.451 C 476.946 222.859 475.116 223.221 473.213 223.537 C 471.31 223.852 469.508 224.073 467.806 224.198 L 467.179 221.635 L 473.305 216.826 L 470.446 205.135 L 456.267 209.148 L 458.132 216.775 L 463.261 218.265 L 463.75 220.265 C 461.91 221.009 459.833 221.708 457.518 222.363 C 455.203 223.019 453.017 223.526 450.959 223.885 L 450.47 221.885 L 454.37 217.84 L 452.505 210.212 L 437.457 214.471 L 440.438 226.663 L 448.598 227.896 L 449.225 230.459 C 448.533 230.833 447.744 231.235 446.859 231.664 C 445.973 232.093 445.039 232.491 444.057 232.858 C 443.123 233.256 442.159 233.618 441.166 233.943 C 440.183 234.311 439.267 234.614 438.419 234.855 L 430.148 201.031 L 432.348 200.409 C 432.868 201.019 433.39 201.718 433.913 202.506 C 434.435 203.294 434.891 204.145 435.28 205.06 L 468.038 195.789 C 467.988 194.912 467.981 193.956 468.017 192.921 C 468.102 191.917 468.25 191.006 468.463 190.188 L 470.662 189.565 L 478.703 222.451 Z" style="font-style:normal;font-variant:normal;font-weight:bold;font-stretch:normal;font-size:59.9288px;line-height:1.25;font-family:'PT Serif';-inkscape-font-specification:'PT Serif Bold';letter-spacing:-0.31px;fill:#000000;fill-opacity:1;stroke:none;stroke-width:1.555" id="path28354"/>
  <ellipse style="fill:url(#linearGradient28236);fill-opacity:1;stroke:#000000;stroke-width:4;stroke-miterlimit:4;stroke-dasharray:none;stroke-opacity:1" id="path181143" cx="248.5" cy="257.5" rx="183.306" ry="180.671"/>
  <path style="stroke: rgb(0, 0, 0); stroke-width: 4.12503px; fill: rgb(168, 105, 46);" d="M 92.82 352.912 C 91.712 349.465 132.744 332.985 157.029 331.636 C 176.015 330.581 194.723 332.013 213.686 331.379 C 225.003 331 238.176 326.432 249.546 328.392 C 279.195 333.503 309.086 342.695 338.87 346.208 C 355.577 348.178 373.718 350.565 390.026 354.642 C 393.801 355.586 396.183 359.844 400.114 360.703 C 405.116 361.795 406.836 356.896 403.624 361.713 C 398.921 368.765 402.413 367.583 394.694 371.76 C 390.382 374.094 381.118 384.839 377.136 387.428 C 367.522 393.678 351.473 407.52 341.149 412.804 C 311.952 427.747 284.915 431.399 243.31 435.99 C 233.132 437.113 219.159 430.039 208.9 431.322 C 204.642 431.854 171.312 419.779 158.182 413.648 C 141.799 405.997 96.574 363.646 92.82 352.912 Z"/>
  <g transform="matrix(1, 0, 0, 1, 95.402756, 36.606426)">
    <path class="cls-2" d="M89.33,64.05l3.41-.57C92.55,81.26,93,99,93,116.82l-3.44,0C89.3,99.21,89.72,81.63,89.33,64.05Z" style="fill: rgb(204, 204, 204); stroke: rgb(204, 204, 204); stroke-width: 0.09px;"/>
    <path class="cls-3" d="M81.47,64.67c2.62-.17,5.25-.27,7.86-.62.39,17.58,0,35.16.22,52.74l3.44,0q22.73,0,45.45,0c0,2.72.06,5.43.06,8.15-23,.26-46.07-.17-69.07.67,0-2.85.06-5.71.1-8.55,3.88,0,7.77,0,11.65,0C81.45,99.59,80.91,82.12,81.47,64.67Z" style="fill: rgb(255, 255, 255); stroke: rgb(255, 255, 255); stroke-width: 0.09px;"/>
    <path class="cls-4" d="M140.07,109.93c3.75-.35,2.42,4.6,2.72,6.9,0,2.73-.07,5.45,0,8.18,0,1.11,0,2.22,0,3.34,0,1.55,0,3.11,0,4.68,0,1.87.05,3.75.05,5.63,0,1.06-.1,3.19-.13,4.26.11.43.34,1.3.45,1.74l-1.48,1-1.92.16c-.31-.28-.93-.83-1.25-1.1.06-.46.16-1.39.21-1.85-.07-1-.21-3-.27-4,0-1.92,0-3.84.06-5.75,0-1.57,0-3.13,0-4.69,0-1.13,0-2.26,0-3.38,0-2.72,0-5.43-.06-8.15C138.85,114.61,137.48,111.05,140.07,109.93Z" style="fill: rgb(168, 125, 74); stroke: rgb(168, 125, 74); stroke-width: 0.09px;"/>
    <path class="cls-4" d="M234.19,116.59c-.08-2.74-.38-6,2.66-7.25,1.65,2.08,1.81,4.71,1.7,7.25,0,2.73-.08,5.47-.06,8.22v3.27c0,1.57,0,3.14,0,4.72s.07,3.46.14,5.19c-.21,2.55.79,5.55-.9,7.75a5.72,5.72,0,0,1-3.24-1c0-.77.08-2.3.1-3.06-.2-1.24-.35-2.48-.46-3.71,0-1.73,0-3.45.08-5.16s0-3.19,0-4.78v-3.21C234.24,122.07,234.22,119.33,234.19,116.59Z" style="fill: rgb(168, 125, 74); stroke: rgb(168, 125, 74); stroke-width: 0.09px;"/>
    <path class="cls-3" d="M142.79,116.83c9.32,0,18.66.16,28-.23q31.71,0,63.42,0c0,2.74.05,5.48,0,8.22-30.5-.12-61,.34-91.49.2C142.72,122.28,142.75,119.56,142.79,116.83Z" style="fill: rgb(255, 255, 255); stroke: rgb(255, 255, 255); stroke-width: 0.09px;"/>
    <path class="cls-3" d="M238.55,116.59c15.29,0,30.61-.7,45.9,0,.11,2.68.21,5.37.54,8-15.5-.36-31,.45-46.5.15C238.47,122.06,238.51,119.32,238.55,116.59Z" style="fill: rgb(255, 255, 255); stroke: rgb(255, 255, 255); stroke-width: 0.09px;"/>
    <path class="cls-2" d="M69.43,125.65c23-.84,46.05-.41,69.07-.67,0,1.12,0,2.25,0,3.38-15.18,0-30.34.25-45.51.24.11,19.67-.25,39.35.26,59,.13,27.74-.32,55.48.25,83.21-.22,6.91.49,13.88-.42,20.75l-2.61,0c-1-16.66-.23-33.37-.47-50.05,0-37.65-.42-75.3-.27-112.95-2.75,0-5.5-.05-8.24,0-4-.14-8.17.6-12.06-.69Z" style="fill: rgb(204, 204, 204); stroke: rgb(204, 204, 204); stroke-width: 0.09px;"/>
    <path class="cls-2" d="M142.74,125c30.49.14,61-.32,91.49-.2V128c-30.5.09-61,.47-91.49.33C142.73,127.23,142.73,126.12,142.74,125Z" style="fill: rgb(204, 204, 204); stroke: rgb(204, 204, 204); stroke-width: 0.09px;"/>
    <path class="cls-2" d="M238.49,124.81c15.5.3,31-.51,46.5-.15l.56,3.14c-15.68.59-31.38.16-47.06.28Z" style="fill: rgb(204, 204, 204); stroke: rgb(204, 204, 204); stroke-width: 0.09px;"/>
    <path class="cls-3" d="M81.49,128.58c2.74,0,5.49,0,8.24,0-.15,37.65.26,75.3.27,113,.24,16.68-.54,33.39.47,50.05-2.83,0-5.65,0-8.47,0-.45-6.91-.21-13.83-.26-20.75-.11-22.08.26-44.16-.26-66.23Q81.51,166.59,81.49,128.58Z" style="fill: rgb(255, 255, 255); stroke: rgb(255, 255, 255); stroke-width: 0.09px;"/>
    <path class="cls-5" d="M142.75,133c30.48.19,61-.28,91.45-.23,0,1.71-.1,3.43-.08,5.16-1.56,1.85-3.89,4.09-2.64,6.74,1.47,4.53,8.93,4.23,10-.43.88-2.59-1.33-4.56-2.86-6.28-.07-1.73-.13-3.46-.14-5.19,6,0,12,0,17.93,0,.69.68,1.38,1.38,2.09,2.07q.33,24.85.24,49.7c.49,12,.17,24,.3,36-.1,3.37.72,7.22-1.92,9.86a52.34,52.34,0,0,1-13.82-9.06c1.55-.19,3.12-.45,4.68-.72.07-9.63,0-19.26-.39-28.89-16.28-1.16-32.62.1-48.93-.18H198c-3.29-2.36-6.62-4.64-9.87-7l-.25-.51c-2.28-5.6-4.43-11.26-6.89-16.78l-4.33.08q-1.56,3.58-3.08,7.2c-2.2-1.3-4.39-2.62-6.45-4.11.16-.49.49-1.48.66-2a43.48,43.48,0,0,0-6.52-1.63c-9.32-7.09-19.25-13.3-28.94-19.87-5.09-3.23-9.84-7-15.14-9.9.08-1.68.37-4,2.62-3.88,6.21-.42,12.45,0,18.68-.13,0,1.91-.09,3.83-.06,5.75-1.76,1.73-3.8,4-2.62,6.64,1.56,4.61,9.23,3.95,9.94-.9.79-2.56-1.23-4.36-2.93-5.88,0-1.88-.05-3.76-.05-5.63m40.41,14.18c-3.78.77-5.75,4.88-5.14,8.47.16,5.23,7,8,11.16,5.34,4.19-2.43,4.53-8.84,1.36-12.23a7.83,7.83,0,0,0-7.38-1.58m-16.68.12q0,7.13,0,14.26h3.66c.06-1.71.13-3.4.2-5.1l5.86.24v-3.4h-6c0-.67-.08-2-.1-2.67q3.3,0,6.63,0c0-.82,0-2.46,0-3.28-3.42-.06-6.84-.06-10.25,0m28.05-.16c-.1,4.81-.06,9.62-.05,14.44l3.87-.07c-.07-1.64-.12-3.27-.14-4.9,2.3.72,3.18,3.22,4.55,5l4.18,0q-1.69-2.43-3.33-4.87c1.84-1.75,3.64-4.38,2-6.9-2.16-3.95-7.49-2.21-11.13-2.64m-3.78,20.2c0,5.74,0,11.48,0,17.22h12.19c-.09-1.4-.17-2.79-.25-4.18-2.51.13-5,.18-7.51.16.05-4.41,0-8.82,0-13.22q-2.24,0-4.44,0m15,0q0,8.63,0,17.25c4.2,0,8.41.08,12.61-.13,0-1.26.09-2.52.14-3.78-2.86-.12-5.73-.17-8.58-.19.05-.64.16-1.92.22-2.56l7.69-.13c-.12-1.33-.23-2.65-.34-4a58.4,58.4,0,0,1-7.24.25c-.06-.66-.17-2-.23-2.65,2.64.11,5.28.18,7.94.2,0-1.43,0-2.86.07-4.28Q211.87,167.31,205.75,167.33Z" style="fill: rgb(212, 86, 41); stroke: rgb(212, 86, 41); stroke-width: 0.09px;"/>
    <path class="cls-6" d="M117.17,137.06c5.3,2.9,10,6.67,15.14,9.9,9.69,6.57,19.62,12.78,28.94,19.87-1.65.61-3.67.91-4.73,2.46-1.51,2.45-1.14,6.55,1.94,7.59,2.09,1.08,5.2.47,6.54,2.7-2.09,2.53-5.4.74-7.75-.31-.77,1-1.53,2-2.29,3,3.88,4.18,13.36,4.1,14.19-2.63.24-5.3-6.28-5.6-9.88-7.12,1.94-2.16,4.7-1.22,7.09-.62l.75-1.44c2.06,1.49,4.25,2.81,6.45,4.11l-.19.45q-2,4.78-3.8,9.65c1.56-.07,3.14-.13,4.73-.18.4-1,.81-2,1.23-3q3.5.24,7,.54l1,2.65,4.62-.08c3.25,2.4,6.58,4.68,9.87,7-23.45.17-46.9-.37-70.33.31-.32,9.86-.26,19.74.25,29.6,38,.25,76.09-.48,114.14-.09l1.26,0a52.34,52.34,0,0,0,13.82,9.06c-9.46-.28-18.91,0-28.36.16q-52.5-.14-105,.28c-1.94-.31-4.82.68-5.9-1.48-.78-3.55-.26-7.23-.36-10.83C116.92,191.4,117.45,164.23,117.17,137.06Z" style="fill: rgb(241, 90, 36); stroke: rgb(241, 90, 36); stroke-width: 0.09px;"/>
    <path class="cls-7" d="M231.48,144.7c-1.25-2.65,1.08-4.89,2.64-6.74.11,1.23.26,2.47.46,3.71-1.59.12-1.55,2.72-.1,3.06a5.72,5.72,0,0,0,3.24,1c1.69-2.2.69-5.2.9-7.75,1.53,1.72,3.74,3.69,2.86,6.28C240.41,148.93,233,149.23,231.48,144.7Z" style="fill: rgb(219, 176, 19); stroke: rgb(219, 176, 19); stroke-width: 0.09px;"/>
    <path class="cls-8" d="M135.79,145.44c-1.18-2.67.86-4.91,2.62-6.64.06,1,.2,3,.27,4-1.5.24-1.56.85-.21,1.85.32.27.94.82,1.25,1.1.75,1.39,1.39,1.33,1.92-.16l1.48-1c1.2-1.06,1-1.65-.45-1.74,0-1.07.1-3.2.13-4.26,1.7,1.52,3.72,3.32,2.93,5.88C145,149.39,137.35,150.05,135.79,145.44Z" style="fill: rgb(221, 178, 17); stroke: rgb(221, 178, 17); stroke-width: 0.09px;"/>
    <path class="cls-9" d="M234.48,144.73c-1.45-.34-1.49-2.94.1-3.06C234.56,142.43,234.51,144,234.48,144.73Z" style="fill: rgb(189, 164, 116); stroke: rgb(189, 164, 116); stroke-width: 0.09px;"/>
    <path class="cls-10" d="M138.47,144.7c-1.35-1-1.29-1.61.21-1.85C138.63,143.31,138.53,144.24,138.47,144.7Z" style="fill: rgb(204, 182, 108); stroke: rgb(204, 182, 108); stroke-width: 0.09px;"/>
    <path class="cls-11" d="M142.67,142.92c1.5.09,1.65.68.45,1.74C143,144.22,142.78,143.35,142.67,142.92Z" style="fill: rgb(216, 196, 97); stroke: rgb(216, 196, 97); stroke-width: 0.09px;"/>
    <path class="cls-12" d="M139.72,145.8l1.92-.16C141.11,147.13,140.47,147.19,139.72,145.8Z" style="fill: rgb(213, 189, 89); stroke: rgb(213, 189, 89); stroke-width: 0.09px;"/>
    <path class="cls-13" d="M183.16,147.21a7.83,7.83,0,0,1,7.38,1.58c3.17,3.39,2.83,9.8-1.36,12.23-4.17,2.67-11-.11-11.16-5.34-.61-3.59,1.36-7.7,5.14-8.47m0,3.89c-2.56,1.8-1.67,7.08,1.75,7.21,2.7.73,4.45-2.52,3.85-4.83C188.6,150.87,185.12,149.24,183.13,151.1Z" style="fill: rgb(223, 221, 220); stroke: rgb(223, 221, 220); stroke-width: 0.09px;"/>
    <path class="cls-13" d="M166.48,147.33c3.41,0,6.83,0,10.25,0,0,.82,0,2.46,0,3.28q-3.33,0-6.63,0c0,.66.07,2,.1,2.67h6v3.4l-5.86-.24c-.07,1.7-.14,3.39-.2,5.1h-3.66Q166.47,154.45,166.48,147.33Z" style="fill: rgb(223, 221, 220); stroke: rgb(223, 221, 220); stroke-width: 0.09px;"/>
    <path class="cls-13" d="M194.53,147.17c3.64.43,9-1.31,11.13,2.64,1.59,2.52-.21,5.15-2,6.9q1.63,2.44,3.33,4.87l-4.18,0c-1.37-1.76-2.25-4.26-4.55-5,0,1.63.07,3.26.14,4.9l-3.87.07c0-4.82,0-9.63.05-14.44m4,3.26c-.54,1.07-.3,2.33-.42,3.49,1.23,0,2.48,0,3.73-.19.92-1,.34-2.25.11-3.37C200.83,150.36,199.69,150.34,198.56,150.43Z" style="fill: rgb(223, 221, 220); stroke: rgb(223, 221, 220); stroke-width: 0.09px;"/>
    <path class="cls-5" d="M198.56,150.43c1.13-.09,2.27-.07,3.42-.07.23,1.12.81,2.37-.11,3.37-1.25.14-2.5.15-3.73.19C198.26,152.76,198,151.5,198.56,150.43Z" style="fill: rgb(212, 86, 41); stroke: rgb(212, 86, 41); stroke-width: 0.09px;"/>
    <path class="cls-5" d="M183.13,151.1c2-1.86,5.47-.23,5.6,2.38.6,2.31-1.15,5.56-3.85,4.83C181.46,158.18,180.57,152.9,183.13,151.1Z" style="fill: rgb(212, 86, 41); stroke: rgb(212, 86, 41); stroke-width: 0.09px;"/>
    <path class="cls-3" d="M156.52,169.29c1.06-1.55,3.08-1.85,4.73-2.46a43.48,43.48,0,0,1,6.52,1.63c-.17.49-.5,1.48-.66,2l-.75,1.44c-2.39-.6-5.15-1.54-7.09.62,3.6,1.52,10.12,1.82,9.88,7.12-.83,6.73-10.31,6.81-14.19,2.63.76-1,1.52-2,2.29-3,2.35,1,5.66,2.84,7.75.31-1.34-2.23-4.45-1.62-6.54-2.7C155.38,175.84,155,171.74,156.52,169.29Z" style="fill: rgb(255, 255, 255); stroke: rgb(255, 255, 255); stroke-width: 0.09px;"/>
    <path class="cls-13" d="M173.56,174.54q1.51-3.61,3.08-7.2l4.33-.08c2.46,5.52,4.61,11.18,6.89,16.78a111.73,111.73,0,0,1-9.57-6.2l2.46-.31-1.83-5.14q-1.08,2.3-2.14,4.59c-1.15-.66-2.28-1.32-3.41-2Z" style="fill: rgb(223, 221, 220); stroke: rgb(223, 221, 220); stroke-width: 0.09px;"/>
    <path class="cls-13" d="M190.75,167.37q2.2,0,4.44,0c0,4.4,0,8.81,0,13.22,2.49,0,5,0,7.51-.16.08,1.39.16,2.78.25,4.18H190.74C190.74,178.85,190.73,173.11,190.75,167.37Z" style="fill: rgb(223, 221, 220); stroke: rgb(223, 221, 220); stroke-width: 0.09px;"/>
    <path class="cls-13" d="M205.75,167.33q6.12,0,12.27,0c0,1.42-.06,2.85-.07,4.28-2.66,0-5.3-.09-7.94-.2.06.66.17,2,.23,2.65a58.4,58.4,0,0,0,7.24-.25c.11,1.32.22,2.64.34,4l-7.69.13c-.06.64-.17,1.92-.22,2.56,2.85,0,5.72.07,8.58.19-.05,1.26-.1,2.52-.14,3.78-4.2.21-8.41.14-12.61.13Q205.72,176,205.75,167.33Z" style="fill: rgb(223, 221, 220); stroke: rgb(223, 221, 220); stroke-width: 0.09px;"/>
    <path class="cls-5" d="M178.92,172.39l1.83,5.14-2.46.31-1.51-.86Q177.85,174.69,178.92,172.39Z" style="fill: rgb(212, 86, 41); stroke: rgb(212, 86, 41); stroke-width: 0.09px;"/>
    <path class="cls-3" d="M169.57,184.64q1.78-4.87,3.8-9.65c1.13.67,2.26,1.33,3.41,2l1.51.86a111.73,111.73,0,0,0,9.57,6.2l.25.51-4.62.08-1-2.65q-3.51-.3-7-.54c-.42,1-.83,2-1.23,3C172.71,184.51,171.13,184.57,169.57,184.64Z" style="fill: rgb(255, 255, 255); stroke: rgb(255, 255, 255); stroke-width: 0.09px;"/>
    <path class="cls-3" d="M127.65,191.9c23.43-.68,46.88-.14,70.33-.31h.68c14.3,10.17,29.17,19.53,43.38,29.82-38-.39-76.1.34-114.14.09C127.39,211.64,127.33,201.76,127.65,191.9Z" style="fill: rgb(255, 255, 255); stroke: rgb(255, 255, 255); stroke-width: 0.09px;"/>
    <path class="cls-13" d="M198.66,191.59c16.31.28,32.65-1,48.93.18.43,9.63.46,19.26.39,28.89-1.56.27-3.13.53-4.68.72l-1.26,0C227.83,211.12,213,201.76,198.66,191.59Z" style="fill: rgb(223, 221, 220); stroke: rgb(223, 221, 220); stroke-width: 0.09px;"/>
  </g>
  <ellipse ry="173.168" rx="190.617" cy="253.716" cx="245.807" id="path181143-5" style="fill:none;fill-opacity:1;stroke:none;stroke-width:5.73949;stroke-miterlimit:4;stroke-dasharray:none;stroke-opacity:1"/>
  <path id="path28305" d="M 1.476 269.374 C -1.179 520.859 425.938 642.25 498.283 272.472 C 472.025 565.859 42.64 603.925 1.476 269.374 Z" style="fill:none;stroke:none;stroke-width:1px;stroke-linecap:butt;stroke-linejoin:miter;stroke-opacity:1"/>
  <g transform="matrix(1, 0, 0, 1, 113.915482, 170.254715)">
    <rect x="305.891" y="93.42" width="26.952" height="97.028" style="stroke: rgb(0, 0, 0); fill: rgb(185, 169, 144);"/>
    <rect x="294.864" y="97.45" width="12.349" height="93.187" style="paint-order: stroke; stroke: rgb(44, 30, 30); fill: rgb(132, 131, 131);"/>
    <rect x="253.194" y="91.283" width="41.645" height="99.55" style="stroke: rgb(0, 0, 0); fill: rgb(243, 238, 219);"/>
    <rect x="275.061" y="118.387" width="20.459" height="72.039" style="stroke: rgb(0, 0, 0); fill: rgb(185, 169, 144);"/>
    <rect x="241.269" y="94.016" width="12.661" height="95.542" style="stroke: rgb(0, 0, 0); fill: rgb(156, 153, 153);"/>
    <rect x="199.856" y="90.702" width="41.645" height="99.55" style="stroke: rgb(0, 0, 0); fill: rgb(243, 238, 219);"/>
    <rect x="139.18" y="83.692" width="13.946" height="105.235" style="stroke: rgb(0, 0, 0); fill: rgb(144, 143, 143);"/>
    <rect x="151.752" y="90.274" width="41.645" height="99.55" style="stroke: rgb(0, 0, 0); fill: rgb(226, 130, 130);"/>
    <rect x="186.91" y="80.604" width="14.517" height="109.544" style="stroke: rgb(0, 0, 0); fill: rgb(157, 154, 154);"/>
    <g transform="matrix(0.641276, 0, 0, 0.641276, 116.553444, -39.473976)" style="">
      <rect x="312.357" y="219.812" width="9.772" height="19.455" style="fill: rgb(216, 216, 216); stroke: rgb(0, 0, 0);"/>
      <rect x="309.681" y="219.317" width="1.843" height="21.298" style="fill: rgb(216, 216, 216); stroke: rgb(0, 0, 0);"/>
      <rect x="312.556" y="239.632" width="9.765" height="2.282" style="fill: rgb(216, 216, 216); stroke: rgb(0, 0, 0);"/>
    </g>
    <g transform="matrix(0.641276, 0, 0, 0.641276, 117.452675, -15.239602)" style="">
      <rect x="312.357" y="219.812" width="9.772" height="19.455" style="fill: rgb(216, 216, 216); stroke: rgb(0, 0, 0);"/>
      <rect x="309.681" y="219.317" width="1.843" height="21.298" style="fill: rgb(216, 216, 216); stroke: rgb(0, 0, 0);"/>
      <rect x="312.556" y="239.632" width="9.765" height="2.282" style="fill: rgb(216, 216, 216); stroke: rgb(0, 0, 0);"/>
    </g>
    <g transform="matrix(0.641276, 0, 0, 0.641276, 116.790375, 8.32605)" style="">
      <rect x="312.357" y="219.812" width="9.772" height="19.455" style="fill: rgb(216, 216, 216); stroke: rgb(0, 0, 0);"/>
      <rect x="309.681" y="219.317" width="1.843" height="21.298" style="fill: rgb(216, 216, 216); stroke: rgb(0, 0, 0);"/>
      <rect x="312.556" y="239.632" width="9.765" height="2.282" style="fill: rgb(216, 216, 216); stroke: rgb(0, 0, 0);"/>
    </g>
    <g transform="matrix(0.641276, 0, 0, 0.641276, 117.158188, 28.987976)" style="">
      <rect x="312.357" y="219.812" width="9.772" height="19.455" style="fill: rgb(216, 216, 216); stroke: rgb(0, 0, 0);"/>
      <rect x="309.681" y="219.317" width="1.843" height="21.298" style="fill: rgb(216, 216, 216); stroke: rgb(0, 0, 0);"/>
      <rect x="312.556" y="239.632" width="9.765" height="2.282" style="fill: rgb(216, 216, 216); stroke: rgb(0, 0, 0);"/>
    </g>
    <g style="" transform="matrix(0.762037, 0, 0, 0.762037, 32.010612, 30.795465)">
      <rect x="347.267" y="95.786" width="4.754" height="13.019" style="fill: rgb(216, 216, 216); stroke: rgb(0, 0, 0);"/>
      <rect x="352.705" y="95.794" width="4.754" height="13.019" style="fill: rgb(216, 216, 216); stroke: rgb(0, 0, 0);"/>
    </g>
    <g style="" transform="matrix(0.762037, 0, 0, 0.762037, 32.298546, 52.50267)">
      <rect x="347.267" y="95.786" width="4.754" height="13.019" style="fill: rgb(216, 216, 216); stroke: rgb(0, 0, 0);"/>
      <rect x="352.705" y="95.794" width="4.754" height="13.019" style="fill: rgb(216, 216, 216); stroke: rgb(0, 0, 0);"/>
    </g>
    <g style="" transform="matrix(0.762037, 0, 0, 0.762037, 32.527905, 76.750343)">
      <rect x="347.267" y="95.786" width="4.754" height="13.019" style="fill: rgb(216, 216, 216); stroke: rgb(0, 0, 0);"/>
      <rect x="352.705" y="95.794" width="4.754" height="13.019" style="fill: rgb(216, 216, 216); stroke: rgb(0, 0, 0);"/>
    </g>
    <g style="" transform="matrix(0.762037, 0, 0, 0.762037, 33.018078, 97.508514)">
      <rect x="347.267" y="95.786" width="4.754" height="13.019" style="fill: rgb(216, 216, 216); stroke: rgb(0, 0, 0);"/>
      <rect x="352.705" y="95.794" width="4.754" height="13.019" style="fill: rgb(216, 216, 216); stroke: rgb(0, 0, 0);"/>
    </g>
    <g transform="matrix(1, 0, 0, 1, -95.360283, -11.449475)">
      <g transform="matrix(0.641276, 0, 0, 0.641276, 156.445709, -29.761419)" style="">
        <rect x="312.357" y="219.812" width="9.772" height="19.455" style="fill: rgb(216, 216, 216); stroke: rgb(0, 0, 0);"/>
        <rect x="309.681" y="219.317" width="1.843" height="21.298" style="fill: rgb(216, 216, 216); stroke: rgb(0, 0, 0);"/>
        <rect x="312.556" y="239.632" width="9.765" height="2.282" style="fill: rgb(216, 216, 216); stroke: rgb(0, 0, 0);"/>
      </g>
      <g transform="matrix(0.641276, 0, 0, 0.641276, 157.34494, -5.527046)" style="">
        <rect x="312.357" y="219.812" width="9.772" height="19.455" style="fill: rgb(216, 216, 216); stroke: rgb(0, 0, 0);"/>
        <rect x="309.681" y="219.317" width="1.843" height="21.298" style="fill: rgb(216, 216, 216); stroke: rgb(0, 0, 0);"/>
        <rect x="312.556" y="239.632" width="9.765" height="2.282" style="fill: rgb(216, 216, 216); stroke: rgb(0, 0, 0);"/>
      </g>
      <g transform="matrix(0.641276, 0, 0, 0.641276, 156.682632, 18.038607)" style="">
        <rect x="312.357" y="219.812" width="9.772" height="19.455" style="fill: rgb(216, 216, 216); stroke: rgb(0, 0, 0);"/>
        <rect x="309.681" y="219.317" width="1.843" height="21.298" style="fill: rgb(216, 216, 216); stroke: rgb(0, 0, 0);"/>
        <rect x="312.556" y="239.632" width="9.765" height="2.282" style="fill: rgb(216, 216, 216); stroke: rgb(0, 0, 0);"/>
      </g>
      <g transform="matrix(0.641276, 0, 0, 0.641276, 157.050446, 38.700531)" style="">
        <rect x="312.357" y="219.812" width="9.772" height="19.455" style="fill: rgb(216, 216, 216); stroke: rgb(0, 0, 0);"/>
        <rect x="309.681" y="219.317" width="1.843" height="21.298" style="fill: rgb(216, 216, 216); stroke: rgb(0, 0, 0);"/>
        <rect x="312.556" y="239.632" width="9.765" height="2.282" style="fill: rgb(216, 216, 216); stroke: rgb(0, 0, 0);"/>
      </g>
    </g>
    <g transform="matrix(0.641276, 0, 0, 0.641276, 27.668617, -41.590771)" style="">
      <rect x="312.357" y="219.812" width="9.772" height="19.455" style="fill: rgb(216, 216, 216); stroke: rgb(0, 0, 0);"/>
      <rect x="309.681" y="219.317" width="1.843" height="21.298" style="fill: rgb(216, 216, 216); stroke: rgb(0, 0, 0);"/>
      <rect x="312.556" y="239.632" width="9.765" height="2.282" style="fill: rgb(216, 216, 216); stroke: rgb(0, 0, 0);"/>
    </g>
    <g transform="matrix(0.641276, 0, 0, 0.641276, 28.567848, -17.356396)" style="">
      <rect x="312.357" y="219.812" width="9.772" height="19.455" style="fill: rgb(216, 216, 216); stroke: rgb(0, 0, 0);"/>
      <rect x="309.681" y="219.317" width="1.843" height="21.298" style="fill: rgb(216, 216, 216); stroke: rgb(0, 0, 0);"/>
      <rect x="312.556" y="239.632" width="9.765" height="2.282" style="fill: rgb(216, 216, 216); stroke: rgb(0, 0, 0);"/>
    </g>
    <g transform="matrix(0.641276, 0, 0, 0.641276, 27.905548, 6.209256)" style="">
      <rect x="312.357" y="219.812" width="9.772" height="19.455" style="fill: rgb(216, 216, 216); stroke: rgb(0, 0, 0);"/>
      <rect x="309.681" y="219.317" width="1.843" height="21.298" style="fill: rgb(216, 216, 216); stroke: rgb(0, 0, 0);"/>
      <rect x="312.556" y="239.632" width="9.765" height="2.282" style="fill: rgb(216, 216, 216); stroke: rgb(0, 0, 0);"/>
    </g>
    <g transform="matrix(0.641276, 0, 0, 0.641276, 28.273361, 26.871181)" style="">
      <rect x="312.357" y="219.812" width="9.772" height="19.455" style="fill: rgb(216, 216, 216); stroke: rgb(0, 0, 0);"/>
      <rect x="309.681" y="219.317" width="1.843" height="21.298" style="fill: rgb(216, 216, 216); stroke: rgb(0, 0, 0);"/>
      <rect x="312.556" y="239.632" width="9.765" height="2.282" style="fill: rgb(216, 216, 216); stroke: rgb(0, 0, 0);"/>
    </g>
    <g transform="matrix(0.641276, 0, 0, 0.641276, 11.354676, -42.700455)" style="">
      <rect x="312.357" y="219.812" width="9.772" height="19.455" style="fill: rgb(216, 216, 216); stroke: rgb(0, 0, 0);"/>
      <rect x="309.681" y="219.317" width="1.843" height="21.298" style="fill: rgb(216, 216, 216); stroke: rgb(0, 0, 0);"/>
      <rect x="312.556" y="239.632" width="9.765" height="2.282" style="fill: rgb(216, 216, 216); stroke: rgb(0, 0, 0);"/>
    </g>
    <g transform="matrix(0.641276, 0, 0, 0.641276, 12.253908, -18.46608)" style="">
      <rect x="312.357" y="219.812" width="9.772" height="19.455" style="fill: rgb(216, 216, 216); stroke: rgb(0, 0, 0);"/>
      <rect x="309.681" y="219.317" width="1.843" height="21.298" style="fill: rgb(216, 216, 216); stroke: rgb(0, 0, 0);"/>
      <rect x="312.556" y="239.632" width="9.765" height="2.282" style="fill: rgb(216, 216, 216); stroke: rgb(0, 0, 0);"/>
    </g>
    <g transform="matrix(0.641276, 0, 0, 0.641276, 11.591606, 5.099571)" style="">
      <rect x="312.357" y="219.812" width="9.772" height="19.455" style="fill: rgb(216, 216, 216); stroke: rgb(0, 0, 0);"/>
      <rect x="309.681" y="219.317" width="1.843" height="21.298" style="fill: rgb(216, 216, 216); stroke: rgb(0, 0, 0);"/>
      <rect x="312.556" y="239.632" width="9.765" height="2.282" style="fill: rgb(216, 216, 216); stroke: rgb(0, 0, 0);"/>
    </g>
    <g transform="matrix(0.641276, 0, 0, 0.641276, 11.959421, 25.761497)" style="">
      <rect x="312.357" y="219.812" width="9.772" height="19.455" style="fill: rgb(216, 216, 216); stroke: rgb(0, 0, 0);"/>
      <rect x="309.681" y="219.317" width="1.843" height="21.298" style="fill: rgb(216, 216, 216); stroke: rgb(0, 0, 0);"/>
      <rect x="312.556" y="239.632" width="9.765" height="2.282" style="fill: rgb(216, 216, 216); stroke: rgb(0, 0, 0);"/>
    </g>
    <g transform="matrix(0.641276, 0, 0, 0.641276, -40.864262, -44.15258)" style="">
      <rect x="312.357" y="219.812" width="9.772" height="19.455" style="fill: rgb(216, 216, 216); stroke: rgb(0, 0, 0);"/>
      <rect x="309.681" y="219.317" width="1.843" height="21.298" style="fill: rgb(216, 216, 216); stroke: rgb(0, 0, 0);"/>
      <rect x="312.556" y="239.632" width="9.765" height="2.282" style="fill: rgb(216, 216, 216); stroke: rgb(0, 0, 0);"/>
    </g>
    <g transform="matrix(0.641276, 0, 0, 0.641276, -39.965031, -19.918207)" style="">
      <rect x="312.357" y="219.812" width="9.772" height="19.455" style="fill: rgb(216, 216, 216); stroke: rgb(0, 0, 0);"/>
      <rect x="309.681" y="219.317" width="1.843" height="21.298" style="fill: rgb(216, 216, 216); stroke: rgb(0, 0, 0);"/>
      <rect x="312.556" y="239.632" width="9.765" height="2.282" style="fill: rgb(216, 216, 216); stroke: rgb(0, 0, 0);"/>
    </g>
    <g transform="matrix(0.641276, 0, 0, 0.641276, -40.627331, 3.647446)" style="">
      <rect x="312.357" y="219.812" width="9.772" height="19.455" style="fill: rgb(216, 216, 216); stroke: rgb(0, 0, 0);"/>
      <rect x="309.681" y="219.317" width="1.843" height="21.298" style="fill: rgb(216, 216, 216); stroke: rgb(0, 0, 0);"/>
      <rect x="312.556" y="239.632" width="9.765" height="2.282" style="fill: rgb(216, 216, 216); stroke: rgb(0, 0, 0);"/>
    </g>
    <g transform="matrix(0.641276, 0, 0, 0.641276, -40.259518, 24.309372)" style="">
      <rect x="312.357" y="219.812" width="9.772" height="19.455" style="fill: rgb(216, 216, 216); stroke: rgb(0, 0, 0);"/>
      <rect x="309.681" y="219.317" width="1.843" height="21.298" style="fill: rgb(216, 216, 216); stroke: rgb(0, 0, 0);"/>
      <rect x="312.556" y="239.632" width="9.765" height="2.282" style="fill: rgb(216, 216, 216); stroke: rgb(0, 0, 0);"/>
    </g>
    <g transform="matrix(0.641276, 0, 0, 0.641276, -23.958496, -43.926144)" style="">
      <rect x="312.357" y="219.812" width="9.772" height="19.455" style="fill: rgb(216, 216, 216); stroke: rgb(0, 0, 0);"/>
      <rect x="309.681" y="219.317" width="1.843" height="21.298" style="fill: rgb(216, 216, 216); stroke: rgb(0, 0, 0);"/>
      <rect x="312.556" y="239.632" width="9.765" height="2.282" style="fill: rgb(216, 216, 216); stroke: rgb(0, 0, 0);"/>
    </g>
    <g transform="matrix(0.641276, 0, 0, 0.641276, -23.059265, -19.691769)" style="">
      <rect x="312.357" y="219.812" width="9.772" height="19.455" style="fill: rgb(216, 216, 216); stroke: rgb(0, 0, 0);"/>
      <rect x="309.681" y="219.317" width="1.843" height="21.298" style="fill: rgb(216, 216, 216); stroke: rgb(0, 0, 0);"/>
      <rect x="312.556" y="239.632" width="9.765" height="2.282" style="fill: rgb(216, 216, 216); stroke: rgb(0, 0, 0);"/>
    </g>
    <g transform="matrix(0.641276, 0, 0, 0.641276, -23.721565, 3.873883)" style="">
      <rect x="312.357" y="219.812" width="9.772" height="19.455" style="fill: rgb(216, 216, 216); stroke: rgb(0, 0, 0);"/>
      <rect x="309.681" y="219.317" width="1.843" height="21.298" style="fill: rgb(216, 216, 216); stroke: rgb(0, 0, 0);"/>
      <rect x="312.556" y="239.632" width="9.765" height="2.282" style="fill: rgb(216, 216, 216); stroke: rgb(0, 0, 0);"/>
    </g>
    <g transform="matrix(0.641276, 0, 0, 0.641276, -23.353752, 24.535809)" style="">
      <rect x="312.357" y="219.812" width="9.772" height="19.455" style="fill: rgb(216, 216, 216); stroke: rgb(0, 0, 0);"/>
      <rect x="309.681" y="219.317" width="1.843" height="21.298" style="fill: rgb(216, 216, 216); stroke: rgb(0, 0, 0);"/>
      <rect x="312.556" y="239.632" width="9.765" height="2.282" style="fill: rgb(216, 216, 216); stroke: rgb(0, 0, 0);"/>
    </g>
    <g transform="matrix(1, 0, 0, 1, -136.159866, 6.513)">
      <g style="" transform="matrix(0.762037, 0, 0, 0.762037, 114.748688, 23.372063)">
        <rect x="347.267" y="95.786" width="4.754" height="13.019" style="fill: rgb(216, 216, 216); stroke: rgb(0, 0, 0);"/>
        <rect x="352.705" y="95.794" width="4.754" height="13.019" style="fill: rgb(216, 216, 216); stroke: rgb(0, 0, 0);"/>
      </g>
      <g style="" transform="matrix(0.762037, 0, 0, 0.762037, 115.036621, 45.079266)">
        <rect x="347.267" y="95.786" width="4.754" height="13.019" style="fill: rgb(216, 216, 216); stroke: rgb(0, 0, 0);"/>
        <rect x="352.705" y="95.794" width="4.754" height="13.019" style="fill: rgb(216, 216, 216); stroke: rgb(0, 0, 0);"/>
      </g>
      <g style="" transform="matrix(0.762037, 0, 0, 0.762037, 115.265976, 69.326942)">
        <rect x="347.267" y="95.786" width="4.754" height="13.019" style="fill: rgb(216, 216, 216); stroke: rgb(0, 0, 0);"/>
        <rect x="352.705" y="95.794" width="4.754" height="13.019" style="fill: rgb(216, 216, 216); stroke: rgb(0, 0, 0);"/>
      </g>
      <g style="" transform="matrix(0.762037, 0, 0, 0.762037, 115.756149, 90.085114)">
        <rect x="347.267" y="95.786" width="4.754" height="13.019" style="fill: rgb(216, 216, 216); stroke: rgb(0, 0, 0);"/>
        <rect x="352.705" y="95.794" width="4.754" height="13.019" style="fill: rgb(216, 216, 216); stroke: rgb(0, 0, 0);"/>
      </g>
    </g>
    <g style="" transform="matrix(0.762037, 0, 0, 0.762037, -123.207314, 26.644815)">
      <rect x="347.267" y="95.786" width="4.754" height="13.019" style="fill: rgb(216, 216, 216); stroke: rgb(0, 0, 0);"/>
      <rect x="352.705" y="95.794" width="4.754" height="13.019" style="fill: rgb(216, 216, 216); stroke: rgb(0, 0, 0);"/>
    </g>
    <g style="" transform="matrix(0.762037, 0, 0, 0.762037, -122.91938, 48.35202)">
      <rect x="347.267" y="95.786" width="4.754" height="13.019" style="fill: rgb(216, 216, 216); stroke: rgb(0, 0, 0);"/>
      <rect x="352.705" y="95.794" width="4.754" height="13.019" style="fill: rgb(216, 216, 216); stroke: rgb(0, 0, 0);"/>
    </g>
    <g style="" transform="matrix(0.762037, 0, 0, 0.762037, -122.690025, 72.599693)">
      <rect x="347.267" y="95.786" width="4.754" height="13.019" style="fill: rgb(216, 216, 216); stroke: rgb(0, 0, 0);"/>
      <rect x="352.705" y="95.794" width="4.754" height="13.019" style="fill: rgb(216, 216, 216); stroke: rgb(0, 0, 0);"/>
    </g>
    <g style="" transform="matrix(0.762037, 0, 0, 0.762037, -122.199852, 93.357864)">
      <rect x="347.267" y="95.786" width="4.754" height="13.019" style="fill: rgb(216, 216, 216); stroke: rgb(0, 0, 0);"/>
      <rect x="352.705" y="95.794" width="4.754" height="13.019" style="fill: rgb(216, 216, 216); stroke: rgb(0, 0, 0);"/>
    </g>
    <g style="" transform="matrix(0.762037, 0, 0, 0.762037, -74.362999, 27.294737)">
      <rect x="347.267" y="95.786" width="4.754" height="13.019" style="fill: rgb(216, 216, 216); stroke: rgb(0, 0, 0);"/>
      <rect x="352.705" y="95.794" width="4.754" height="13.019" style="fill: rgb(216, 216, 216); stroke: rgb(0, 0, 0);"/>
    </g>
    <g style="" transform="matrix(0.762037, 0, 0, 0.762037, -74.075066, 49.001942)">
      <rect x="347.267" y="95.786" width="4.754" height="13.019" style="fill: rgb(216, 216, 216); stroke: rgb(0, 0, 0);"/>
      <rect x="352.705" y="95.794" width="4.754" height="13.019" style="fill: rgb(216, 216, 216); stroke: rgb(0, 0, 0);"/>
    </g>
    <g style="" transform="matrix(0.762037, 0, 0, 0.762037, -73.845711, 73.249611)">
      <rect x="347.267" y="95.786" width="4.754" height="13.019" style="fill: rgb(216, 216, 216); stroke: rgb(0, 0, 0);"/>
      <rect x="352.705" y="95.794" width="4.754" height="13.019" style="fill: rgb(216, 216, 216); stroke: rgb(0, 0, 0);"/>
    </g>
    <g style="" transform="matrix(0.762037, 0, 0, 0.762037, -73.355537, 94.007782)">
      <rect x="347.267" y="95.786" width="4.754" height="13.019" style="fill: rgb(216, 216, 216); stroke: rgb(0, 0, 0);"/>
      <rect x="352.705" y="95.794" width="4.754" height="13.019" style="fill: rgb(216, 216, 216); stroke: rgb(0, 0, 0);"/>
    </g>
    <rect x="138.424" y="81.524" width="16.167" height="2.942" style="stroke: rgb(0, 0, 0); fill: rgb(79, 79, 79);"/>
    <rect x="186.275" y="78.447" width="16.293" height="3.616" style="stroke: rgb(0, 0, 0); fill: rgb(79, 77, 77);"/>
    <rect x="201.897" y="87.359" width="40.451" height="3.808" style="stroke: rgb(0, 0, 0); fill: rgb(55, 53, 53);"/>
    <rect x="252.575" y="87.794" width="43.508" height="3.291" style="stroke: rgb(0, 0, 0); fill: rgb(70, 70, 70);"/>
    <rect x="151.468" y="88.293" width="36.23" height="3.489" style="stroke: rgb(0, 0, 0); fill: rgb(67, 66, 66);"/>
    <g transform="matrix(0.641276, 0, 0, 0.641276, 82.397781, -18.626175)" style="">
      <rect x="312.357" y="219.812" width="9.772" height="19.455" style="fill: rgb(216, 216, 216); stroke: rgb(0, 0, 0);"/>
      <rect x="309.681" y="219.317" width="1.843" height="21.298" style="fill: rgb(216, 216, 216); stroke: rgb(0, 0, 0);"/>
      <rect x="312.556" y="239.632" width="9.765" height="2.282" style="fill: rgb(216, 216, 216); stroke: rgb(0, 0, 0);"/>
    </g>
    <g transform="matrix(0.641276, 0, 0, 0.641276, 83.297012, 5.6082)" style="">
      <rect x="312.357" y="219.812" width="9.772" height="19.455" style="fill: rgb(216, 216, 216); stroke: rgb(0, 0, 0);"/>
      <rect x="309.681" y="219.317" width="1.843" height="21.298" style="fill: rgb(216, 216, 216); stroke: rgb(0, 0, 0);"/>
      <rect x="312.556" y="239.632" width="9.765" height="2.282" style="fill: rgb(216, 216, 216); stroke: rgb(0, 0, 0);"/>
    </g>
    <g transform="matrix(0.641276, 0, 0, 0.641276, 82.634712, 29.173853)" style="">
      <rect x="312.357" y="219.812" width="9.772" height="19.455" style="fill: rgb(216, 216, 216); stroke: rgb(0, 0, 0);"/>
      <rect x="309.681" y="219.317" width="1.843" height="21.298" style="fill: rgb(216, 216, 216); stroke: rgb(0, 0, 0);"/>
      <rect x="312.556" y="239.632" width="9.765" height="2.282" style="fill: rgb(216, 216, 216); stroke: rgb(0, 0, 0);"/>
    </g>
    <g transform="matrix(0.641276, 0, 0, 0.641276, 75.274689, -41.858829)" style="">
      <rect x="312.357" y="219.812" width="9.772" height="19.455" style="fill: rgb(216, 216, 216); stroke: rgb(0, 0, 0);"/>
      <rect x="309.681" y="219.317" width="1.843" height="21.298" style="fill: rgb(216, 216, 216); stroke: rgb(0, 0, 0);"/>
      <rect x="312.556" y="239.632" width="9.765" height="2.282" style="fill: rgb(216, 216, 216); stroke: rgb(0, 0, 0);"/>
    </g>
    <g transform="matrix(0.641276, 0, 0, 0.641276, 85.774719, -41.383606)" style="">
      <rect x="312.357" y="219.812" width="9.772" height="19.455" style="fill: rgb(216, 216, 216); stroke: rgb(0, 0, 0);"/>
      <rect x="309.681" y="219.317" width="1.843" height="21.298" style="fill: rgb(216, 216, 216); stroke: rgb(0, 0, 0);"/>
      <rect x="312.556" y="239.632" width="9.765" height="2.282" style="fill: rgb(216, 216, 216); stroke: rgb(0, 0, 0);"/>
    </g>
  </g>
  <g transform="matrix(0.098911, 0, 0, 0.098911, 85.017227, 310.999115)" style="">
    <path style="fill-opacity: 1; stroke: rgb(224, 225, 226); stroke-width: 1.9429; stroke-linecap: round; stroke-linejoin: round; stroke-miterlimit: 4; stroke-dasharray: none; stroke-opacity: 1; fill: rgb(221, 211, 195);" d="M 131.026 223.885 L 131.026 383.892 L 376.371 383.892 L 376.371 223.885 L 376.371 223.442 L 253.698 128.883 L 131.026 223.442 L 131.026 223.885 Z" id="path-1"/>
    <rect x="169.993" y="293.221" style="fill-opacity: 1; fill: rgb(108, 90, 71);" width="64.003" height="53.336" id="rect-1"/>
    <rect x="265.998" y="288.645" style="fill-opacity: 1; fill: rgb(108, 90, 71);" width="64.003" height="96.428" id="rect-2"/>
    <path style="fill-opacity: 1; fill: rgb(105, 105, 105);" d="M 205.256 346.557 L 205.256 323.15 L 233.997 323.15 L 233.997 316.628 L 205.256 316.628 L 205.256 293.221 L 198.734 293.221 L 198.734 316.628 L 169.993 316.628 L 169.993 323.15 L 198.734 323.15 L 198.734 346.557 L 205.256 346.557 Z" id="path-2"/>
    <path style="fill: rgb(119, 106, 95);" d="M 379.446 242.045 L 252.549 144.227 L 125.652 242.045 C 119.103 247.09 109.79 246.317 104.169 240.258 C 97.795 233.394 98.659 222.55 106.035 216.779 L 241.669 110.668 L 252.549 100.555 L 263.435 110.668 L 399.069 216.779 C 406.445 222.55 407.309 233.394 400.935 240.258 C 395.308 246.317 385.996 247.09 379.446 242.045 Z" id="path-3"/>
  </g>
  <g transform="matrix(0.098911, 0, 0, 0.098911, 313.749176, 338.173889)" style="">
    <path style="fill-opacity: 1; stroke: rgb(224, 225, 226); stroke-width: 1.9429; stroke-linecap: round; stroke-linejoin: round; stroke-miterlimit: 4; stroke-dasharray: none; stroke-opacity: 1; fill: rgb(221, 211, 195);" d="M 131.026 223.885 L 131.026 383.892 L 376.371 383.892 L 376.371 223.885 L 376.371 223.442 L 253.698 128.883 L 131.026 223.442 L 131.026 223.885 Z" id="path-4"/>
    <rect x="169.993" y="293.221" style="fill-opacity: 1; fill: rgb(108, 90, 71);" width="64.003" height="53.336" id="rect-3"/>
    <rect x="265.998" y="288.645" style="fill-opacity: 1; fill: rgb(108, 90, 71);" width="64.003" height="96.428" id="rect-4"/>
    <path style="fill-opacity: 1; fill: rgb(105, 105, 105);" d="M 205.256 346.557 L 205.256 323.15 L 233.997 323.15 L 233.997 316.628 L 205.256 316.628 L 205.256 293.221 L 198.734 293.221 L 198.734 316.628 L 169.993 316.628 L 169.993 323.15 L 198.734 323.15 L 198.734 346.557 L 205.256 346.557 Z" id="path-5"/>
    <path style="fill: rgb(119, 106, 95);" d="M 379.446 242.045 L 252.549 144.227 L 125.652 242.045 C 119.103 247.09 109.79 246.317 104.169 240.258 C 97.795 233.394 98.659 222.55 106.035 216.779 L 241.669 110.668 L 252.549 100.555 L 263.435 110.668 L 399.069 216.779 C 406.445 222.55 407.309 233.394 400.935 240.258 C 395.308 246.317 385.996 247.09 379.446 242.045 Z" id="path-6"/>
  </g>
  <g transform="matrix(0.098911, 0, 0, 0.098911, 135.908737, 362.288208)" style="">
    <path style="fill-opacity: 1; stroke: rgb(224, 225, 226); stroke-width: 1.9429; stroke-linecap: round; stroke-linejoin: round; stroke-miterlimit: 4; stroke-dasharray: none; stroke-opacity: 1; fill: rgb(221, 211, 195);" d="M 131.026 223.885 L 131.026 383.892 L 376.371 383.892 L 376.371 223.885 L 376.371 223.442 L 253.698 128.883 L 131.026 223.442 L 131.026 223.885 Z" id="path-7"/>
    <rect x="169.993" y="293.221" style="fill-opacity: 1; fill: rgb(108, 90, 71);" width="64.003" height="53.336" id="rect-5"/>
    <rect x="265.998" y="288.645" style="fill-opacity: 1; fill: rgb(108, 90, 71);" width="64.003" height="96.428" id="rect-6"/>
    <path style="fill-opacity: 1; fill: rgb(105, 105, 105);" d="M 205.256 346.557 L 205.256 323.15 L 233.997 323.15 L 233.997 316.628 L 205.256 316.628 L 205.256 293.221 L 198.734 293.221 L 198.734 316.628 L 169.993 316.628 L 169.993 323.15 L 198.734 323.15 L 198.734 346.557 L 205.256 346.557 Z" id="path-8"/>
    <path style="fill: rgb(119, 106, 95);" d="M 379.446 242.045 L 252.549 144.227 L 125.652 242.045 C 119.103 247.09 109.79 246.317 104.169 240.258 C 97.795 233.394 98.659 222.55 106.035 216.779 L 241.669 110.668 L 252.549 100.555 L 263.435 110.668 L 399.069 216.779 C 406.445 222.55 407.309 233.394 400.935 240.258 C 395.308 246.317 385.996 247.09 379.446 242.045 Z" id="path-9"/>
  </g>
  <g transform="matrix(0.098911, 0, 0, 0.098911, 219.057846, 391.492371)" style="">
    <path style="fill-opacity: 1; stroke: rgb(224, 225, 226); stroke-width: 1.9429; stroke-linecap: round; stroke-linejoin: round; stroke-miterlimit: 4; stroke-dasharray: none; stroke-opacity: 1; fill: rgb(221, 211, 195);" d="M 131.026 223.885 L 131.026 383.892 L 376.371 383.892 L 376.371 223.885 L 376.371 223.442 L 253.698 128.883 L 131.026 223.442 L 131.026 223.885 Z" id="path-10"/>
    <rect x="169.993" y="293.221" style="fill-opacity: 1; fill: rgb(108, 90, 71);" width="64.003" height="53.336" id="rect-7"/>
    <rect x="265.998" y="288.645" style="fill-opacity: 1; fill: rgb(108, 90, 71);" width="64.003" height="96.428" id="rect-8"/>
    <path style="fill-opacity: 1; fill: rgb(105, 105, 105);" d="M 205.256 346.557 L 205.256 323.15 L 233.997 323.15 L 233.997 316.628 L 205.256 316.628 L 205.256 293.221 L 198.734 293.221 L 198.734 316.628 L 169.993 316.628 L 169.993 323.15 L 198.734 323.15 L 198.734 346.557 L 205.256 346.557 Z" id="path-11"/>
    <path style="fill: rgb(119, 106, 95);" d="M 379.446 242.045 L 252.549 144.227 L 125.652 242.045 C 119.103 247.09 109.79 246.317 104.169 240.258 C 97.795 233.394 98.659 222.55 106.035 216.779 L 241.669 110.668 L 252.549 100.555 L 263.435 110.668 L 399.069 216.779 C 406.445 222.55 407.309 233.394 400.935 240.258 C 395.308 246.317 385.996 247.09 379.446 242.045 Z" id="path-12"/>
  </g>
  <g transform="matrix(0.098911, 0, 0, 0.098911, 209.688858, 305.334137)" style="">
    <path style="fill-opacity: 1; stroke: rgb(224, 225, 226); stroke-width: 1.9429; stroke-linecap: round; stroke-linejoin: round; stroke-miterlimit: 4; stroke-dasharray: none; stroke-opacity: 1; fill: rgb(221, 211, 195);" d="M 131.026 223.885 L 131.026 383.892 L 376.371 383.892 L 376.371 223.885 L 376.371 223.442 L 253.698 128.883 L 131.026 223.442 L 131.026 223.885 Z" id="path-13"/>
    <rect x="169.993" y="293.221" style="fill-opacity: 1; fill: rgb(108, 90, 71);" width="64.003" height="53.336" id="rect-9"/>
    <rect x="265.998" y="288.645" style="fill-opacity: 1; fill: rgb(108, 90, 71);" width="64.003" height="96.428" id="rect-10"/>
    <path style="fill-opacity: 1; fill: rgb(105, 105, 105);" d="M 205.256 346.557 L 205.256 323.15 L 233.997 323.15 L 233.997 316.628 L 205.256 316.628 L 205.256 293.221 L 198.734 293.221 L 198.734 316.628 L 169.993 316.628 L 169.993 323.15 L 198.734 323.15 L 198.734 346.557 L 205.256 346.557 Z" id="path-14"/>
    <path style="fill: rgb(119, 106, 95);" d="M 379.446 242.045 L 252.549 144.227 L 125.652 242.045 C 119.103 247.09 109.79 246.317 104.169 240.258 C 97.795 233.394 98.659 222.55 106.035 216.779 L 241.669 110.668 L 252.549 100.555 L 263.435 110.668 L 399.069 216.779 C 406.445 222.55 407.309 233.394 400.935 240.258 C 395.308 246.317 385.996 247.09 379.446 242.045 Z" id="path-15"/>
  </g>
  <g transform="matrix(0.098911, 0, 0, 0.098911, 175.066879, 311.260956)" style="">
    <path style="fill-opacity: 1; stroke: rgb(224, 225, 226); stroke-width: 1.9429; stroke-linecap: round; stroke-linejoin: round; stroke-miterlimit: 4; stroke-dasharray: none; stroke-opacity: 1; fill: rgb(221, 211, 195);" d="M 131.026 223.885 L 131.026 383.892 L 376.371 383.892 L 376.371 223.885 L 376.371 223.442 L 253.698 128.883 L 131.026 223.442 L 131.026 223.885 Z" id="path-16"/>
    <rect x="169.993" y="293.221" style="fill-opacity: 1; fill: rgb(108, 90, 71);" width="64.003" height="53.336" id="rect-11"/>
    <rect x="265.998" y="288.645" style="fill-opacity: 1; fill: rgb(108, 90, 71);" width="64.003" height="96.428" id="rect-12"/>
    <path style="fill-opacity: 1; fill: rgb(105, 105, 105);" d="M 205.256 346.557 L 205.256 323.15 L 233.997 323.15 L 233.997 316.628 L 205.256 316.628 L 205.256 293.221 L 198.734 293.221 L 198.734 316.628 L 169.993 316.628 L 169.993 323.15 L 198.734 323.15 L 198.734 346.557 L 205.256 346.557 Z" id="path-17"/>
    <path style="fill: rgb(119, 106, 95);" d="M 379.446 242.045 L 252.549 144.227 L 125.652 242.045 C 119.103 247.09 109.79 246.317 104.169 240.258 C 97.795 233.394 98.659 222.55 106.035 216.779 L 241.669 110.668 L 252.549 100.555 L 263.435 110.668 L 399.069 216.779 C 406.445 222.55 407.309 233.394 400.935 240.258 C 395.308 246.317 385.996 247.09 379.446 242.045 Z" id="path-18"/>
  </g>
  <g transform="matrix(0.098911, 0, 0, 0.098911, 131.516327, 320.077728)" style="">
    <path style="fill-opacity: 1; stroke: rgb(224, 225, 226); stroke-width: 1.9429; stroke-linecap: round; stroke-linejoin: round; stroke-miterlimit: 4; stroke-dasharray: none; stroke-opacity: 1; fill: rgb(221, 211, 195);" d="M 131.026 223.885 L 131.026 383.892 L 376.371 383.892 L 376.371 223.885 L 376.371 223.442 L 253.698 128.883 L 131.026 223.442 L 131.026 223.885 Z" id="path-19"/>
    <rect x="169.993" y="293.221" style="fill-opacity: 1; fill: rgb(108, 90, 71);" width="64.003" height="53.336" id="rect-13"/>
    <rect x="265.998" y="288.645" style="fill-opacity: 1; fill: rgb(108, 90, 71);" width="64.003" height="96.428" id="rect-14"/>
    <path style="fill-opacity: 1; fill: rgb(105, 105, 105);" d="M 205.256 346.557 L 205.256 323.15 L 233.997 323.15 L 233.997 316.628 L 205.256 316.628 L 205.256 293.221 L 198.734 293.221 L 198.734 316.628 L 169.993 316.628 L 169.993 323.15 L 198.734 323.15 L 198.734 346.557 L 205.256 346.557 Z" id="path-20"/>
    <path style="fill: rgb(119, 106, 95);" d="M 379.446 242.045 L 252.549 144.227 L 125.652 242.045 C 119.103 247.09 109.79 246.317 104.169 240.258 C 97.795 233.394 98.659 222.55 106.035 216.779 L 241.669 110.668 L 252.549 100.555 L 263.435 110.668 L 399.069 216.779 C 406.445 222.55 407.309 233.394 400.935 240.258 C 395.308 246.317 385.996 247.09 379.446 242.045 Z" id="path-21"/>
  </g>
  <g transform="matrix(0.098911, 0, 0, 0.098911, 100.229683, 336.785706)" style="">
    <path style="fill-opacity: 1; stroke: rgb(224, 225, 226); stroke-width: 1.9429; stroke-linecap: round; stroke-linejoin: round; stroke-miterlimit: 4; stroke-dasharray: none; stroke-opacity: 1; fill: rgb(221, 211, 195);" d="M 131.026 223.885 L 131.026 383.892 L 376.371 383.892 L 376.371 223.885 L 376.371 223.442 L 253.698 128.883 L 131.026 223.442 L 131.026 223.885 Z" id="path-22"/>
    <rect x="169.993" y="293.221" style="fill-opacity: 1; fill: rgb(108, 90, 71);" width="64.003" height="53.336" id="rect-15"/>
    <rect x="265.998" y="288.645" style="fill-opacity: 1; fill: rgb(108, 90, 71);" width="64.003" height="96.428" id="rect-16"/>
    <path style="fill-opacity: 1; fill: rgb(105, 105, 105);" d="M 205.256 346.557 L 205.256 323.15 L 233.997 323.15 L 233.997 316.628 L 205.256 316.628 L 205.256 293.221 L 198.734 293.221 L 198.734 316.628 L 169.993 316.628 L 169.993 323.15 L 198.734 323.15 L 198.734 346.557 L 205.256 346.557 Z" id="path-23"/>
    <path style="fill: rgb(119, 106, 95);" d="M 379.446 242.045 L 252.549 144.227 L 125.652 242.045 C 119.103 247.09 109.79 246.317 104.169 240.258 C 97.795 233.394 98.659 222.55 106.035 216.779 L 241.669 110.668 L 252.549 100.555 L 263.435 110.668 L 399.069 216.779 C 406.445 222.55 407.309 233.394 400.935 240.258 C 395.308 246.317 385.996 247.09 379.446 242.045 Z" id="path-24"/>
  </g>
  <g transform="matrix(0.098911, 0, 0, 0.098911, 180.344193, 386.449585)" style="">
    <path style="fill-opacity: 1; stroke: rgb(224, 225, 226); stroke-width: 1.9429; stroke-linecap: round; stroke-linejoin: round; stroke-miterlimit: 4; stroke-dasharray: none; stroke-opacity: 1; fill: rgb(221, 211, 195);" d="M 131.026 223.885 L 131.026 383.892 L 376.371 383.892 L 376.371 223.885 L 376.371 223.442 L 253.698 128.883 L 131.026 223.442 L 131.026 223.885 Z" id="path-31"/>
    <rect x="169.993" y="293.221" style="fill-opacity: 1; fill: rgb(108, 90, 71);" width="64.003" height="53.336" id="rect-21"/>
    <rect x="265.998" y="288.645" style="fill-opacity: 1; fill: rgb(108, 90, 71);" width="64.003" height="96.428" id="rect-22"/>
    <path style="fill-opacity: 1; fill: rgb(105, 105, 105);" d="M 205.256 346.557 L 205.256 323.15 L 233.997 323.15 L 233.997 316.628 L 205.256 316.628 L 205.256 293.221 L 198.734 293.221 L 198.734 316.628 L 169.993 316.628 L 169.993 323.15 L 198.734 323.15 L 198.734 346.557 L 205.256 346.557 Z" id="path-32"/>
    <path style="fill: rgb(119, 106, 95);" d="M 379.446 242.045 L 252.549 144.227 L 125.652 242.045 C 119.103 247.09 109.79 246.317 104.169 240.258 C 97.795 233.394 98.659 222.55 106.035 216.779 L 241.669 110.668 L 252.549 100.555 L 263.435 110.668 L 399.069 216.779 C 406.445 222.55 407.309 233.394 400.935 240.258 C 395.308 246.317 385.996 247.09 379.446 242.045 Z" id="path-33"/>
  </g>
  <g transform="matrix(0.098911, 0, 0, 0.098911, 167.787888, 357.618256)" style="">
    <path style="fill-opacity: 1; stroke: rgb(224, 225, 226); stroke-width: 1.9429; stroke-linecap: round; stroke-linejoin: round; stroke-miterlimit: 4; stroke-dasharray: none; stroke-opacity: 1; fill: rgb(221, 211, 195);" d="M 131.026 223.885 L 131.026 383.892 L 376.371 383.892 L 376.371 223.885 L 376.371 223.442 L 253.698 128.883 L 131.026 223.442 L 131.026 223.885 Z" id="path-34"/>
    <rect x="169.993" y="293.221" style="fill-opacity: 1; fill: rgb(108, 90, 71);" width="64.003" height="53.336" id="rect-23"/>
    <rect x="265.998" y="288.645" style="fill-opacity: 1; fill: rgb(108, 90, 71);" width="64.003" height="96.428" id="rect-24"/>
    <path style="fill-opacity: 1; fill: rgb(105, 105, 105);" d="M 205.256 346.557 L 205.256 323.15 L 233.997 323.15 L 233.997 316.628 L 205.256 316.628 L 205.256 293.221 L 198.734 293.221 L 198.734 316.628 L 169.993 316.628 L 169.993 323.15 L 198.734 323.15 L 198.734 346.557 L 205.256 346.557 Z" id="path-35"/>
    <path style="fill: rgb(119, 106, 95);" d="M 379.446 242.045 L 252.549 144.227 L 125.652 242.045 C 119.103 247.09 109.79 246.317 104.169 240.258 C 97.795 233.394 98.659 222.55 106.035 216.779 L 241.669 110.668 L 252.549 100.555 L 263.435 110.668 L 399.069 216.779 C 406.445 222.55 407.309 233.394 400.935 240.258 C 395.308 246.317 385.996 247.09 379.446 242.045 Z" id="path-36"/>
  </g>
  <g transform="matrix(0.098911, 0, 0, 0.098911, 195.570236, 324.347443)" style="">
    <path style="fill-opacity: 1; stroke: rgb(224, 225, 226); stroke-width: 1.9429; stroke-linecap: round; stroke-linejoin: round; stroke-miterlimit: 4; stroke-dasharray: none; stroke-opacity: 1; fill: rgb(221, 211, 195);" d="M 131.026 223.885 L 131.026 383.892 L 376.371 383.892 L 376.371 223.885 L 376.371 223.442 L 253.698 128.883 L 131.026 223.442 L 131.026 223.885 Z" id="path-37"/>
    <rect x="169.993" y="293.221" style="fill-opacity: 1; fill: rgb(108, 90, 71);" width="64.003" height="53.336" id="rect-25"/>
    <rect x="265.998" y="288.645" style="fill-opacity: 1; fill: rgb(108, 90, 71);" width="64.003" height="96.428" id="rect-26"/>
    <path style="fill-opacity: 1; fill: rgb(105, 105, 105);" d="M 205.256 346.557 L 205.256 323.15 L 233.997 323.15 L 233.997 316.628 L 205.256 316.628 L 205.256 293.221 L 198.734 293.221 L 198.734 316.628 L 169.993 316.628 L 169.993 323.15 L 198.734 323.15 L 198.734 346.557 L 205.256 346.557 Z" id="path-38"/>
    <path style="fill: rgb(119, 106, 95);" d="M 379.446 242.045 L 252.549 144.227 L 125.652 242.045 C 119.103 247.09 109.79 246.317 104.169 240.258 C 97.795 233.394 98.659 222.55 106.035 216.779 L 241.669 110.668 L 252.549 100.555 L 263.435 110.668 L 399.069 216.779 C 406.445 222.55 407.309 233.394 400.935 240.258 C 395.308 246.317 385.996 247.09 379.446 242.045 Z" id="path-39"/>
  </g>
  <g transform="matrix(0.098911, 0, 0, 0.098911, 234.983963, 363.091431)" style="">
    <path style="fill-opacity: 1; stroke: rgb(224, 225, 226); stroke-width: 1.9429; stroke-linecap: round; stroke-linejoin: round; stroke-miterlimit: 4; stroke-dasharray: none; stroke-opacity: 1; fill: rgb(221, 211, 195);" d="M 131.026 223.885 L 131.026 383.892 L 376.371 383.892 L 376.371 223.885 L 376.371 223.442 L 253.698 128.883 L 131.026 223.442 L 131.026 223.885 Z" id="path-40"/>
    <rect x="169.993" y="293.221" style="fill-opacity: 1; fill: rgb(108, 90, 71);" width="64.003" height="53.336" id="rect-27"/>
    <rect x="265.998" y="288.645" style="fill-opacity: 1; fill: rgb(108, 90, 71);" width="64.003" height="96.428" id="rect-28"/>
    <path style="fill-opacity: 1; fill: rgb(105, 105, 105);" d="M 205.256 346.557 L 205.256 323.15 L 233.997 323.15 L 233.997 316.628 L 205.256 316.628 L 205.256 293.221 L 198.734 293.221 L 198.734 316.628 L 169.993 316.628 L 169.993 323.15 L 198.734 323.15 L 198.734 346.557 L 205.256 346.557 Z" id="path-41"/>
    <path style="fill: rgb(119, 106, 95);" d="M 379.446 242.045 L 252.549 144.227 L 125.652 242.045 C 119.103 247.09 109.79 246.317 104.169 240.258 C 97.795 233.394 98.659 222.55 106.035 216.779 L 241.669 110.668 L 252.549 100.555 L 263.435 110.668 L 399.069 216.779 C 406.445 222.55 407.309 233.394 400.935 240.258 C 395.308 246.317 385.996 247.09 379.446 242.045 Z" id="path-42"/>
  </g>
  <g transform="matrix(0.098911, 0, 0, 0.098911, 290.200714, 346.613007)" style="">
    <path style="fill-opacity: 1; stroke: rgb(224, 225, 226); stroke-width: 1.9429; stroke-linecap: round; stroke-linejoin: round; stroke-miterlimit: 4; stroke-dasharray: none; stroke-opacity: 1; fill: rgb(221, 211, 195);" d="M 131.026 223.885 L 131.026 383.892 L 376.371 383.892 L 376.371 223.885 L 376.371 223.442 L 253.698 128.883 L 131.026 223.442 L 131.026 223.885 Z" id="path-43"/>
    <rect x="169.993" y="293.221" style="fill-opacity: 1; fill: rgb(108, 90, 71);" width="64.003" height="53.336" id="rect-29"/>
    <rect x="265.998" y="288.645" style="fill-opacity: 1; fill: rgb(108, 90, 71);" width="64.003" height="96.428" id="rect-30"/>
    <path style="fill-opacity: 1; fill: rgb(105, 105, 105);" d="M 205.256 346.557 L 205.256 323.15 L 233.997 323.15 L 233.997 316.628 L 205.256 316.628 L 205.256 293.221 L 198.734 293.221 L 198.734 316.628 L 169.993 316.628 L 169.993 323.15 L 198.734 323.15 L 198.734 346.557 L 205.256 346.557 Z" id="path-44"/>
    <path style="fill: rgb(119, 106, 95);" d="M 379.446 242.045 L 252.549 144.227 L 125.652 242.045 C 119.103 247.09 109.79 246.317 104.169 240.258 C 97.795 233.394 98.659 222.55 106.035 216.779 L 241.669 110.668 L 252.549 100.555 L 263.435 110.668 L 399.069 216.779 C 406.445 222.55 407.309 233.394 400.935 240.258 C 395.308 246.317 385.996 247.09 379.446 242.045 Z" id="path-45"/>
  </g>
  <g transform="matrix(0.098911, 0, 0, 0.098911, 337.912506, 346.40744)" style="">
    <path style="fill-opacity: 1; stroke: rgb(224, 225, 226); stroke-width: 1.9429; stroke-linecap: round; stroke-linejoin: round; stroke-miterlimit: 4; stroke-dasharray: none; stroke-opacity: 1; fill: rgb(221, 211, 195);" d="M 131.026 223.885 L 131.026 383.892 L 376.371 383.892 L 376.371 223.885 L 376.371 223.442 L 253.698 128.883 L 131.026 223.442 L 131.026 223.885 Z" id="path-46"/>
    <rect x="169.993" y="293.221" style="fill-opacity: 1; fill: rgb(108, 90, 71);" width="64.003" height="53.336" id="rect-31"/>
    <rect x="265.998" y="288.645" style="fill-opacity: 1; fill: rgb(108, 90, 71);" width="64.003" height="96.428" id="rect-32"/>
    <path style="fill-opacity: 1; fill: rgb(105, 105, 105);" d="M 205.256 346.557 L 205.256 323.15 L 233.997 323.15 L 233.997 316.628 L 205.256 316.628 L 205.256 293.221 L 198.734 293.221 L 198.734 316.628 L 169.993 316.628 L 169.993 323.15 L 198.734 323.15 L 198.734 346.557 L 205.256 346.557 Z" id="path-47"/>
    <path style="fill: rgb(119, 106, 95);" d="M 379.446 242.045 L 252.549 144.227 L 125.652 242.045 C 119.103 247.09 109.79 246.317 104.169 240.258 C 97.795 233.394 98.659 222.55 106.035 216.779 L 241.669 110.668 L 252.549 100.555 L 263.435 110.668 L 399.069 216.779 C 406.445 222.55 407.309 233.394 400.935 240.258 C 395.308 246.317 385.996 247.09 379.446 242.045 Z" id="path-48"/>
  </g>
  <g transform="matrix(0.098911, 0, 0, 0.098911, 200.269028, 361.154022)" style="">
    <path style="fill-opacity: 1; stroke: rgb(224, 225, 226); stroke-width: 1.9429; stroke-linecap: round; stroke-linejoin: round; stroke-miterlimit: 4; stroke-dasharray: none; stroke-opacity: 1; fill: rgb(221, 211, 195);" d="M 131.026 223.885 L 131.026 383.892 L 376.371 383.892 L 376.371 223.885 L 376.371 223.442 L 253.698 128.883 L 131.026 223.442 L 131.026 223.885 Z" id="path-52"/>
    <rect x="169.993" y="293.221" style="fill-opacity: 1; fill: rgb(108, 90, 71);" width="64.003" height="53.336" id="rect-35"/>
    <rect x="265.998" y="288.645" style="fill-opacity: 1; fill: rgb(108, 90, 71);" width="64.003" height="96.428" id="rect-36"/>
    <path style="fill-opacity: 1; fill: rgb(105, 105, 105);" d="M 205.256 346.557 L 205.256 323.15 L 233.997 323.15 L 233.997 316.628 L 205.256 316.628 L 205.256 293.221 L 198.734 293.221 L 198.734 316.628 L 169.993 316.628 L 169.993 323.15 L 198.734 323.15 L 198.734 346.557 L 205.256 346.557 Z" id="path-53"/>
    <path style="fill: rgb(119, 106, 95);" d="M 379.446 242.045 L 252.549 144.227 L 125.652 242.045 C 119.103 247.09 109.79 246.317 104.169 240.258 C 97.795 233.394 98.659 222.55 106.035 216.779 L 241.669 110.668 L 252.549 100.555 L 263.435 110.668 L 399.069 216.779 C 406.445 222.55 407.309 233.394 400.935 240.258 C 395.308 246.317 385.996 247.09 379.446 242.045 Z" id="path-54"/>
  </g>
  <g transform="matrix(0.098911, 0, 0, 0.098911, 214.335739, 336.016846)" style="">
    <path style="fill-opacity: 1; stroke: rgb(224, 225, 226); stroke-width: 1.9429; stroke-linecap: round; stroke-linejoin: round; stroke-miterlimit: 4; stroke-dasharray: none; stroke-opacity: 1; fill: rgb(221, 211, 195);" d="M 131.026 223.885 L 131.026 383.892 L 376.371 383.892 L 376.371 223.885 L 376.371 223.442 L 253.698 128.883 L 131.026 223.442 L 131.026 223.885 Z" id="path-55"/>
    <rect x="169.993" y="293.221" style="fill-opacity: 1; fill: rgb(108, 90, 71);" width="64.003" height="53.336" id="rect-37"/>
    <rect x="265.998" y="288.645" style="fill-opacity: 1; fill: rgb(108, 90, 71);" width="64.003" height="96.428" id="rect-38"/>
    <path style="fill-opacity: 1; fill: rgb(105, 105, 105);" d="M 205.256 346.557 L 205.256 323.15 L 233.997 323.15 L 233.997 316.628 L 205.256 316.628 L 205.256 293.221 L 198.734 293.221 L 198.734 316.628 L 169.993 316.628 L 169.993 323.15 L 198.734 323.15 L 198.734 346.557 L 205.256 346.557 Z" id="path-56"/>
    <path style="fill: rgb(119, 106, 95);" d="M 379.446 242.045 L 252.549 144.227 L 125.652 242.045 C 119.103 247.09 109.79 246.317 104.169 240.258 C 97.795 233.394 98.659 222.55 106.035 216.779 L 241.669 110.668 L 252.549 100.555 L 263.435 110.668 L 399.069 216.779 C 406.445 222.55 407.309 233.394 400.935 240.258 C 395.308 246.317 385.996 247.09 379.446 242.045 Z" id="path-57"/>
  </g>
  <g transform="matrix(0.098911, 0, 0, 0.098911, 113.673294, 351.393799)" style="">
    <path style="fill-opacity: 1; stroke: rgb(224, 225, 226); stroke-width: 1.9429; stroke-linecap: round; stroke-linejoin: round; stroke-miterlimit: 4; stroke-dasharray: none; stroke-opacity: 1; fill: rgb(221, 211, 195);" d="M 131.026 223.885 L 131.026 383.892 L 376.371 383.892 L 376.371 223.885 L 376.371 223.442 L 253.698 128.883 L 131.026 223.442 L 131.026 223.885 Z" id="path-58"/>
    <rect x="169.993" y="293.221" style="fill-opacity: 1; fill: rgb(108, 90, 71);" width="64.003" height="53.336" id="rect-39"/>
    <rect x="265.998" y="288.645" style="fill-opacity: 1; fill: rgb(108, 90, 71);" width="64.003" height="96.428" id="rect-40"/>
    <path style="fill-opacity: 1; fill: rgb(105, 105, 105);" d="M 205.256 346.557 L 205.256 323.15 L 233.997 323.15 L 233.997 316.628 L 205.256 316.628 L 205.256 293.221 L 198.734 293.221 L 198.734 316.628 L 169.993 316.628 L 169.993 323.15 L 198.734 323.15 L 198.734 346.557 L 205.256 346.557 Z" id="path-59"/>
    <path style="fill: rgb(119, 106, 95);" d="M 379.446 242.045 L 252.549 144.227 L 125.652 242.045 C 119.103 247.09 109.79 246.317 104.169 240.258 C 97.795 233.394 98.659 222.55 106.035 216.779 L 241.669 110.668 L 252.549 100.555 L 263.435 110.668 L 399.069 216.779 C 406.445 222.55 407.309 233.394 400.935 240.258 C 395.308 246.317 385.996 247.09 379.446 242.045 Z" id="path-60"/>
  </g>
  <g transform="matrix(0.098911, 0, 0, 0.098911, 261.488403, 337.595917)" style="">
    <path style="fill-opacity: 1; stroke: rgb(224, 225, 226); stroke-width: 1.9429; stroke-linecap: round; stroke-linejoin: round; stroke-miterlimit: 4; stroke-dasharray: none; stroke-opacity: 1; fill: rgb(221, 211, 195);" d="M 131.026 223.885 L 131.026 383.892 L 376.371 383.892 L 376.371 223.885 L 376.371 223.442 L 253.698 128.883 L 131.026 223.442 L 131.026 223.885 Z" id="path-61"/>
    <rect x="169.993" y="293.221" style="fill-opacity: 1; fill: rgb(108, 90, 71);" width="64.003" height="53.336" id="rect-41"/>
    <rect x="265.998" y="288.645" style="fill-opacity: 1; fill: rgb(108, 90, 71);" width="64.003" height="96.428" id="rect-42"/>
    <path style="fill-opacity: 1; fill: rgb(105, 105, 105);" d="M 205.256 346.557 L 205.256 323.15 L 233.997 323.15 L 233.997 316.628 L 205.256 316.628 L 205.256 293.221 L 198.734 293.221 L 198.734 316.628 L 169.993 316.628 L 169.993 323.15 L 198.734 323.15 L 198.734 346.557 L 205.256 346.557 Z" id="path-62"/>
    <path style="fill: rgb(119, 106, 95);" d="M 379.446 242.045 L 252.549 144.227 L 125.652 242.045 C 119.103 247.09 109.79 246.317 104.169 240.258 C 97.795 233.394 98.659 222.55 106.035 216.779 L 241.669 110.668 L 252.549 100.555 L 263.435 110.668 L 399.069 216.779 C 406.445 222.55 407.309 233.394 400.935 240.258 C 395.308 246.317 385.996 247.09 379.446 242.045 Z" id="path-63"/>
  </g>
  <g transform="matrix(0.098911, 0, 0, 0.098911, 159.349335, 331.427582)" style="">
    <path style="fill-opacity: 1; stroke: rgb(224, 225, 226); stroke-width: 1.9429; stroke-linecap: round; stroke-linejoin: round; stroke-miterlimit: 4; stroke-dasharray: none; stroke-opacity: 1; fill: rgb(221, 211, 195);" d="M 131.026 223.885 L 131.026 383.892 L 376.371 383.892 L 376.371 223.885 L 376.371 223.442 L 253.698 128.883 L 131.026 223.442 L 131.026 223.885 Z" id="path-64"/>
    <rect x="169.993" y="293.221" style="fill-opacity: 1; fill: rgb(108, 90, 71);" width="64.003" height="53.336" id="rect-43"/>
    <rect x="265.998" y="288.645" style="fill-opacity: 1; fill: rgb(108, 90, 71);" width="64.003" height="96.428" id="rect-44"/>
    <path style="fill-opacity: 1; fill: rgb(105, 105, 105);" d="M 205.256 346.557 L 205.256 323.15 L 233.997 323.15 L 233.997 316.628 L 205.256 316.628 L 205.256 293.221 L 198.734 293.221 L 198.734 316.628 L 169.993 316.628 L 169.993 323.15 L 198.734 323.15 L 198.734 346.557 L 205.256 346.557 Z" id="path-65"/>
    <path style="fill: rgb(119, 106, 95);" d="M 379.446 242.045 L 252.549 144.227 L 125.652 242.045 C 119.103 247.09 109.79 246.317 104.169 240.258 C 97.795 233.394 98.659 222.55 106.035 216.779 L 241.669 110.668 L 252.549 100.555 L 263.435 110.668 L 399.069 216.779 C 406.445 222.55 407.309 233.394 400.935 240.258 C 395.308 246.317 385.996 247.09 379.446 242.045 Z" id="path-66"/>
  </g>
  <g transform="matrix(0.098911, 0, 0, 0.098911, 263.20224, 372.476013)" style="">
    <path style="fill-opacity: 1; stroke: rgb(224, 225, 226); stroke-width: 1.9429; stroke-linecap: round; stroke-linejoin: round; stroke-miterlimit: 4; stroke-dasharray: none; stroke-opacity: 1; fill: rgb(221, 211, 195);" d="M 131.026 223.885 L 131.026 383.892 L 376.371 383.892 L 376.371 223.885 L 376.371 223.442 L 253.698 128.883 L 131.026 223.442 L 131.026 223.885 Z" id="path-70"/>
    <rect x="169.993" y="293.221" style="fill-opacity: 1; fill: rgb(108, 90, 71);" width="64.003" height="53.336" id="rect-47"/>
    <rect x="265.998" y="288.645" style="fill-opacity: 1; fill: rgb(108, 90, 71);" width="64.003" height="96.428" id="rect-48"/>
    <path style="fill-opacity: 1; fill: rgb(105, 105, 105);" d="M 205.256 346.557 L 205.256 323.15 L 233.997 323.15 L 233.997 316.628 L 205.256 316.628 L 205.256 293.221 L 198.734 293.221 L 198.734 316.628 L 169.993 316.628 L 169.993 323.15 L 198.734 323.15 L 198.734 346.557 L 205.256 346.557 Z" id="path-71"/>
    <path style="fill: rgb(119, 106, 95);" d="M 379.446 242.045 L 252.549 144.227 L 125.652 242.045 C 119.103 247.09 109.79 246.317 104.169 240.258 C 97.795 233.394 98.659 222.55 106.035 216.779 L 241.669 110.668 L 252.549 100.555 L 263.435 110.668 L 399.069 216.779 C 406.445 222.55 407.309 233.394 400.935 240.258 C 395.308 246.317 385.996 247.09 379.446 242.045 Z" id="path-72"/>
  </g>
  <g transform="matrix(0.098911, 0, 0, 0.098911, 296.017792, 371.285339)" style="">
    <path style="fill-opacity: 1; stroke: rgb(224, 225, 226); stroke-width: 1.9429; stroke-linecap: round; stroke-linejoin: round; stroke-miterlimit: 4; stroke-dasharray: none; stroke-opacity: 1; fill: rgb(221, 211, 195);" d="M 131.026 223.885 L 131.026 383.892 L 376.371 383.892 L 376.371 223.885 L 376.371 223.442 L 253.698 128.883 L 131.026 223.442 L 131.026 223.885 Z" id="path-73"/>
    <rect x="169.993" y="293.221" style="fill-opacity: 1; fill: rgb(108, 90, 71);" width="64.003" height="53.336" id="rect-49"/>
    <rect x="265.998" y="288.645" style="fill-opacity: 1; fill: rgb(108, 90, 71);" width="64.003" height="96.428" id="rect-50"/>
    <path style="fill-opacity: 1; fill: rgb(105, 105, 105);" d="M 205.256 346.557 L 205.256 323.15 L 233.997 323.15 L 233.997 316.628 L 205.256 316.628 L 205.256 293.221 L 198.734 293.221 L 198.734 316.628 L 169.993 316.628 L 169.993 323.15 L 198.734 323.15 L 198.734 346.557 L 205.256 346.557 Z" id="path-74"/>
    <path style="fill: rgb(119, 106, 95);" d="M 379.446 242.045 L 252.549 144.227 L 125.652 242.045 C 119.103 247.09 109.79 246.317 104.169 240.258 C 97.795 233.394 98.659 222.55 106.035 216.779 L 241.669 110.668 L 252.549 100.555 L 263.435 110.668 L 399.069 216.779 C 406.445 222.55 407.309 233.394 400.935 240.258 C 395.308 246.317 385.996 247.09 379.446 242.045 Z" id="path-75"/>
  </g>
  <path d="M 115.337 447.94 L 102.517 439.474 L 103.82 437.501 C 104.602 437.521 105.385 437.615 106.167 437.784 C 107.008 437.942 107.785 438.157 108.499 438.43 L 143.999 413.796 L 147.839 416.332 L 138.759 458.413 C 139.359 459.008 139.914 459.673 140.423 460.407 C 140.955 461.106 141.367 461.8 141.657 462.489 L 140.355 464.461 L 124.109 453.733 L 125.412 451.76 C 126.275 451.883 127.178 452.057 128.122 452.283 C 129.066 452.509 129.93 452.781 130.714 453.1 L 133.153 442.859 L 121.631 435.25 L 113.118 441.48 C 114.573 442.739 115.747 444.235 116.64 445.968 L 115.337 447.94 Z M 125.104 432.699 L 134.291 438.766 L 137.464 426.624 L 139.426 421.51 L 139.322 421.441 L 135.164 425.254 L 125.104 432.699 Z" id="path28357" style="font-style:normal;font-variant:normal;font-weight:bold;font-stretch:normal;font-size:62.1999px;line-height:1.25;font-family:'PT Serif';-inkscape-font-specification:'PT Serif Bold';letter-spacing:1px"/>
  <path d="M 163.007 426.899 L 181.954 434.465 L 181.077 436.66 C 180.099 436.761 179.048 436.765 177.924 436.674 C 176.854 436.559 175.833 436.374 174.863 436.121 L 161.76 468.931 L 172.909 473.383 L 180.908 464.589 L 183.277 465.535 C 183.077 466.482 182.797 467.575 182.435 468.815 C 182.113 470.071 181.728 471.368 181.283 472.708 C 180.837 474.048 180.379 475.362 179.91 476.648 C 179.441 477.934 178.995 479.051 178.572 479.998 L 146.86 467.334 L 147.736 465.139 C 148.807 465.031 149.781 464.995 150.658 465.033 C 151.575 465.087 152.403 465.194 153.142 465.355 L 166.198 432.661 C 164.434 431.599 163.078 430.41 162.13 429.094 L 163.007 426.899 Z" id="path28359" style="font-style:normal;font-variant:normal;font-weight:bold;font-stretch:normal;font-size:62.1999px;line-height:1.25;font-family:'PT Serif';-inkscape-font-specification:'PT Serif Bold';letter-spacing:1px"/>
  <path d="M 197.241 484.017 L 182.137 481.205 L 182.569 478.881 C 183.297 478.595 184.055 478.377 184.842 478.229 C 185.677 478.047 186.477 477.942 187.241 477.916 L 210.36 441.412 L 214.886 442.254 L 222.891 484.553 C 223.676 484.868 224.446 485.264 225.2 485.742 C 225.963 486.179 226.611 486.659 227.147 487.18 L 226.714 489.504 L 207.575 485.941 L 208.007 483.617 C 208.85 483.394 209.75 483.203 210.708 483.044 C 211.666 482.885 212.567 482.8 213.413 482.788 L 211.676 472.405 L 198.101 469.878 L 192.683 478.929 C 194.513 479.523 196.176 480.444 197.673 481.693 L 197.241 484.017 Z M 200.309 466.177 L 211.132 468.192 L 209.332 455.772 L 209.15 450.297 L 209.027 450.274 L 206.68 455.405 L 200.309 466.177 Z" id="path28361" style="font-style:normal;font-variant:normal;font-weight:bold;font-stretch:normal;font-size:62.1999px;line-height:1.25;font-family:'PT Serif';-inkscape-font-specification:'PT Serif Bold';letter-spacing:1px"/>
  <path d="M 232.718 489.583 L 232.748 487.22 C 233.541 486.774 234.376 486.391 235.251 486.07 C 236.167 485.75 237.04 485.554 237.871 485.481 L 238.318 450.279 C 237.491 450.103 236.623 449.863 235.715 449.562 C 234.807 449.218 233.982 448.835 233.241 448.41 L 233.271 446.047 L 243.285 446.174 C 244.86 446.194 246.354 446.151 247.765 446.045 C 249.176 445.938 250.794 445.897 252.619 445.92 C 254.609 445.945 256.535 446.115 258.397 446.429 C 260.259 446.743 261.911 447.282 263.353 448.047 C 264.795 448.812 265.942 449.884 266.796 451.263 C 267.649 452.601 268.063 454.327 268.036 456.442 C 268.019 457.769 267.755 459.009 267.242 460.164 C 266.772 461.278 266.096 462.265 265.214 463.124 C 264.374 463.984 263.369 464.697 262.201 465.263 C 261.074 465.829 259.846 466.228 258.516 466.46 L 258.513 466.709 C 259.837 466.892 261.16 467.22 262.481 467.693 C 263.844 468.166 265.059 468.845 266.125 469.729 C 267.192 470.614 268.049 471.724 268.696 473.059 C 269.384 474.353 269.717 475.892 269.695 477.675 C 269.666 479.914 269.144 481.836 268.128 483.44 C 267.113 485.044 265.748 486.354 264.035 487.369 C 262.363 488.385 260.446 489.127 258.284 489.598 C 256.122 490.026 253.88 490.226 251.558 490.196 C 250.687 490.185 249.734 490.152 248.698 490.098 C 247.662 490.043 246.626 489.988 245.59 489.934 C 244.554 489.879 243.538 489.825 242.544 489.771 C 241.591 489.717 240.782 489.686 240.119 489.678 L 232.718 489.583 Z M 251.547 486.153 C 254.159 486.186 256.222 485.445 257.734 483.93 C 259.246 482.373 260.019 480.31 260.052 477.739 C 260.072 476.163 259.839 474.875 259.355 473.873 C 258.87 472.83 258.196 472.013 257.333 471.422 C 256.47 470.789 255.439 470.361 254.239 470.138 C 253.04 469.874 251.735 469.733 250.325 469.715 L 247.029 469.673 L 246.826 485.657 C 247.405 485.789 248.005 485.9 248.626 485.991 C 249.288 486.083 250.262 486.136 251.547 486.153 L 251.547 486.153 Z M 249.071 465.656 C 249.776 465.665 250.481 465.653 251.186 465.621 C 251.892 465.547 252.557 465.472 253.18 465.397 C 254.805 464.754 256.124 463.755 257.137 462.399 C 258.15 461.002 258.668 459.412 258.69 457.629 C 258.723 455.017 258.064 453.101 256.711 451.881 C 255.358 450.62 253.604 449.976 251.448 449.948 C 250.536 449.937 249.747 449.947 249.084 449.98 C 248.42 450.013 247.818 450.068 247.278 450.144 L 247.081 465.631 L 249.071 465.656 Z" id="path28363" style="font-style:normal;font-variant:normal;font-weight:bold;font-stretch:normal;font-size:62.1999px;line-height:1.25;font-family:'PT Serif';-inkscape-font-specification:'PT Serif Bold';letter-spacing:1px"/>
  <path d="M 290.159 486.357 L 275.184 489.787 L 274.656 487.483 C 275.21 486.93 275.819 486.429 276.481 485.98 C 277.175 485.481 277.867 485.067 278.558 484.738 L 285.245 442.05 L 289.732 441.022 L 313.906 476.644 C 314.751 476.62 315.615 476.678 316.497 476.816 C 317.371 476.914 318.157 477.095 318.855 477.361 L 319.383 479.665 L 300.406 484.01 L 299.878 481.707 C 300.563 481.167 301.313 480.634 302.128 480.107 C 302.943 479.58 303.736 479.143 304.508 478.796 L 298.784 469.961 L 285.324 473.043 L 283.954 483.503 C 285.869 483.319 287.761 483.503 289.632 484.053 L 290.159 486.357 Z M 285.876 468.769 L 296.608 466.311 L 290.015 455.634 L 287.669 450.683 L 287.548 450.711 L 287.436 456.352 L 285.876 468.769 Z" id="path28365" style="font-style:normal;font-variant:normal;font-weight:bold;font-stretch:normal;font-size:62.1999px;line-height:1.25;font-family:'PT Serif';-inkscape-font-specification:'PT Serif Bold';letter-spacing:1px"/>
  <path d="M 374.163 453.054 L 357.537 461.388 L 356.478 459.275 C 357.033 458.533 357.598 457.855 358.172 457.243 C 358.747 456.63 359.395 456.027 360.118 455.433 L 348.466 432.19 L 345.483 425.545 L 345.038 425.768 L 346.186 432.638 L 349.252 465.541 L 346.694 466.824 L 322.332 444.874 L 317.069 439.372 L 316.568 439.622 L 320.164 446.656 L 331.592 469.454 C 332.371 469.249 333.27 469.1 334.29 469.006 C 335.31 468.912 336.293 468.884 337.239 468.92 L 338.298 471.033 L 324.73 477.834 L 323.671 475.721 C 324.116 475.127 324.662 474.413 325.31 473.577 C 325.995 472.724 326.69 472.028 327.394 471.489 L 311.757 440.295 C 310.941 440.518 310.042 440.714 309.059 440.882 C 308.113 441.031 307.223 441.06 306.389 440.968 L 305.33 438.855 L 320.398 431.301 L 340.251 449.667 L 344.539 454.197 L 344.595 454.169 L 343.531 447.884 L 340.916 421.016 L 354.706 414.103 L 355.765 416.216 C 355.321 416.902 354.803 417.58 354.21 418.248 C 353.636 418.861 353.015 419.427 352.348 419.947 L 368.153 451.474 C 369.005 451.232 369.858 451.083 370.711 451.027 C 371.601 450.952 372.399 450.923 373.103 450.941 L 374.163 453.054 Z" id="path28367" style="font-style:normal;font-variant:normal;font-weight:bold;font-stretch:normal;font-size:62.1999px;line-height:1.25;font-family:'PT Serif';-inkscape-font-specification:'PT Serif Bold';letter-spacing:1px"/>
  <path d="M 390.199 441.66 L 378.387 451.484 L 376.875 449.666 C 377.12 448.923 377.437 448.202 377.825 447.501 C 378.219 446.742 378.649 446.061 379.117 445.456 L 365.802 404.349 L 369.341 401.406 L 406.998 422.268 C 407.741 421.866 408.538 421.527 409.388 421.251 C 410.211 420.944 410.994 420.751 411.738 420.672 L 413.249 422.49 L 398.281 434.938 L 396.769 433.121 C 397.136 432.33 397.565 431.516 398.054 430.677 C 398.543 429.839 399.054 429.091 399.585 428.433 L 390.488 423.136 L 379.871 431.966 L 383.373 441.916 C 384.999 440.888 386.77 440.197 388.687 439.843 L 390.199 441.66 Z M 378.434 427.903 L 386.898 420.863 L 376.193 414.314 L 371.864 410.957 L 371.769 411.037 L 374.216 416.12 L 378.434 427.903 Z" id="path28369" style="font-style:normal;font-variant:normal;font-weight:bold;font-stretch:normal;font-size:62.1999px;line-height:1.25;font-family:'PT Serif';-inkscape-font-specification:'PT Serif Bold';letter-spacing:1px"/>
</svg>