<?xml version="1.0" encoding="UTF-8" standalone="no"?>
<!-- Created with Inkscape (http://www.inkscape.org/) -->

<svg
   version="1.1"
   id="svg183"
   width="2.5681341"
   height="2.579726"
   viewBox="0 0 2.568134 2.579726"
   sodipodi:docname="backstory-lamp.svg"
   inkscape:version="1.2.2 (b0a8486541, 2022-12-01)"
   inkscape:export-filename="backstory-podcast-light.png"
   inkscape:export-xdpi="10000"
   inkscape:export-ydpi="10000"
   xmlns:inkscape="http://www.inkscape.org/namespaces/inkscape"
   xmlns:sodipodi="http://sodipodi.sourceforge.net/DTD/sodipodi-0.dtd"
   xmlns="http://www.w3.org/2000/svg"
   xmlns:svg="http://www.w3.org/2000/svg">
  <defs
     id="defs187" />
  <sodipodi:namedview
     id="namedview185"
     pagecolor="#505050"
     bordercolor="#eeeeee"
     borderopacity="1"
     inkscape:showpageshadow="0"
     inkscape:pageopacity="0"
     inkscape:pagecheckerboard="0"
     inkscape:deskcolor="#505050"
     showgrid="false"
     inkscape:zoom="256"
     inkscape:cx="1.2851562"
     inkscape:cy="1.7089844"
     inkscape:window-width="1620"
     inkscape:window-height="1255"
     inkscape:window-x="1156"
     inkscape:window-y="699"
     inkscape:window-maximized="0"
     inkscape:current-layer="g189" />
  <g
     inkscape:groupmode="layer"
     inkscape:label="Image"
     id="g189"
     transform="translate(12.070477,-0.16617234)">
    <rect
       style="fill:#ffffff;fill-opacity:0.996078;stroke-width:9.5;stroke-opacity:0.996078"
       id="rect637"
       width="2.584095"
       height="2.592638"
       x="-12.079941"
       y="0.16067202"
       inkscape:export-filename="./rect637.png"
       inkscape:export-xdpi="10000"
       inkscape:export-ydpi="10000" />
    <path
       style="fill:#000000;stroke-width:0.0157284"
       d="m -10.322147,0.40955884 c 0.0052,-0.16105932 0.0071,-0.16898974 0.04952,-0.2054561 0.03758,-0.0322965 0.06053,-0.0379304 0.154562,-0.0379304 0.101085,0 0.114323,0.003891 0.1564074,0.0459754 0.044759,0.0447589 0.045975,0.050188 0.045975,0.20518219 v 0.1592068 l -0.058982,-0.012509 c -0.076083,-0.0161364 -0.2154594,-0.0160059 -0.2924344,2.7377e-4 l -0.06044,0.0127829 0.0054,-0.16752566 z"
       id="path551" />
    <path
       style="fill:#000000;stroke-width:0.0157284"
       d="m -10.729071,1.2080094 c 0.03193,-0.26962122 0.240363,-0.48919512 0.510619,-0.53791782 0.193569,-0.0348974 0.3999481,0.03503 0.5397958,0.1828982 0.094281,0.099689 0.1551142,0.22447322 0.1673832,0.34334742 l 0.00893,0.086553 h -0.617797 -0.617799 z"
       id="path549" />
    <path
       style="fill:#000000;stroke-width:0.0157284"
       d="m -11.242094,1.018277 0.223726,-0.45889414 h -0.106275 -0.106275 l -0.199639,0.40500692 c -0.109801,0.22275372 -0.199612,0.41313542 -0.19958,0.42307032 6.3e-5,0.020967 0.126352,0.1007484 0.149034,0.094154 0.0084,-0.00244 0.11596,-0.2109457 0.239009,-0.4633371 z"
       id="path547" />
    <path
       style="fill:#000000;stroke-width:0.0157284"
       d="m -11.063855,2.4152158 c 0,-0.014129 -0.387909,-0.8004416 -0.402725,-0.8163449 -0.0073,-0.00786 -0.116115,0.024714 -0.144952,0.043405 -0.01597,0.010353 0.02399,0.1030929 0.172863,0.4011276 l 0.193639,0.3876612 h 0.09059 c 0.05037,0 0.09059,-0.00704 0.09059,-0.015849 z"
       id="path545" />
    <path
       style="fill:#000000;stroke-width:0.0157284"
       d="M -12.070474,2.6356668 V 2.5254357 h 0.256207 0.256207 l -6.2e-4,-0.043253 c -6.04e-4,-0.042101 0.0021,-0.043462 0.103191,-0.051117 l 0.103811,-0.00786 -0.223182,-0.4561242 -0.223182,-0.4561243 0.233402,-0.4678191 c 0.128371,-0.25730052 0.233402,-0.47140365 0.233402,-0.47578477 0,-0.004381 -0.07432,-0.007966 -0.165148,-0.007966 h -0.165149 v -0.0469477 -0.0469477 l 0.460057,-0.00417 0.460056,-0.00417 4.37e-4,-0.074585 c 6.36e-4,-0.10839979 0.02738,-0.12841345 0.180907,-0.13538558 l 0.12536,-0.005693 v 0.0859765 c 0,0.0472871 0.0045,0.1188144 0.01,0.15894963 l 0.01,0.0729731 h -0.250063 -0.250064 l -0.241123,0.48364912 -0.241124,0.483649 0.220651,0.4521921 0.22065,0.4521921 h 0.05501 c 0.04111,0 0.05752,0.00791 0.06494,0.031316 0.0055,0.017224 0.0056,0.038285 3.68e-4,0.046802 -0.0061,0.00986 0.08631,0.017052 0.254572,0.019801 l 0.264143,0.00432 v 0.1022347 0.1022348 l -0.87686,0.00406 -0.876859,0.00406 z"
       id="path543" />
  </g>
</svg>
