<?xml version="1.0" encoding="UTF-8"?>
<svg viewBox="0 0 148.40462 137.63538" xmlns="http://www.w3.org/2000/svg">
 <defs>
  <filter id="b">
   <feGaussianBlur stdDeviation="1.33607"/>
  </filter>
  <linearGradient id="a" x1="58.85" x2="120.85" y1="60.549" y2="118.55" gradientUnits="userSpaceOnUse">
   <stop stop-color="#fc0" offset="0"/>
   <stop stop-color="#ff9000" offset="1"/>
  </linearGradient>
 </defs>
 <path d="m74.202 4.7066c-0.80171 0-1.5735 0.17356-2.2681 0.49266s-1.3194 0.77602-1.8448 1.3466-0.84393 1.3234-1.2399 2.0035c-22.303 38.303-42.603 77.939-63.931 116.89-0.2117 0.13217-0.2117 0.76491-0.2117 1.1824 0 0.87068 0.15981 1.7088 0.45363 2.4633s0.71454 1.4329 1.2399 2.0035 1.1501 1.0275 1.8448 1.3466 1.4664 0.49266 2.2681 0.49266h127.38c0.80172 0 1.5735-0.17355 2.2681-0.49266s1.3194-0.77602 1.8448-1.3466 0.9461-1.249 1.2399-2.0035 0.45363-1.5926 0.45363-2.4633c0-0.41748 0-1.0502-0.2117-1.1824-21.328-38.952-41.628-78.588-63.931-116.89-0.396-0.68008-0.71454-1.4329-1.2399-2.0035s-1.1501-1.0275-1.8447-1.3466-1.4664-0.49266-2.2681-0.49266z" fill="none" filter="url(#b)" stroke="#000" stroke-width="3"/>
 <path d="m71.845 4.827c-0.80171 0-1.5735 0.17356-2.2681 0.49266s-1.3194 0.77602-1.8448 1.3466-0.84393 1.3234-1.2399 2.0035c-22.303 38.303-42.603 77.939-63.931 116.89-0.2117 0.13217-0.2117 0.76491-0.2117 1.1824 0 0.87068 0.15981 1.7088 0.45363 2.4633s0.71454 1.4329 1.2399 2.0035 1.1501 1.0275 1.8448 1.3466 1.4664 0.49266 2.2681 0.49266h127.38c0.80172 0 1.5735-0.17355 2.2681-0.49266s1.3194-0.77602 1.8448-1.3466 0.9461-1.249 1.2399-2.0035 0.45363-1.5926 0.45363-2.4633c0-0.41748 0-1.0502-0.2117-1.1824-21.328-38.952-41.628-78.588-63.931-116.89-0.396-0.68008-0.71454-1.4329-1.2399-2.0035s-1.1501-1.0275-1.8447-1.3466-1.4664-0.49266-2.2681-0.49266z" fill="#fff" stroke="#000" stroke-width="3"/>
 <path d="m71.745 13.604c-0.71581 0-1.4049 0.15496-2.0251 0.43987s-1.178 0.69287-1.6471 1.2023-0.75351 1.1816-1.1071 1.7888c-19.913 34.199-37.411 67.43-57.081 104.37-0.16804 0.31554-0.18902 0.68296-0.18902 1.0557 0 0.77739 0.14268 1.5258 0.40503 2.1994s0.63798 1.2794 1.1071 1.7888 1.0268 0.91741 1.6471 1.2023 1.3093 0.43987 2.0251 0.43987h113.73c0.71583 0 1.4049-0.15496 2.0251-0.43987s1.178-0.69288 1.6471-1.2023 0.84473-1.1152 1.1071-1.7888 0.40602-1.422 0.40503-2.1994c-4.8e-4 -0.37305-0.0207-0.74033-0.18902-1.0557-18.656-34.953-37.173-70.165-57.081-104.37-0.35347-0.60726-0.63798-1.2794-1.1071-1.7888s-1.0268-0.91741-1.6471-1.2023-1.3093-0.43987-2.0251-0.43987z" fill="url(#a)" stroke="#000" stroke-width=".90046"/>
 <g transform="translate(-6.4844 -2.742)">
  <path d="m77 43.063c-4.9706 0-9 4.0294-9 9 0 0.1177-0.0045 0.22715 0 0.34375l4 48h0.03125c0.18138 2.5964 2.3262 4.6562 4.9688 4.6562s4.7874-2.0598 4.9688-4.6562h0.03125l3.7812-45.344c0.12573-0.859 0.21875-1.7321 0.21875-2.6562 0.0045-0.1166 0-0.22605 0-0.34375 0-4.9706-4.0294-9-9-9z"/>
  <path transform="matrix(.81818,0,0,1,68,59)" d="m22 57.407c0 4.9706-4.9249 9-11 9s-11-4.0294-11-9 4.9249-9 11-9 11 4.0294 11 9z"/>
 </g>
</svg>
