<?xml version="1.0" encoding="UTF-8" standalone="no"?>
<svg
   width="307.033"
   height="86.561"
   version="1.1"
   id="svg2021"
   sodipodi:docname="eagle.svg"
   inkscape:version="1.2.2 (b0a8486541, 2022-12-01)"
   xmlns:inkscape="http://www.inkscape.org/namespaces/inkscape"
   xmlns:sodipodi="http://sodipodi.sourceforge.net/DTD/sodipodi-0.dtd"
   xmlns="http://www.w3.org/2000/svg"
   xmlns:svg="http://www.w3.org/2000/svg">
  <defs
     id="defs2025" />
  <sodipodi:namedview
     id="namedview2023"
     pagecolor="#505050"
     bordercolor="#eeeeee"
     borderopacity="1"
     inkscape:showpageshadow="0"
     inkscape:pageopacity="0"
     inkscape:pagecheckerboard="0"
     inkscape:deskcolor="#505050"
     showgrid="false"
     inkscape:zoom="2.408536"
     inkscape:cx="193.89372"
     inkscape:cy="-85.73673"
     inkscape:window-width="3840"
     inkscape:window-height="2087"
     inkscape:window-x="0"
     inkscape:window-y="37"
     inkscape:window-maximized="1"
     inkscape:current-layer="svg2021" />
  <g
     id="g180">
    <g
       aria-label="RIPP"
       transform="translate(983.454 35.53)"
       id="text2015"
       style="font-weight:700;font-size:33.8851px;line-height:1.25;-inkscape-font-specification:'sans-serif Bold';fill:#ffffff;stroke-width:0.847127">
      <path
         d="m -956.40523,3.6090372 q 4.94722,0 7.2853,1.7959103 2.37195,1.7959104 2.37195,5.4555015 0,1.66037 -0.64381,2.914119 -0.60994,1.219863 -1.66037,2.100876 -1.01656,0.847127 -2.20254,1.389289 l 7.11588,10.538266 h -5.6927 l -5.76047,-9.284517 h -2.74469 v 9.284517 h -5.11665 V 3.6090372 Z m -0.37274,4.2017525 h -1.55871 v 6.5398243 h 1.66037 q 2.54138,0 3.6257,-0.847127 1.11821,-0.847128 1.11821,-2.507498 0,-1.7281399 -1.18598,-2.4397271 -1.15209,-0.7454722 -3.65959,-0.7454722 z"
         id="path2289" />
      <path
         d="m -932.04185,27.802999 h -11.01266 v -2.914118 l 2.94801,-1.355404 V 7.8785599 l -2.94801,-1.355404 V 3.6090372 h 11.01266 v 2.9141187 l -2.948,1.355404 V 23.533477 l 2.948,1.355404 z"
         id="path2291" />
      <path
         d="m -920.18206,3.6090372 q 4.67614,0 6.8109,2.033106 2.16865,1.999221 2.16865,5.5232718 0,2.100876 -0.88102,3.964557 -0.88101,1.829795 -2.948,2.948003 -2.03311,1.118209 -5.55716,1.118209 h -2.20253 v 8.606815 h -5.11665 V 3.6090372 Z m -0.27109,4.2017525 h -2.33807 v 7.1836413 h 1.69426 q 2.16864,0 3.42239,-0.847127 1.28764,-0.881013 1.28764,-2.812464 0,-3.5240503 -4.06622,-3.5240503 z"
         id="path2293" />
      <path
         d="m -898.90221,3.6090372 q 4.67614,0 6.8109,2.033106 2.16865,1.999221 2.16865,5.5232718 0,2.100876 -0.88101,3.964557 -0.88101,1.829795 -2.94801,2.948003 -2.0331,1.118209 -5.55715,1.118209 h -2.20253 v 8.606815 h -5.11665 V 3.6090372 Z m -0.27108,4.2017525 h -2.33807 v 7.1836413 h 1.69425 q 2.16865,0 3.4224,-0.847127 1.28763,-0.881013 1.28763,-2.812464 0,-3.5240503 -4.06621,-3.5240503 z"
         id="path2295" />
    </g>
    <g
       aria-label="REPORT"
       transform="translate(983.454 35.53)"
       id="text2019"
       style="font-weight:700;font-size:33.8851px;line-height:1.25;-inkscape-font-specification:'sans-serif Bold';fill:#ffffff;stroke-width:0.847127">
      <path
         d="m -824.15822,3.2700384 q 4.94722,0 7.2853,1.7959103 2.37195,1.7959104 2.37195,5.4555013 0,1.66037 -0.64381,2.914119 -0.60994,1.219863 -1.66037,2.100876 -1.01656,0.847128 -2.20254,1.389289 l 7.11588,10.538267 h -5.6927 l -5.76047,-9.284518 h -2.74469 v 9.284518 h -5.11665 V 3.2700384 Z m -0.37274,4.2017525 h -1.55871 v 6.5398241 h 1.66037 q 2.54138,0 3.6257,-0.847127 1.11821,-0.847128 1.11821,-2.507498 0,-1.7281397 -1.18598,-2.4397268 -1.15209,-0.7454723 -3.65959,-0.7454723 z"
         id="path2276" />
      <path
         d="m -794.91538,27.464001 h -13.92678 V 3.2700384 h 13.92678 v 4.2017525 h -8.81013 v 5.3199611 h 8.20019 v 4.201752 h -8.20019 v 6.234859 h 8.81013 z"
         id="path2278" />
      <path
         d="m -782.14072,3.2700384 q 4.67615,0 6.81091,2.033106 2.16864,1.999221 2.16864,5.5232716 0,2.100876 -0.88101,3.964557 -0.88101,1.829795 -2.948,2.948004 -2.03311,1.118208 -5.55716,1.118208 h -2.20253 v 8.606816 h -5.11665 V 3.2700384 Z m -0.27108,4.2017525 h -2.33807 v 7.1836411 h 1.69425 q 2.16865,0 3.4224,-0.847127 1.28763,-0.881013 1.28763,-2.812464 0,-3.5240501 -4.06621,-3.5240501 z"
         id="path2280" />
      <path
         d="m -746.62912,15.333134 q 0,3.761247 -1.25375,6.57371 -1.21987,2.778578 -3.76125,4.337293 -2.54138,1.558715 -6.50594,1.558715 -3.93067,0 -6.50594,-1.558715 -2.54138,-1.558715 -3.79513,-4.371178 -1.21986,-2.812463 -1.21986,-6.57371 0,-3.761246 1.21986,-6.5398242 1.25375,-2.7785783 3.79513,-4.3034079 2.57527,-1.5587147 6.53983,-1.5587147 3.93067,0 6.47205,1.5587147 2.54138,1.5248296 3.76125,4.337293 1.25375,2.7785781 1.25375,6.5398241 z m -17.65414,0 q 0,3.795132 1.45706,5.997663 1.45706,2.168647 4.67614,2.168647 3.28686,0 4.71003,-2.168647 1.42317,-2.202531 1.42317,-5.997663 0,-3.829016 -1.42317,-5.9976625 -1.42317,-2.1686465 -4.67614,-2.1686465 -3.25297,0 -4.71003,2.1686465 -1.45706,2.1686465 -1.45706,5.9976625 z"
         id="path2282" />
      <path
         d="m -734.56604,3.2700384 q 4.94722,0 7.28529,1.7959103 2.37196,1.7959104 2.37196,5.4555013 0,1.66037 -0.64382,2.914119 -0.60993,1.219863 -1.66037,2.100876 -1.01655,0.847128 -2.20253,1.389289 l 7.11587,10.538267 h -5.69269 l -5.76047,-9.284518 h -2.74469 v 9.284518 h -5.11665 V 3.2700384 Z m -0.37274,4.2017525 h -1.55871 v 6.5398241 h 1.66037 q 2.54138,0 3.6257,-0.847127 1.11821,-0.847128 1.11821,-2.507498 0,-1.7281397 -1.18598,-2.4397268 -1.15209,-0.7454723 -3.65959,-0.7454723 z"
         id="path2284" />
      <path
         d="m -709.93157,27.464001 h -5.11666 V 7.5395611 h -6.5737 V 3.2700384 h 18.26406 v 4.2695227 h -6.5737 z"
         id="path2286" />
    </g>
    <g
       id="g1927"
       transform="matrix(3.7795276,0,0,3.7795276,29.521119,-616.14862)">
      <g
         style="fill:#ffffff"
         id="g637-35-2"
         transform="matrix(0.26458333,0,0,0.26458333,-7.9297838,163.5883)">
        <path
           style="fill:#ffffff;fill-opacity:1;stroke:none;stroke-width:2.64472;stroke-opacity:0.996078"
           d="m 132.30328,75.119977 c -9.24815,-28.724224 -10.12081,-43.623824 -9.64303,-7.523903 -9.21422,-20.143238 -4.06376,-20.672292 -11.77392,-1.440803 -4.82229,-22.454616 0.28935,-25.093705 -12.733991,-8.392146 1.962311,-6.39472 4.090571,-16.944702 4.068151,-23.70771 35.15597,21.370336 -0.34067,-4.55206 -13.034384,-13.156367 6.626635,0.608161 18.348244,7.85495 22.588624,3.812994 1.58651,-2.04636 -1.13428,-4.381886 -2.56808,-2.164236 1.65199,-2.726795 5.78129,-2.135554 8.04296,-0.298489 0.53528,-5.141455 1.43251,-3.769165 11.65072,-1.309905 -8.42579,-7.474949 -25.15111,-9.775231 -34.331176,-4.907681 -1.365383,-8.5384596 -11.441178,-5.805853 -9.360779,-8.042994 25.582205,-13.5554058 70.545185,23.857736 46.594215,10.391979 7.01204,8.2035 14.53404,20.967758 16.28976,33.295481 -2.80223,-4.733122 -5.55766,-9.921977 -10.36539,-12.882398 5.983,8.141297 10.74377,27.978577 11.47267,37.561753 -20.09055,-38.011068 -9.7042,-33.919963 -16.89635,-1.235575 z"
           id="path631-62-6"
           sodipodi:nodetypes="ccccccccccccccccc" />
        <path
           style="fill:#ffffff;fill-opacity:1;stroke:none;stroke-width:20.9317;stroke-opacity:0.996078"
           d="m -497.534,304.891 c 2.02561,12.08791 37.12188,25.64902 26.977,-12.107 -1.13213,-1.3024 20.616,-12.87 24.385,-13.013 -9.54428,70.20176 -68.39295,40.52891 -51.362,25.12 z m -144.558,40.46 c 0.7474,6.80078 1.2871,12.28118 4.807,22.425 -97.95835,88.87599 -121.36322,112.85607 -128.751,170.208 -11.97069,-84.49153 73.44652,-148.33837 123.944,-192.633 z"
           transform="matrix(0.1159171,0.05027474,-0.05027474,0.1159171,174.32837,6.9714307)"
           id="path633-9-1"
           sodipodi:nodetypes="cccccccc" />
        <path
           style="fill:#ffffff;fill-opacity:1;stroke:none;stroke-width:7.40047;stroke-opacity:0.996078"
           d="m -712.465,521.993 c 65.80576,-61.64177 110.94252,-82.75498 195.624,-84.116 -12.438,3.358 -25.25,5.732 -37.562,9.735 -61.6018,18.37947 -71.74221,19.56903 -157.761,74.669 l -0.236,-0.054 z"
           transform="matrix(0.1159171,0.05027474,-0.05027474,0.1159171,174.32837,6.9714307)"
           id="path635-1-8"
           sodipodi:nodetypes="cccccc" />
      </g>
    </g>
  </g>
</svg>
